<svg width="125" height="32" viewBox="0 0 125 32" fill="none" xmlns="http://www.w3.org/2000/svg">
<path d="M94.7519 26.6144C93.4916 26.6144 92.7102 25.7637 92.7102 24.6457V15.8959C92.7102 12.9064 93.3908 11.0835 95.1553 9.43076C96.6424 8.02107 99.1883 7.1947 101.054 7.31623C102.188 7.38914 103.02 8.09399 102.969 9.26063C102.944 10.403 102.062 11.1321 100.928 11.0835C99.9193 11.0592 98.7598 11.4724 98.0792 12.1286C97.2222 12.9307 96.8189 14.0001 96.8189 15.7744V24.6214C96.7937 25.7637 96.0123 26.6144 94.7519 26.6144Z" fill="#133250"/>
<path d="M51.1191 23.9166C49.9848 20.3195 47.817 18.1563 46.1786 16.8925C45.3972 16.2849 44.3385 15.6043 43.2294 15.1182C44.2125 14.2675 47.5902 11.3266 48.1699 10.7433C48.9765 9.91694 49.0521 8.7503 48.2707 7.94824C47.4137 7.02465 46.229 7.12187 45.2963 7.85102C44.6662 8.36142 40.7591 12.0315 38.8434 13.8301V2.01781C38.8434 0.875475 38.0368 0.000494179 36.7765 0.000494179C35.4909 -0.0238108 34.6843 0.85117 34.6843 2.01781V24.5729C34.6843 25.7152 35.4909 26.5902 36.7765 26.5902C38.062 26.5902 38.8434 25.7152 38.8434 24.5729V17.8647C39.0199 17.8647 39.1459 17.889 39.3476 17.889C41.6666 18.132 45.5484 20.4653 47.086 25.1319C47.5145 26.3958 48.7245 26.7846 49.7327 26.493C50.867 26.177 51.5224 25.1319 51.1191 23.9166Z" fill="#133250"/>
<path d="M69.0158 7.46204C67.8815 7.00024 66.8228 7.43773 66.3691 8.50715C66.3187 8.60437 62.941 16.382 60.874 20.9027L55.0765 8.45854C54.6228 7.48634 53.4885 6.95163 52.329 7.46204C51.1947 7.97244 50.867 9.06617 51.2955 10.1113L58.6306 25.545C58.0005 26.6387 57.5972 27.0762 57.0426 27.4165C56.6393 27.6595 56.1604 27.8296 54.8244 27.8296C53.7405 27.8053 52.9591 28.5102 52.9591 29.7254C52.9591 30.9164 53.8918 31.5969 54.9757 31.6455C56.6897 31.7428 58.0509 31.4511 59.2608 30.6976C61.0505 29.6039 61.8319 28.0241 63.0922 25.4721C64.2769 23.0659 69.7972 10.6217 70.0493 10.0384C70.5534 8.99325 70.1501 7.92383 69.0158 7.46204Z" fill="#133250"/>
<path d="M89.66 13.9029C88.8534 10.1113 85.1228 7.17041 80.7117 7.17041C75.6955 7.17041 71.2087 10.962 71.2087 16.9653C71.2087 19.6875 72.1918 22.2395 73.9563 24.0381C75.6955 25.8124 78.317 26.736 80.9637 26.736C83.2323 26.736 85.4253 26.2012 86.9629 25.2047C87.8704 24.6214 88.2233 23.6249 87.7191 22.677C87.1394 21.5833 86.0051 21.3645 85.0472 21.8993C83.7869 22.5555 82.6526 23.0902 80.9133 23.0902C78.4683 23.0902 76.4013 21.6805 75.5947 19.2257C78.5439 18.6667 85.7782 17.2813 87.3662 16.9653C89.1307 16.5765 90.0129 15.4827 89.66 13.9029ZM75.3678 15.6043C75.8216 12.8335 77.6869 10.8162 80.7369 10.8162C82.829 10.8162 84.6187 11.9828 85.4001 13.6842L75.3678 15.6043Z" fill="#133250"/>
<path d="M114.665 7.00024C108.843 7.00024 104.331 11.3508 104.331 16.9653C104.331 22.5798 108.843 26.9304 114.665 26.9304C120.488 26.9304 125 22.5798 125 16.9653C125 11.3508 120.488 7.00024 114.665 7.00024ZM114.665 23.236C111.162 23.236 108.439 20.5138 108.439 16.9653C108.439 13.4168 111.136 10.6946 114.665 10.6946C118.169 10.6946 120.891 13.4168 120.891 16.9653C120.891 20.4895 118.169 23.236 114.665 23.236Z" fill="#133250"/>
<path d="M14.4686 7.34058C13.1074 7.34058 11.8471 7.70515 10.7632 8.31278C11.0909 9.30928 11.2673 10.403 11.2673 11.4967C11.2673 12.0801 11.2169 12.6634 11.1161 13.2224C13.6115 15.1668 15.3256 17.9862 15.7793 21.2187C19.1822 20.6597 21.7281 17.7917 21.7281 14.3647C21.7281 10.4759 18.4764 7.34058 14.4686 7.34058Z" fill="#F5B333"/>
<path d="M9.14994 1.62892C9.30118 1.36156 9.52804 1.24004 10.007 1.0699C10.4859 0.899767 10.738 0.875462 11.0152 1.02129C11.2925 1.14282 11.4185 1.31295 11.5698 1.72614C11.6706 2.0421 12.3512 4.4483 12.4268 4.9101C12.578 5.54203 12.2504 5.93091 11.6958 6.10104C11.1413 6.29548 10.6623 6.14965 10.3851 5.54203C10.1834 5.10454 9.25077 2.77125 9.12473 2.45529C9.02391 2.09071 9.02391 1.87197 9.14994 1.62892Z" fill="#F5B333"/>
<path d="M17.9218 1.04558C18.1991 0.924058 18.4764 0.948363 18.9553 1.09419C19.4342 1.24002 19.6611 1.36155 19.8123 1.6289C19.9636 1.89626 19.9636 2.0907 19.8123 2.50388C19.6863 2.81985 18.7789 5.15313 18.552 5.56632C18.2747 6.14964 17.7958 6.29547 17.2413 6.12533C16.6867 5.9552 16.359 5.59062 16.5355 4.93439C16.6363 4.47259 17.2917 2.04209 17.3925 1.72612C17.5437 1.33724 17.6698 1.16711 17.9218 1.04558Z" fill="#F5B333"/>
<path d="M25.383 5.54205C25.6854 5.59066 25.8871 5.7851 26.1896 6.17398C26.4921 6.56286 26.5929 6.7816 26.5677 7.07326C26.5173 7.36492 26.3912 7.53506 26.0383 7.80241C25.7611 7.99685 23.5933 9.35794 23.1648 9.57668C22.585 9.89265 22.1061 9.74682 21.7784 9.28502C21.4255 8.82323 21.4003 8.36143 21.9296 7.92394C22.3077 7.60797 24.2991 6.02815 24.5763 5.8094C24.904 5.56635 25.1057 5.49344 25.383 5.54205Z" fill="#F5B333"/>
<path d="M28.6852 13.417C28.912 13.6357 28.9372 13.8788 28.9624 14.3892C28.9877 14.8753 28.912 15.1183 28.7104 15.3371C28.5087 15.5558 28.3071 15.6044 27.8281 15.6287C27.4753 15.6287 24.9042 15.4829 24.4 15.4343C23.7195 15.3614 23.4422 14.9725 23.4674 14.4135C23.4674 13.8545 23.7195 13.4413 24.4252 13.3927C24.9294 13.3441 27.5005 13.1982 27.8534 13.1739C28.2567 13.1496 28.4835 13.2226 28.6852 13.417Z" fill="#F5B333"/>
<path d="M26.5425 21.6321C26.5677 21.9238 26.4668 22.1668 26.1644 22.5557C25.8871 22.9689 25.6854 23.1147 25.383 23.1876C25.0805 23.2362 24.8788 23.1633 24.5007 22.9203C24.2235 22.7258 22.2069 21.146 21.854 20.83C21.3499 20.3926 21.3751 19.9065 21.728 19.469C22.0557 19.0072 22.5346 18.837 23.1144 19.1773C23.5429 19.4204 25.7359 20.7571 26.0131 20.9516C26.366 21.1946 26.4921 21.3648 26.5425 21.6321Z" fill="#F5B333"/>
<path d="M19.7871 27.0763C19.6359 27.3436 19.409 27.4651 18.9301 27.6353C18.4512 27.8054 18.1991 27.8297 17.9218 27.6839C17.6446 27.5624 17.5185 27.3922 17.3673 26.979C17.2665 26.6631 16.5859 24.2569 16.5103 23.7951C16.359 23.1631 16.6867 22.7743 17.2413 22.6041C17.7958 22.4097 18.2747 22.5555 18.552 23.1631C18.7537 23.6006 19.7115 25.9339 19.8123 26.2499C19.9384 26.6145 19.9132 26.8332 19.7871 27.0763Z" fill="#F5B333"/>
<path d="M9.55334 13.83C9.75499 13.0766 9.85582 12.2988 9.85582 11.5211C9.85582 8.16698 7.99052 5.25037 5.19258 3.64624C4.63803 4.08373 4.1339 4.56983 3.65497 5.08024C6.12523 6.27118 7.81407 8.70169 7.81407 11.5211C7.81407 11.9586 7.76366 12.396 7.68804 12.8335C7.25953 12.6634 6.83101 12.4933 6.37729 12.3717C6.42771 12.1044 6.45291 11.8127 6.45291 11.5454C6.45291 9.13918 4.94051 7.07325 2.77274 6.14966C2.36943 6.68437 2.01654 7.24338 1.68885 7.8267C3.27687 8.36141 4.43638 9.81972 4.43638 11.5454C4.43638 11.6912 4.43638 11.837 4.41117 11.9829C3.98266 11.9343 3.55414 11.9099 3.10042 11.9099C3.07522 11.9099 3.05001 11.9099 3.0248 11.9099C3.05001 11.7884 3.05001 11.6669 3.05001 11.5454C3.05001 10.3544 2.21819 9.35792 1.08389 9.06626C0.831821 9.64958 0.604961 10.2572 0.45372 10.8891C0.781407 10.9377 1.05868 11.2051 1.05868 11.5454C1.05868 11.9099 0.756201 12.2259 0.352894 12.2259C0.277274 12.2259 0.22686 12.2259 0.176447 12.2016C0.176447 12.2259 0.176447 12.2745 0.15124 12.2988C0.126033 12.396 0.126033 12.469 0.126033 12.5662C0.126033 12.6148 0.100827 12.6634 0.100827 12.712C0.0252067 13.2224 0 13.7814 0 14.3648C0 14.3648 0 14.3648 0 14.3891C0.957854 14.0488 2.01654 13.8544 3.10042 13.8544C8.24259 13.8544 12.4269 17.889 12.4269 22.8472C12.4269 24.6944 11.8471 26.42 10.8389 27.854C11.5447 28.0242 12.2505 28.1457 13.0067 28.2186C13.9393 26.6388 14.4686 24.7916 14.4686 22.8229C14.4686 19.1042 12.5025 15.7988 9.55334 13.83Z" fill="#9FACD9"/>
<path d="M3.10037 15.5557C2.04169 15.5557 1.03342 15.7744 0.125977 16.139C0.226803 16.8195 0.352837 17.4758 0.529284 18.1077C1.28548 17.7188 2.16772 17.5001 3.10037 17.5001C6.17558 17.5001 8.67105 19.9063 8.67105 22.8715C8.67105 24.2569 8.14171 25.4964 7.23427 26.4443C7.83923 26.7846 8.44419 27.0762 9.09956 27.3193C10.0826 26.0797 10.6876 24.5485 10.6876 22.8715C10.6624 18.8368 7.28468 15.5557 3.10037 15.5557Z" fill="#9FACD9"/>
<path d="M3.1004 19.2014C2.36941 19.2014 1.68882 19.3959 1.13428 19.7361C1.38634 20.3438 1.68882 20.9271 2.04172 21.4618C2.3442 21.243 2.7223 21.1215 3.1004 21.1215C4.08346 21.1215 4.89007 21.8993 4.89007 22.8472C4.89007 23.3819 4.63801 23.868 4.20949 24.1839C4.68842 24.6457 5.19255 25.0589 5.7219 25.4721C6.42768 24.8159 6.8814 23.868 6.8814 22.8472C6.8814 20.8299 5.19255 19.2014 3.1004 19.2014Z" fill="#9FACD9"/>
</svg>
