<svg width="375" height="144" viewBox="0 0 375 144" fill="none" xmlns="http://www.w3.org/2000/svg" xmlns:xlink="http://www.w3.org/1999/xlink" x="0px" y="0px"  xml:space="preserve">
<defs>
  <pattern id="pattern-leaf" patternUnits="userSpaceOnUse" width="184.25" height="141.75"  x="0" y="0">
    <svg id="image0" xmlns="http://www.w3.org/2000/svg" viewBox="0 0 737.01 566.93" fill="none" width="184.25" height="141.75" >
      <defs>
        <clipPath id="clip1">
        <rect x="0" y="0" width="737" height="567" fill="white"/>
        </clipPath>
      </defs>
      <g clip-path="url(#clip1)" opacity="0.7">
        <path fill="#ffffff" d="M140.44 280.09c-18.36 16.72-18.36 43.8 0 60.52 18.36-16.72 18.36-43.8 0-60.52zM211.17 288.95c-24.8-1.16-43.95 17.99-42.8 42.8 24.8 1.16 43.95-17.99 42.8-42.8zM115.02 320.25c-23.22 8.78-33.2 33.97-22.29 56.27 23.22-8.78 33.2-33.97 22.29-56.27zM211.76 126.79c-21.39 12.61-26.92 39.13-12.37 59.24 21.39-12.61 26.92-39.13 12.37-59.24zM323.52 179.24c-23.69-7.44-47.09 6.2-52.29 30.48 23.69 7.44 47.09-6.2 52.29-30.48zM286.13 244.52c-11.66-21.92-37.9-28.63-58.64-14.98 11.65 21.92 37.9 28.63 58.64 14.98zM331.47 284.27c-11.66-21.92-37.9-28.63-58.64-14.98 11.65 21.92 37.9 28.63 58.64 14.98zM147.04 231.28c-11.47 22.02-2.14 47.45 20.86 56.81 11.47-22.02 2.14-47.45-20.86-56.81zM169.7 171.81c-15.47 19.42-11.16 46.16 9.62 59.75 15.47-19.42 11.16-46.16-9.62-59.75zM133.23 229.45c-21.83-11.82-47.41-2.9-57.14 19.94 21.83 11.82 47.41 2.9 57.14-19.94zM222.85 63.91c-15.47 19.42-11.16 46.16 9.62 59.75 15.47-19.42 11.16-46.16-9.62-59.75zM128.2 352.79c-15.47 19.42-11.16 46.16 9.62 59.75 15.47-19.42 11.16-46.16-9.62-59.75zM473.68 532.9c-21.95 11.6-28.72 37.83-15.12 58.6 21.95-11.6 28.72-37.83 15.12-58.6zM226.38 525.71c-21.95 11.6-28.72 37.83-15.12 58.6 21.95-11.6 28.72-37.83 15.12-58.6zM135.45 548.71c-21.95 11.6-28.72 37.83-15.12 58.6 21.95-11.6 28.72-37.83 15.12-58.6zM293.95 222.35c2.09 24.74 23.58 41.22 48.02 36.83-2.09-24.74-23.58-41.22-48.02-36.83zM249.36 500.86c-15.07 19.73-10.24 46.38 10.81 59.55 15.07-19.73 10.24-46.38-10.81-59.55zM224.52 301.89c-8.35 23.38 4.38 47.29 28.43 53.43 8.35-23.38-4.38-47.29-28.43-53.43zM266.04 186.94c-23-9.35-47.44 2.34-54.6 26.11 23 9.35 47.44-2.34 54.6-26.11zM330.74 74.55c-24.73 2.16-41.16 23.7-36.7 48.12 24.73-2.16 41.16-23.7 36.7-48.12zM256.7 65.62c-11.42 22.05-2.03 47.45 20.98 56.77 11.42-22.05 2.03-47.45-20.98-56.77zM383.03 85.4c-18.8 16.22-19.54 43.29-1.64 60.5 18.8-16.21 19.53-43.29 1.64-60.5zM347.67 464.99c-15.32 19.54-10.81 46.25 10.07 59.68 15.32-19.54 10.81-46.25-10.07-59.68zM172.89 79.03c-24.62-3.18-45.28 14.35-46.14 39.16 24.62 3.18 45.27-14.35 46.14-39.16zM161.98 21.23c-23.65 7.56-34.92 32.19-25.19 55.03 23.65-7.56 34.92-32.19 25.19-55.03zM209.74 226.76c-23.38 8.37-33.8 33.37-23.29 55.86 23.38-8.37 33.8-33.36 23.29-55.86zM261.38 301.25c5.24-24.27-10.49-46.32-35.14-49.28-5.24 24.27 10.49 46.32 35.14 49.28zM90.82 191.91c10.31 22.59 36.1 30.87 57.62 18.5-10.31-22.59-36.1-30.87-57.62-18.5zM120.88 127.27c-8.68 23.26 3.7 47.35 27.67 53.83 8.68-23.26-3.7-47.35-27.67-53.83zM-42.29 84.3c5.47 24.22 29.02 37.59 52.63 29.89C4.87 89.97-18.68 76.6-42.29 84.3zM240.6 8.19c-6.54 23.95 7.97 46.82 32.43 51.1 6.54-23.95-7.97-46.82-32.43-51.1zM86.89 36.95C64.38 47.43 56.3 73.28 68.83 94.71c22.51-10.48 30.59-36.33 18.06-57.76zM54.14 5.28c-20.09 14.59-23.07 41.51-6.67 60.15 20.09-14.59 23.07-41.51 6.67-60.15zM46.36 170.69c17.46 17.65 44.52 16.54 60.47-2.49-17.46-17.65-44.52-16.54-60.47 2.49zM-35.93 169.66c17.46 17.65 44.52 16.54 60.47-2.49-17.46-17.65-44.52-16.54-60.47 2.49zM701.08 169.66c17.46 17.65 44.52 16.54 60.47-2.49-17.46-17.65-44.52-16.54-60.47 2.49zM32.91 239.37c24.08 6.03 46.64-8.96 50.4-33.5-24.08-6.03-46.64 8.96-50.4 33.5zM230.85 178.68c24.32-4.99 38.16-28.27 30.93-52.02-24.32 4.99-38.16 28.27-30.93 52.02zM235.19 438.34c21.39-12.61 26.93-39.12 12.39-59.24-21.39 12.61-26.93 39.12-12.39 59.24zM268.07 166.44c23.71 7.36 47.07-6.36 52.18-30.66-23.71-7.36-47.07 6.36-52.18 30.66zM161.69 153.52c24.32-4.99 38.16-28.27 30.93-52.02-24.32 4.99-38.16 28.27-30.93 52.02zM264.87 323.79c21.02 13.21 47.12 5.95 58.31-16.21-21.02-13.21-47.12-5.95-58.31 16.21zM424.85 525.68c.71-24.82-18.78-43.62-43.56-42.02-.71 24.82 18.78 43.62 43.56 42.02zM-3.33 133.21c13.76 20.66 40.54 24.74 59.83 9.11-13.76-20.66-40.54-24.74-59.83-9.11zM17.56 59.43c-10.55 22.47-.18 47.49 23.18 55.91 10.55-22.47.18-47.49-23.18-55.91zM55.83 107.88c.82 24.81 21.44 42.38 46.07 39.25-.82-24.81-21.44-42.38-46.07-39.25zM110.89 55.72c-18.74 16.29-19.36 43.37-1.39 60.51 18.74-16.29 19.36-43.37 1.39-60.51zM51.11 196.94c-18.39-16.69-45.35-14.11-60.25 5.75 18.39 16.69 45.35 14.11 60.25-5.75zM123.66 262.15c-24.69 2.58-40.75 24.39-35.88 48.74 24.69-2.58 40.75-24.39 35.88-48.74zM392.79 407.57c-24.19 5.58-37.46 29.2-29.64 52.76 24.19-5.58 37.46-29.2 29.64-52.76zM450.11 449.94c-21.06-13.16-47.13-5.84-58.27 16.35 21.05 13.16 47.13 5.84 58.27-16.35zM78.64 264.48c-17.22-17.89-44.29-17.14-60.5 1.67 17.22 17.89 44.29 17.14 60.5-1.67zM66.56 307.08c-12.48-21.46-38.96-27.16-59.17-12.73 12.48 21.46 38.96 27.16 59.17 12.73zM348.43 427.87c-24.19-5.61-46.48 9.78-49.8 34.39 24.19 5.61 46.48-9.78 49.8-34.39zM530.26 311.38c-24.82.52-42.64 20.93-39.8 45.59 24.82-.52 42.64-20.92 39.8-45.59zM601.8 409.32c-17.01-18.09-44.09-17.66-60.51.96 17.01 18.09 44.09 17.66 60.51-.96zM537.79 446.93c.58-24.82-19.02-43.52-43.79-41.78-.58 24.82 19.02 43.52 43.79 41.78zM575.67 593.5c.58-24.82-19.02-43.52-43.79-41.78-.58 24.82 19.02 43.52 43.79 41.78zM422.46 368.25c-20.79 13.58-25.1 40.32-9.64 59.75 20.79-13.58 25.1-40.32 9.64-59.75zM471.34 327.5c-23 9.36-32.34 34.78-20.88 56.8 23-9.36 32.34-34.78 20.88-56.8zM404.46 361.15c-13.7-20.7-40.47-24.86-59.8-9.29 13.7 20.7 40.47 24.86 59.8 9.29zM309.9 338.31c-24.73-2.16-44.65 16.2-44.5 41.02 24.73 2.16 44.65-16.2 44.5-41.02zM488.71 36.1c-23.21-8.82-47.37 3.42-53.99 27.35 23.21 8.82 47.37-3.42 53.99-27.35zM324.32 23.4c-24.51 3.97-39.31 26.66-33.07 50.69 24.51-3.97 39.31-26.66 33.07-50.69zM343.44 22.43c-3.56 24.57 13.63 45.49 38.43 46.75 3.56-24.57-13.63-45.49-38.43-46.75zM162.66 418.87c10.4 22.54 36.23 30.71 57.7 18.25-10.4-22.54-36.23-30.71-57.7-18.25zM569.64 258.12c-23 9.36-32.34 34.78-20.88 56.8 23-9.36 32.34-34.78 20.88-56.8zM543.82 84.86c-23 9.36-32.34 34.78-20.88 56.8 23-9.36 32.34-34.78 20.88-56.8zM495.63 548.48c-10.29 22.59.37 47.49 23.83 55.63 10.29-22.59-.37-47.49-23.83-55.63zM453.75 470.74c-18.73 16.3-19.35 43.37-1.38 60.51 18.73-16.3 19.35-43.37 1.38-60.51zM623.44 486.7c-18.73 16.3-19.35 43.37-1.38 60.51 18.73-16.3 19.35-43.37 1.38-60.51zM691.22 476.47c-13.89 20.58-7.48 46.9 14.3 58.81 13.89-20.58 7.48-46.9-14.3-58.81zM163.16 476.73c-8.59 23.29 3.88 47.34 27.87 53.72 8.59-23.29-3.88-47.34-27.87-53.72zM492.11 118.98c-24.43-4.44-45.96 11.99-48.1 36.73 24.43 4.44 45.96-11.99 48.1-36.73zM550.42 383.43c-15.47-19.42-42.5-21.2-60.39-3.98 15.47 19.42 42.5 21.2 60.39 3.98zM523.7 246.65c-19.91-14.83-46.5-9.67-59.41 11.54 19.91 14.83 46.5 9.67 59.41-11.54zM553.49 196.72c-22.48-10.54-47.49-.15-55.89 23.21 22.48 10.54 47.49.15 55.89-23.21zM482.11 390.08c-24.48-4.16-45.81 12.53-47.67 37.29 24.48 4.16 45.81-12.53 47.67-37.29zM324.83 475.41c-24.48-4.16-45.81 12.53-47.67 37.29 24.48 4.16 45.81-12.53 47.67-37.29zM224.06 452.48c1.32 24.79 22.28 41.94 46.84 38.32-1.32-24.79-22.28-41.94-46.84-38.32zM487.86 485.26c16.45-18.59 13.54-45.52-6.5-60.17-16.45 18.59-13.54 45.52 6.5 60.17zM391.48 309.84c-2.08 24.74 16.35 44.59 41.18 44.35 2.08-24.74-16.35-44.59-41.18-44.35zM450.59 264.76c-18.96 16.03-19.97 43.09-2.25 60.48 18.96-16.03 19.97-43.09 2.25-60.48zM334.14 144.63c-7.09 23.79 6.89 46.99 31.24 51.83 7.09-23.79-6.89-46.99-31.24-51.83zM425.1 100.12c-18.96 16.03-19.97 43.09-2.25 60.48 18.96-16.03 19.97-43.09 2.25-60.48zM399.4 30.62c-12.53 21.43-4.45 47.29 18.05 57.77 12.53-21.43 4.45-47.28-18.05-57.77zM647.74 547.59c-23.3 8.58-33.49 33.68-22.77 56.07 23.3-8.58 33.49-33.68 22.77-56.07zM727.82 536.09c-23.3 8.58-33.49 33.68-22.77 56.07 23.3-8.58 33.49-33.68 22.77-56.07zM727.82-30.84c-23.3 8.58-33.49 33.68-22.77 56.07 23.3-8.58 33.49-33.68 22.77-56.07zM584.6 536.01c-11.71 21.89-2.66 47.42 20.23 57.04 11.71-21.89 2.66-47.42-20.23-57.04zM462.1 170.84c-24.5-4.02-45.74 12.8-47.45 37.56 24.5 4.02 45.74-12.8 47.45-37.56zM508.06 140.25c-24.04 4.48-39.04 26.28-31.87 51.45 24.41-4.55 38.67-27.57 31.87-51.45zM514.07 47.5c-21.22 12.89-26.41 39.48-11.59 59.4 21.22-12.89 26.41-39.48 11.59-59.4zM362.03 76.02c-23.92 6.65-36.13 30.83-27.28 54.02 23.92-6.65 36.13-30.83 27.28-54.02zM357.47 266.12c6.58 23.94 30.72 36.22 53.94 27.45-6.58-23.94-30.72-36.22-53.94-27.45zM193.95 399.04c3.33-24.6-14.07-45.36-38.88-46.38-3.33 24.6 14.07 45.36 38.88 46.38zM226.46 504.68c3.33-24.6-14.07-45.36-38.88-46.38-3.33 24.6 14.07 45.36 38.88 46.38zM178.57 584.85c12.46-21.48 4.29-47.3-18.25-57.7-12.46 21.48-4.29 47.3 18.25 57.7zM377.03 585.26c18.87-16.14 19.7-43.21 1.88-60.49-18.87 16.14-19.7 43.21-1.88 60.49zM71.15 382.05c11.95-21.77 3.17-47.39-19.62-57.25-11.95 21.77-3.17 47.39 19.62 57.25zM17.23 222.67c-24.39 4.64-38.57 27.71-31.68 51.57 24.39-4.64 38.57-27.71 31.68-51.57zM36.69 329.99c-24.61-3.28-45.33 14.16-46.3 38.97 24.61 3.28 45.33-14.16 46.3-38.97zM300.92 414.06c24.11-5.95 37.02-29.76 28.85-53.2-24.11 5.95-37.02 29.75-28.85 53.2zM527.96 355.7c23.65 7.56 47.12-5.96 52.44-30.21-23.65-7.56-47.12 5.96-52.44 30.21zM559.72 371c17.07 18.03 44.15 17.51 60.51-1.17-17.07-18.03-44.15-17.51-60.51 1.17zM473.31 307.64c23.65 7.56 47.12-5.96 52.44-30.21-23.65-7.56-47.12 5.96-52.44 30.21zM175.62 61.82c23.65 7.56 47.12-5.96 52.44-30.21-23.65-7.56-47.12 5.96-52.44 30.21zM531.38 49.8c14.18 20.38 41.04 23.91 60 7.89-14.18-20.38-41.04-23.91-60-7.89zM479.24 503.37c2.57 24.69 24.38 40.76 48.73 35.89-2.57-24.69-24.38-40.76-48.73-35.89zM343.25 568.68c9.51-22.93-2-47.45-25.72-54.79-9.51 22.93 2 47.45 25.72 54.79zM538.4 514.58c9.51-22.93-2-47.45-25.72-54.79-9.51 22.93 2 47.45 25.72 54.79zM583.97 431.45c-24.52 3.91-39.38 26.55-33.2 50.6 24.52-3.91 39.38-26.55 33.2-50.6zM275.52 395.8c-17.77 17.34-16.83 44.41 2.1 60.49 17.77-17.34 16.83-44.41-2.1-60.49zM285.21 595.81c22.06-11.39 29.09-37.55 15.69-58.45-22.06 11.39-29.09 37.55-15.69 58.45zM581.94 486.31c-24.14 5.81-37.19 29.54-29.15 53.04 24.14-5.81 37.19-29.54 29.15-53.04zM332.53 212.15c6.35 24 30.37 36.52 53.68 27.96-6.35-24-30.37-36.52-53.68-27.96zM396.52 150.06c-20.21 14.42-23.42 41.32-7.17 60.1 20.21-14.42 23.42-41.32 7.17-60.1zM403.37 215.99c-11.44 22.04-2.07 47.45 20.94 56.79 11.44-22.04 2.07-47.45-20.94-56.79zM481.33 202.37c-24.82.6-42.57 21.05-39.67 45.71 24.82-.59 42.57-21.05 39.67-45.71zM565.99 148.14c-24.07-6.08-46.66 8.86-50.47 33.4 24.07 6.08 46.66-8.86 50.47-33.4zM85.02 580.26c23.04-9.26 32.49-34.64 21.12-56.72-23.04 9.26-32.49 34.64-21.12 56.72zM-13.26 522.28c23.33 8.5 47.32-4.08 53.61-28.09-23.33-8.5-47.32 4.08-53.61 28.09zM15.14 380.54c8.24 23.42 33.18 33.98 55.73 23.6-8.24-23.42-33.18-33.98-55.73-23.6zM-37.34 411.74c17.86 17.25 44.89 15.51 60.4-3.88-17.86-17.25-44.89-15.51-60.4 3.88zM126.07 537.87c22.62-10.24 30.98-36 18.68-57.57-22.62 10.23-30.98 36-18.68 57.57zM640.71 145.73c17.25-17.85 15.53-44.88-3.85-60.4-17.25 17.85-15.53 44.88 3.85 60.4zM25.89 594.56c15.59-19.32 11.46-46.09-9.23-59.81-15.59 19.32-11.46 46.09 9.23 59.81zM702.87 59.21c-21.86-11.78-47.41-2.81-57.1 20.05 21.85 11.78 47.41 2.81 57.1-20.05zM604.72 105.6c21.69-12.08 27.89-38.44 13.84-58.92-21.69 12.08-27.89 38.44-13.84 58.92zM218.39 394.51c14.41-20.22 8.68-46.69-12.79-59.15-14.41 20.22-8.68 46.69 12.79 59.15zM63.36 563.66c14.05-20.47 7.87-46.84-13.82-58.92-14.05 20.47-7.87 46.84 13.82 58.92zM34.42 478.99c22.81 9.8 47.47-1.4 55.1-25.03-22.81-9.8-47.47 1.4-55.1 25.03zM174.68 462.77c-5-24.32-28.28-38.16-52.03-30.92 5 24.32 28.28 38.16 52.03 30.92zM76.58 514.55c24.82.4 43.38-19.33 41.47-44.08-24.82-.4-43.38 19.33-41.47 44.08zM101.21 446.96c17.95-17.15 17.31-44.23-1.44-60.5-17.95 17.15-17.31 44.23 1.44 60.5zM690.85 559.9c1.67-24.77-17.09-44.31-41.9-43.67-1.67 24.77 17.08 44.31 41.9 43.67zM652.39 443.2c7.5-23.67-6.08-47.1-30.35-52.36-7.5 23.67 6.08 47.1 30.35 52.36zM665.25 506.36c7.55-23.65-5.98-47.12-30.24-52.43-7.55 23.65 5.98 47.12 30.24 52.43zM602.03 483.87c20.78-13.58 25.1-40.32 9.64-59.75-20.78 13.58-25.1 40.32-9.64 59.75zM668.52 407.48c-11.29 22.11-1.76 47.46 21.31 56.65 11.29-22.11 1.76-47.46-21.31-56.65zM599.59 134.95c-4.34 24.45 12.19 45.9 36.94 47.94 4.34-24.45-12.19-45.9-36.94-47.94zM667.83 113.18c6.51 23.96 30.62 36.31 53.87 27.59-6.51-23.96-30.62-36.31-53.87-27.59zM18.2 443.4c22.02 11.48 47.45 2.16 56.82-20.83-22.01-11.48-47.45-2.16-56.82 20.83zM369.05 300.79c-24.62-3.21-45.29 14.29-46.19 39.11 24.62 3.21 45.29-14.29 46.19-39.11zM386.95 383.71c-22.79-9.85-47.48 1.3-55.16 24.91 22.79 9.85 47.48-1.3 55.16-24.91zM604.27 226.31c11.01-22.26 1.14-47.48-22.05-56.36-11.01 22.26-1.14 47.48 22.05 56.36zM426.44 601.19c14.06-20.46 7.89-46.83-13.79-58.93-14.06 20.46-7.89 46.83 13.79 58.93zM473.68-33.47c-21.95 11.6-28.72 37.83-15.12 58.6 21.95-11.6 28.72-37.83 15.12-58.6zM483.8 67.78c-24.79 1.39-41.88 22.4-38.19 46.95 24.79-1.39 41.88-22.4 38.19-46.95zM226.38-40.67c-21.95 11.6-28.72 37.83-15.12 58.6 21.95-11.6 28.72-37.83 15.12-58.6zM135.45-17.67c-21.95 11.6-28.72 37.83-15.12 58.6 21.95-11.6 28.72-37.83 15.12-58.6zM575.67 27.13c.58-24.82-19.02-43.52-43.79-41.78-.58 24.82 19.02 43.52 43.79 41.78zM495.63-17.9c-10.29 22.59.37 47.49 23.83 55.63 10.29-22.59-.37-47.49-23.83-55.63zM647.74-18.78c-23.3 8.58-33.49 33.68-22.77 56.07 23.3-8.58 33.49-33.68 22.77-56.07zM645.92 49.91c24.74 2.06 44.58-16.39 44.32-41.21-24.74-2.06-44.58 16.39-44.32 41.21zM759.58 40.08c-17.62-17.5-44.67-16.14-60.45 3.03 17.61 17.5 44.67 16.14 60.45-3.03zM22.57 40.08C4.95 22.58-22.1 23.94-37.88 43.11c17.61 17.5 44.67 16.14 60.45-3.03zM584.6-30.37c-11.71 21.89-2.66 47.42 20.23 57.04 11.71-21.89 2.66-47.42-20.23-57.04zM178.57 18.47c12.46-21.48 4.29-47.3-18.25-57.7-12.46 21.48-4.29 47.3 18.25 57.7zM377.03 18.88c18.87-16.14 19.7-43.21 1.88-60.49-18.87 16.14-19.7 43.21-1.88 60.49zM343.25 2.31c9.51-22.93-2-47.45-25.72-54.79-9.51 22.93 2 47.45 25.72 54.79zM285.21 29.44c22.06-11.39 29.09-37.55 15.69-58.45-22.06 11.39-29.09 37.54-15.69 58.45zM85.02 13.89c23.04-9.26 32.49-34.64 21.12-56.72C83.1-33.57 73.65-8.19 85.02 13.89zM25.89 28.19C41.48 8.87 37.35-17.9 16.66-31.62 1.06-12.3 5.19 14.47 25.89 28.19zM426.44 34.82c14.06-20.46 7.89-46.83-13.79-58.93-14.06 20.46-7.89 46.83 13.79 58.93zM667.01 139.27c-19.51 15.36-21.46 42.37-4.35 60.37 19.51-15.35 21.46-42.37 4.35-60.37zM648.64 391.09c24.58-3.49 39.83-25.87 34.07-50.02-24.58 3.49-39.83 25.87-34.07 50.02zM633.76 319.12c21.53 12.36 47.32 4.08 57.62-18.51-21.53-12.36-47.32-4.08-57.62 18.51zM579.42 309.35c21.53 12.36 47.32 4.08 57.62-18.51-21.53-12.36-47.32-4.08-57.62 18.51zM537.68 261.67c24.44-4.39 38.84-27.33 32.19-51.25-24.44 4.39-38.84 27.33-32.19 51.25zM634.96 272.17c-4.19-24.47-27.01-39.07-50.98-32.62 4.19 24.47 27.01 39.07 50.98 32.62zM580.83 140.83c16.78-18.3 14.35-45.27-5.43-60.28-16.78 18.3-14.35 45.27 5.43 60.28zM647.46 350.76c-9.97-22.74-35.64-31.4-57.35-19.35 9.97 22.74 35.64 31.4 57.35 19.35zM671.4 235.61c-5.37-24.24-28.87-37.72-52.5-30.11 5.37 24.24 28.87 37.72 52.5 30.11zM697.29 249.76c18.94-16.05 19.91-43.12 2.17-60.48-18.94 16.05-19.91 43.12-2.17 60.48zM644.37 265.1c13.92 20.56 40.73 24.43 59.9 8.65-13.92-20.56-40.73-24.43-59.9-8.65zM27.12 464.16c-17.51-17.6-44.57-16.41-60.46 2.67 17.51 17.6 44.57 16.41 60.46-2.67zM694.72 84.3c5.47 24.22 29.02 37.59 52.63 29.89-5.47-24.22-29.02-37.59-52.63-29.89zM733.67 133.21c13.76 20.66 40.54 24.74 59.83 9.11-13.76-20.66-40.54-24.74-59.83-9.11zM788.12 196.94c-18.39-16.69-45.35-14.11-60.25 5.75 18.39 16.69 45.35 14.11 60.25-5.75zM754.24 222.67c-24.39 4.64-38.57 27.71-31.68 51.57 24.39-4.64 38.57-27.71 31.68-51.57zM773.69 329.99c-24.61-3.28-45.33 14.16-46.3 38.97 24.61 3.28 45.33-14.16 46.3-38.97zM723.74 522.28c23.33 8.5 47.32-4.08 53.61-28.09-23.33-8.5-47.32 4.08-53.61 28.09zM699.67 411.74c17.86 17.25 44.89 15.51 60.4-3.88-17.86-17.25-44.89-15.51-60.4 3.88zM764.13 464.16c-17.51-17.6-44.57-16.41-60.46 2.67 17.51 17.6 44.57 16.41 60.46-2.67zM728.19 290.96c-24.39 4.65-38.56 27.73-31.65 51.58 24.39-4.65 38.56-27.73 31.65-51.58zM715.1 348.94c-23.99 6.38-36.47 30.43-27.88 53.72 23.99-6.38 36.47-30.43 27.88-53.72z"/>
      </g>
    </svg>
  </pattern>
</defs>
<path d="M0 137.7V57.2797C180.517 73.3959 245.501 43.5446 373.723 0.429536C374.148 0.286591 374.573 0.143412 375 0V133.264C186.079 151.896 15.2481 141.397 0 137.7Z" fill="url(#pattern-leaf)"/>
</svg>
