<svg width="1441" height="243" viewBox="0 0 1441 243" fill="none" xmlns="http://www.w3.org/2000/svg" xmlns:xlink="http://www.w3.org/1999/xlink" x="0px" y="0px"  xml:space="preserve">
<defs>
  <pattern id="pattern-leaf" patternUnits="userSpaceOnUse" width="52" height="39" x="0" y="0">
    <svg xmlns="http://www.w3.org/2000/svg" viewBox="0 0 52 39" width="52px" height="39px"><defs><style>.cls-1{fill:rgba(255,255,255,0.4);}</style></defs><g id="Layer_2" data-name="Layer 2"><g id="Layer_1-2" data-name="Layer 1"><path class="cls-1" d="M0,35.39v2.89A7.16,7.16,0,0,1,3.13,39H7.72A10.07,10.07,0,0,0,0,35.39Z"/><path class="cls-1" d="M44.28,39h4.59A7.16,7.16,0,0,1,52,38.28V35.39A10.07,10.07,0,0,0,44.28,39Z"/><path class="cls-1" d="M14.88.92a27.81,27.81,0,0,0-5.12,3,10.13,10.13,0,0,0-2-3.9H3.13A7.22,7.22,0,0,1,7.2,6,27.31,27.31,0,0,0,0,17.21H0v3.73A24.54,24.54,0,0,1,23.29,37.7a27.07,27.07,0,0,0-5.71,1.19A18.87,18.87,0,0,0,0,26.72v2.89A16,16,0,0,1,14.49,39h23A16,16,0,0,1,52,29.61V26.72A18.88,18.88,0,0,0,34.42,38.89a26.46,26.46,0,0,0-5.71-1.19A24.67,24.67,0,0,1,52,20.94V17.21h0A27.41,27.41,0,0,0,44.8,6a7.24,7.24,0,0,1,4.07-6H44.28a10.16,10.16,0,0,0-2,3.89,28.34,28.34,0,0,0-5.12-3c.12-.31.25-.62.39-.92h-23C14.63.3,14.76.61,14.88.92ZM26,36.7a27.38,27.38,0,0,0-7.2-11.2,7.22,7.22,0,0,1,14.4,0A27.37,27.37,0,0,0,26,36.7Zm9.76-13.29a10.09,10.09,0,0,0-19.51,0,27.81,27.81,0,0,0-5.12-3,15.89,15.89,0,0,1,29.75,0A27.81,27.81,0,0,0,35.76,23.41ZM49.29,18.2a27.33,27.33,0,0,0-5.71,1.19,18.79,18.79,0,0,0-35.16,0,27.71,27.71,0,0,0-5.71-1.19,24.56,24.56,0,0,1,46.58,0Z"/></g></g></svg>
  </pattern>
</defs>
  <path fill-rule="evenodd" clip-rule="evenodd" d="M0 195.964V218.26C58.5934 232.644 715.038 273.493 1441 201V0.125488C1439.03 0.810592 1437.06 1.49436 1435.09 2.17678C942.724 173.213 693.184 259.897 0 195.964Z" fill="transparent"/>
  <path fill-rule="evenodd" clip-rule="evenodd" d="M0 195.964V218.26C58.5934 232.644 715.038 273.493 1441 201V0.125488C1439.03 0.810592 1437.06 1.49436 1435.09 2.17678C942.724 173.213 693.184 259.897 0 195.964Z" fill="url(#pattern-leaf)"/>
</svg>
