
<svg width="100%" height="100%" viewBox="0 0 106 8" version="1.1" xmlns="http://www.w3.org/2000/svg" xmlns:xlink="http://www.w3.org/1999/xlink" xml:space="preserve" xmlns:serif="http://www.serif.com/" style="fill-rule:evenodd;clip-rule:evenodd;stroke-linejoin:round;stroke-miterlimit:2;">
    <g transform="matrix(1.0386,0,0,1,-12.2938,-2.97053)">
        <g>
            <path d="M28.384,7.952C29.972,7.952 31.251,8.585 32.592,9.332C32.703,9.394 32.816,9.458 32.93,9.522C34.112,10.189 35.486,10.965 37.026,10.965C38.566,10.965 39.941,10.189 41.122,9.522C41.237,9.458 41.35,9.394 41.461,9.332C42.802,8.585 44.081,7.952 45.669,7.952C47.257,7.952 48.535,8.585 49.876,9.332C49.987,9.394 50.1,9.458 50.215,9.522C51.396,10.189 52.771,10.965 54.311,10.965C55.851,10.965 57.226,10.189 58.407,9.522C58.522,9.458 58.635,9.394 58.746,9.332C60.087,8.585 61.365,7.952 62.953,7.952C64.541,7.952 65.82,8.585 67.161,9.332C67.272,9.394 67.385,9.458 67.5,9.522C68.681,10.189 70.056,10.965 71.596,10.965C73.136,10.965 74.51,10.189 75.692,9.522C75.806,9.458 75.919,9.394 76.03,9.332C77.371,8.585 78.65,7.952 80.238,7.952C81.826,7.952 83.105,8.585 84.446,9.332C84.557,9.394 84.669,9.457 84.783,9.522L84.785,9.522C85.966,10.189 87.341,10.965 88.881,10.965C90.421,10.965 91.795,10.189 92.977,9.522C93.091,9.458 93.204,9.394 93.315,9.332C94.656,8.585 95.935,7.952 97.523,7.952C99.111,7.952 100.39,8.585 101.731,9.332C101.842,9.394 101.955,9.458 102.07,9.522C103.251,10.189 104.625,10.965 106.165,10.965C107.688,10.965 109.021,10.217 110.164,9.577L110.18,9.568L110.237,9.535C111.432,8.865 112.532,8.249 113.842,8.032C114.841,7.866 115.808,7.03 115.808,5.819C115.808,4.693 114.853,3.571 113.516,3.792C111.852,4.067 110.481,4.838 109.349,5.474L109.201,5.557C107.97,6.247 107.086,6.698 106.165,6.698C105.175,6.698 104.259,6.187 102.939,5.449L102.704,5.318C101.342,4.559 99.668,3.686 97.523,3.686C95.378,3.686 93.704,4.559 92.342,5.318L92.107,5.449C90.787,6.187 89.871,6.698 88.881,6.698C87.89,6.698 86.975,6.187 85.654,5.449L85.42,5.318C84.057,4.559 82.384,3.686 80.238,3.686C78.093,3.686 76.419,4.559 75.057,5.318L74.822,5.449C73.502,6.187 72.586,6.698 71.596,6.698C70.605,6.698 69.69,6.187 68.369,5.449L68.135,5.318C66.772,4.559 65.099,3.686 62.953,3.686C60.808,3.686 59.135,4.559 57.772,5.318L57.538,5.449C56.217,6.187 55.301,6.698 54.311,6.698C53.32,6.698 52.405,6.187 51.084,5.449L50.85,5.318C49.487,4.559 47.814,3.686 45.669,3.686C43.523,3.686 41.85,4.559 40.487,5.318L40.253,5.449C38.932,6.187 38.017,6.698 37.026,6.698C36.036,6.698 35.12,6.187 33.8,5.449L33.565,5.318C32.203,4.559 30.529,3.686 28.384,3.686C26.238,3.686 24.565,4.559 23.202,5.318L22.968,5.449C21.647,6.187 20.732,6.698 19.741,6.698C18.821,6.698 17.936,6.247 16.705,5.557L16.558,5.474C15.426,4.838 14.054,4.067 12.391,3.792C11.054,3.571 10.099,4.693 10.099,5.819C10.099,7.03 11.066,7.866 12.065,8.032C13.375,8.249 14.475,8.865 15.669,9.535L15.743,9.577C16.886,10.217 18.219,10.965 19.741,10.965C21.281,10.965 22.656,10.189 23.837,9.522C23.952,9.458 24.065,9.394 24.176,9.332C25.517,8.585 26.796,7.952 28.384,7.952Z" style="fill:#F56A00;"/>
        </g>
    </g>
</svg>
