<svg width="56" height="87" viewBox="0 0 56 87" fill="none" xmlns="http://www.w3.org/2000/svg">
<rect width="56" height="85.3333" transform="translate(0 0.802734)" fill="#F4F4F7"/>
<g clip-path="url(#clip0_2442_46476)">
<path d="M19.6785 29.7441H27.944C29.9546 29.7441 32.6064 29.7441 33.9757 30.5825C35.4774 31.4835 36.6564 33.1227 36.6564 35.3792C36.6564 37.8234 35.3822 39.6586 33.2724 40.5262V40.5929C36.0814 41.1727 37.6121 43.2958 37.6121 46.1279C37.6121 49.5064 35.2168 52.7264 30.6868 52.7264H19.6743V29.7483L19.6785 29.7441ZM22.7108 39.6253H28.7797C32.2258 39.6253 33.6323 38.3698 33.6323 35.9548C33.6323 32.7681 31.3984 32.3177 28.7797 32.3177H22.7108V39.6211V39.6253ZM22.7108 50.1487H30.3104C32.9249 50.1487 34.588 48.5387 34.588 46.0319C34.588 43.0372 32.1927 42.203 29.6402 42.203H22.715V50.1529L22.7108 50.1487Z" fill="black"/>
<path d="M45.3694 41.2395C45.3694 50.8912 37.6085 58.716 28.0315 58.716C18.4545 58.716 10.6977 50.8954 10.6977 41.2395C10.6977 31.5836 18.4586 23.7629 28.0315 23.7629C37.6043 23.7629 45.3694 31.5878 45.3694 41.2395ZM28.0315 21.0977C17.0066 21.0977 8.06665 30.1112 8.06665 41.2311C8.06665 52.351 17.0066 61.3604 28.0315 61.3604C39.0564 61.3604 48.0005 52.3469 48.0005 41.2311C48.0005 30.1154 39.0605 21.1018 28.0315 21.1018V21.0977Z" fill="black"/>
<path d="M47.9582 65.6064H8.10718V68.2467H47.9582V65.6064Z" fill="black"/>
<path d="M46.7132 62.6989C46.7629 62.6989 46.8084 62.6989 46.8539 62.6947C46.8952 62.6947 46.9366 62.6822 46.9697 62.6697C47.0069 62.653 47.0318 62.628 47.0524 62.5988C47.0731 62.5654 47.0814 62.5237 47.0814 62.4695C47.0814 62.4236 47.0731 62.3819 47.0566 62.3569C47.04 62.3277 47.0152 62.3068 46.9863 62.2943C46.9573 62.2776 46.9283 62.2693 46.887 62.2609C46.8497 62.2609 46.8166 62.2568 46.7753 62.2568H46.4898V62.7031H46.7174L46.7132 62.6989ZM46.8084 62.0774C46.9738 62.0774 47.0938 62.1108 47.1766 62.1775C47.2552 62.2442 47.2965 62.3444 47.2965 62.482C47.2965 62.6113 47.2593 62.6989 47.1931 62.7615C47.1228 62.8198 47.0359 62.8532 46.9283 62.8657L47.3255 63.483H47.0938L46.7132 62.8782H46.4857V63.483H46.2664V62.0816H46.8084V62.0774ZM45.8279 63.1786C45.8734 63.3037 45.9438 63.4163 46.0348 63.5081C46.1216 63.5998 46.2251 63.6707 46.345 63.725C46.4609 63.775 46.5932 63.8 46.7298 63.8C46.8663 63.8 46.9987 63.775 47.1145 63.725C47.2345 63.6707 47.3379 63.5998 47.4248 63.5081C47.5116 63.4163 47.582 63.3079 47.6275 63.1786C47.6771 63.0534 47.7061 62.9199 47.7061 62.774C47.7061 62.628 47.6813 62.4945 47.6275 62.3694C47.5778 62.2442 47.5075 62.1358 47.4248 62.044C47.3338 61.9523 47.2303 61.8814 47.1145 61.8313C46.9987 61.7813 46.8663 61.7521 46.7298 61.7521C46.5932 61.7521 46.4609 61.7813 46.345 61.8313C46.2251 61.8855 46.1175 61.9564 46.0348 62.044C45.9438 62.1358 45.8776 62.2442 45.8279 62.3694C45.7783 62.4945 45.7535 62.6238 45.7535 62.774C45.7535 62.9241 45.7783 63.0534 45.8279 63.1786ZM45.6293 62.2985C45.6914 62.1525 45.7783 62.0315 45.8858 61.9231C45.9934 61.8146 46.1216 61.7354 46.2664 61.6728C46.4112 61.6103 46.5684 61.5811 46.7256 61.5811C46.8828 61.5811 47.0442 61.6103 47.1931 61.6728C47.3338 61.7354 47.462 61.8146 47.5654 61.9231C47.673 62.0315 47.764 62.1567 47.8219 62.2985C47.8881 62.4445 47.9171 62.603 47.9171 62.774C47.9171 62.945 47.8881 63.1035 47.8219 63.2495C47.7599 63.3996 47.673 63.5247 47.5654 63.6332C47.4579 63.7458 47.3338 63.8251 47.1931 63.8876C47.0442 63.946 46.8911 63.9752 46.7256 63.9752C46.5602 63.9752 46.4112 63.946 46.2664 63.8876C46.1216 63.8251 45.9934 63.7458 45.8858 63.6332C45.7783 63.5247 45.6914 63.3996 45.6293 63.2495C45.5632 63.1035 45.5383 62.945 45.5383 62.774C45.5383 62.603 45.5632 62.4445 45.6293 62.2985Z" fill="black"/>
<path d="M12.9361 12.246C12.8409 12.0917 12.7251 11.9582 12.5845 11.8456C12.4438 11.7288 12.2825 11.6412 12.1046 11.5745C11.9267 11.5119 11.7405 11.4785 11.5461 11.4785C11.1903 11.4785 10.8883 11.5495 10.636 11.6871C10.3877 11.8247 10.185 12.0124 10.032 12.246C9.8789 12.4796 9.76307 12.7465 9.69274 13.0468C9.62241 13.3472 9.58518 13.6558 9.58518 13.9728C9.58518 14.2898 9.61827 14.5734 9.69274 14.8612C9.76307 15.149 9.87476 15.4076 10.032 15.6412C10.185 15.8706 10.3877 16.0583 10.636 16.196C10.8842 16.3336 11.1862 16.4045 11.5461 16.4045C12.0301 16.4045 12.4107 16.2544 12.6796 15.9582C12.9526 15.6579 13.1181 15.2658 13.1802 14.7778H14.715C14.6736 15.2325 14.5702 15.6412 14.4006 16.0083C14.231 16.3753 14.0117 16.6881 13.7345 16.9426C13.4573 17.2012 13.1347 17.3972 12.7665 17.5349C12.3983 17.6683 11.9887 17.7392 11.5461 17.7392C10.9959 17.7392 10.4994 17.6433 10.0568 17.4473C9.61414 17.2554 9.24595 16.9884 8.93982 16.6464C8.63782 16.3086 8.40615 15.9082 8.24481 15.4493C8.08347 14.9947 8.00073 14.5025 8.00073 13.9728C8.00073 13.4431 8.07933 12.9259 8.24481 12.4629C8.40615 11.9999 8.63782 11.5912 8.93982 11.2491C9.24181 10.9029 9.61414 10.6318 10.0568 10.4358C10.4953 10.2398 10.9917 10.1396 11.5461 10.1396C11.9432 10.1396 12.3197 10.198 12.6713 10.3107C13.023 10.4274 13.3415 10.5943 13.6187 10.8154C13.8959 11.0364 14.1275 11.3075 14.3096 11.6329C14.4916 11.9582 14.6074 12.3336 14.6529 12.7507H13.1181C13.0933 12.5672 13.0312 12.4003 12.9361 12.246Z" fill="black"/>
<path d="M16.7789 16.3129C16.994 16.5214 17.3042 16.6299 17.7055 16.6299C17.9951 16.6299 18.2433 16.559 18.4543 16.413C18.6612 16.267 18.7894 16.1127 18.839 15.95H20.1008C19.8981 16.5798 19.5878 17.0345 19.17 17.3056C18.7522 17.5767 18.2475 17.7144 17.6559 17.7144C17.2463 17.7144 16.874 17.6476 16.5472 17.5141C16.2162 17.3807 15.9391 17.193 15.7074 16.9511C15.4799 16.7091 15.302 16.4172 15.1779 16.0751C15.0538 15.7373 14.9917 15.3619 14.9917 14.9573C14.9917 14.5527 15.0538 14.1982 15.182 13.8603C15.3102 13.5225 15.4923 13.2263 15.7281 12.9803C15.9639 12.7342 16.2452 12.5381 16.572 12.3963C16.8988 12.2545 17.2587 12.1836 17.6559 12.1836C18.0985 12.1836 18.4874 12.2712 18.8184 12.4422C19.1493 12.6174 19.4182 12.8468 19.6292 13.1388C19.8402 13.4307 19.9933 13.7644 20.0884 14.1356C20.1835 14.5068 20.2166 14.8989 20.1877 15.3077H16.4231C16.4438 15.7748 16.5596 16.1169 16.7747 16.3254L16.7789 16.3129ZM18.4005 13.5433C18.2268 13.3556 17.9662 13.2597 17.6187 13.2597C17.3911 13.2597 17.2008 13.2973 17.0478 13.3765C16.8947 13.4558 16.7747 13.5517 16.6837 13.6643C16.5927 13.7811 16.5306 13.9021 16.4934 14.0314C16.4562 14.1607 16.4355 14.2733 16.4272 14.3775H18.7604C18.6943 14.0105 18.5743 13.731 18.4005 13.5433Z" fill="black"/>
<path d="M22.1982 12.3127V13.2887H22.2189C22.2851 13.1261 22.3761 12.9759 22.4919 12.8341C22.6078 12.6964 22.736 12.5755 22.885 12.4796C23.0339 12.3836 23.1911 12.3044 23.3607 12.2501C23.5303 12.1959 23.7041 12.1709 23.8861 12.1709C23.9812 12.1709 24.0847 12.1876 24.2005 12.221V13.564C24.1343 13.5515 24.0516 13.539 23.9564 13.5306C23.8613 13.5223 23.7703 13.514 23.6834 13.514C23.4228 13.514 23.1994 13.5598 23.0173 13.6474C22.8353 13.735 22.6905 13.856 22.5788 14.0103C22.4671 14.1646 22.3885 14.3398 22.343 14.5442C22.2975 14.7486 22.2727 14.9696 22.2727 15.2074V17.5807H20.8413V12.3127H22.2024H22.1982Z" fill="black"/>
<path d="M28.0357 12.313V13.2806H26.9849V15.8875C26.9849 16.1336 27.0263 16.2963 27.1049 16.3755C27.1835 16.4548 27.349 16.4965 27.5889 16.4965C27.6717 16.4965 27.7461 16.4965 27.8206 16.4882C27.895 16.4798 27.9654 16.4715 28.0316 16.459V17.5768C27.9116 17.5976 27.7751 17.6102 27.6261 17.6185C27.4772 17.6268 27.3324 17.631 27.1918 17.631C26.9684 17.631 26.7574 17.6143 26.563 17.5851C26.3644 17.5559 26.1906 17.4975 26.0376 17.4058C25.8845 17.3182 25.7687 17.1931 25.6777 17.0304C25.5908 16.8677 25.5453 16.655 25.5453 16.388V13.2848H24.6765V12.3171H25.5453V10.7363H26.9766V12.313H28.0274H28.0357Z" fill="black"/>
<path d="M28.8674 11.4995V10.3066H30.2988V11.4995H28.8674ZM30.2988 12.3129V17.5725H28.8674V12.3129H30.2988Z" fill="black"/>
<path d="M30.8691 13.2806V12.3129H31.7255V11.9041C31.7255 11.437 31.8703 11.0533 32.1599 10.7529C32.4495 10.4526 32.888 10.3066 33.4713 10.3066C33.5995 10.3066 33.7278 10.3108 33.856 10.3233C33.9843 10.3317 34.1084 10.3442 34.2283 10.3484V11.4286C34.0587 11.4078 33.885 11.3994 33.7029 11.3994C33.5085 11.3994 33.3678 11.4453 33.2851 11.5371C33.2024 11.6289 33.161 11.7832 33.161 12.0001V12.3171H34.1497V13.2847H33.161V17.5809H31.7255V13.2806H30.8691Z" fill="black"/>
<path d="M35.1228 11.4995V10.3066H36.5542V11.4995H35.1228ZM36.5542 12.3129V17.5725H35.1228V12.3129H36.5542Z" fill="black"/>
<path d="M38.8179 16.3129C39.033 16.5214 39.3433 16.6299 39.7446 16.6299C40.0342 16.6299 40.2824 16.559 40.4934 16.413C40.7002 16.267 40.8285 16.1127 40.8781 15.95H42.1399C41.9372 16.5798 41.6269 17.0345 41.2132 17.3056C40.7954 17.5767 40.2907 17.7144 39.6991 17.7144C39.2895 17.7144 38.9172 17.6476 38.5904 17.5141C38.2594 17.3807 37.9823 17.193 37.7506 16.9511C37.5231 16.7091 37.3452 16.4172 37.2211 16.0751C37.097 15.7373 37.0349 15.3619 37.0349 14.9573C37.0349 14.5527 37.1011 14.1982 37.2252 13.8603C37.3535 13.5225 37.5355 13.2263 37.7713 12.9803C38.0071 12.7342 38.2884 12.5381 38.6152 12.3963C38.942 12.2545 39.302 12.1836 39.6991 12.1836C40.1417 12.1836 40.5306 12.2712 40.8616 12.4422C41.1925 12.6174 41.4614 12.8468 41.6724 13.1388C41.8834 13.4307 42.0365 13.7644 42.1316 14.1356C42.2268 14.5068 42.2599 14.8989 42.235 15.3077H38.4704C38.4911 15.7748 38.6069 16.1169 38.8221 16.3254L38.8179 16.3129ZM40.4396 13.5433C40.27 13.3556 40.0052 13.2597 39.6577 13.2597C39.4302 13.2597 39.2399 13.2973 39.0868 13.3765C38.9338 13.4558 38.8138 13.5517 38.7228 13.6643C38.6318 13.7811 38.5697 13.9021 38.5325 14.0314C38.4953 14.1607 38.4746 14.2733 38.4663 14.3775H40.7954C40.7292 14.0105 40.6092 13.731 40.4355 13.5433H40.4396Z" fill="black"/>
<path d="M46.5776 16.901C46.4079 17.1846 46.1887 17.3932 45.9157 17.5183C45.6426 17.6435 45.3365 17.706 44.9931 17.706C44.6042 17.706 44.2609 17.6309 43.963 17.4766C43.6652 17.3223 43.4211 17.1179 43.2308 16.8551C43.0405 16.5924 42.8957 16.292 42.7964 15.9542C42.6971 15.6163 42.6516 15.2618 42.6516 14.8948C42.6516 14.5277 42.7013 14.2024 42.7964 13.8729C42.8916 13.5433 43.0405 13.2555 43.2308 13.0011C43.4211 12.7509 43.6652 12.5465 43.9506 12.3963C44.2402 12.242 44.5753 12.1669 44.96 12.1669C45.2703 12.1669 45.564 12.2336 45.8412 12.3671C46.1225 12.5006 46.3418 12.6925 46.5031 12.9511H46.5238V10.3066H47.9552V17.5725H46.5941V16.901H46.5734H46.5776ZM46.5155 14.3025C46.4741 14.1023 46.4079 13.9271 46.3087 13.7728C46.2094 13.6184 46.0853 13.4975 45.9281 13.4015C45.775 13.3056 45.5764 13.2597 45.3448 13.2597C45.1131 13.2597 44.9104 13.3056 44.749 13.4015C44.5877 13.4975 44.4594 13.6226 44.3602 13.7769C44.265 13.9312 44.1947 14.1106 44.1492 14.3108C44.1037 14.511 44.083 14.7196 44.083 14.9365C44.083 15.1408 44.1078 15.3452 44.1533 15.5454C44.1988 15.7498 44.2774 15.9292 44.3808 16.0918C44.4843 16.2503 44.6167 16.3796 44.7739 16.4797C44.9311 16.5798 45.1214 16.6257 45.3448 16.6257C45.5806 16.6257 45.775 16.5798 45.9363 16.4839C46.0935 16.388 46.2218 16.2628 46.3169 16.1002C46.4121 15.9417 46.4783 15.7582 46.5196 15.5579C46.561 15.3536 46.5817 15.145 46.5817 14.9281C46.5817 14.7112 46.561 14.5027 46.5196 14.3025H46.5155Z" fill="black"/>
<path d="M11.604 73.4354C11.5337 72.9265 11.0497 72.5386 10.4953 72.5386C9.49417 72.5386 9.1177 73.3978 9.1177 74.2946C9.1177 75.1914 9.49417 76.0047 10.4953 76.0047C11.1779 76.0047 11.5626 75.5334 11.6454 74.8577H12.7292C12.6134 76.134 11.7405 76.9515 10.4953 76.9515C8.92327 76.9515 8.00073 75.767 8.00073 74.2946C8.00073 72.8222 8.92327 71.5918 10.4953 71.5918C11.6123 71.5918 12.5472 72.2508 12.6837 73.4354H11.604Z" fill="black"/>
<path d="M15.058 73.0264C16.2164 73.0264 16.961 73.798 16.961 74.9826C16.961 76.1671 16.2164 76.9304 15.058 76.9304C13.8997 76.9304 13.1592 76.1546 13.1592 74.9826C13.1592 73.8105 13.9038 73.0264 15.058 73.0264ZM15.058 76.163C15.7489 76.163 15.9516 75.5665 15.9516 74.9826C15.9516 74.3986 15.7448 73.7938 15.058 73.7938C14.3713 73.7938 14.1686 74.3903 14.1686 74.9826C14.1686 75.5749 14.3754 76.163 15.058 76.163Z" fill="black"/>
<path d="M17.585 73.1187H18.5447V73.8069H18.5613C18.7433 73.3397 19.2439 73.0186 19.7362 73.0186C19.8065 73.0186 19.8934 73.0311 19.9554 73.0519V73.9987C19.8603 73.9779 19.7113 73.9654 19.5914 73.9654C18.8509 73.9654 18.5944 74.5034 18.5944 75.1541V76.8225H17.585V73.1187Z" fill="black"/>
<path d="M20.3445 73.1265H21.3042V73.5978H21.3166C21.5566 73.2057 21.9537 73.0264 22.4088 73.0264C23.563 73.0264 24.0801 73.9648 24.0801 75.0159C24.0801 76.0045 23.5423 76.9304 22.4667 76.9304C22.0282 76.9304 21.6062 76.7386 21.3663 76.3715H21.3497V78.1359H20.3403V73.1265H20.3445ZM23.0748 74.9909C23.0748 74.4028 22.839 73.7938 22.1937 73.7938C21.5483 73.7938 21.3208 74.3903 21.3208 74.9909C21.3208 75.5915 21.5483 76.1671 22.202 76.1671C22.8556 76.1671 23.0748 75.5957 23.0748 74.9909Z" fill="black"/>
<path d="M26.2978 73.0264C27.4561 73.0264 28.2049 73.798 28.2049 74.9826C28.2049 76.1671 27.4561 76.9304 26.2978 76.9304C25.1394 76.9304 24.4031 76.1546 24.4031 74.9826C24.4031 73.8105 25.1477 73.0264 26.2978 73.0264ZM26.2978 76.163C26.9887 76.163 27.1955 75.5665 27.1955 74.9826C27.1955 74.3986 26.9887 73.7938 26.2978 73.7938C25.6069 73.7938 25.4084 74.3903 25.4084 74.9826C25.4084 75.5749 25.6152 76.163 26.2978 76.163Z" fill="black"/>
<path d="M28.8269 73.1187H29.7867V73.8069H29.8032C29.9852 73.3397 30.4858 73.0186 30.974 73.0186C31.0443 73.0186 31.1312 73.0311 31.1932 73.0519V73.9987C31.1022 73.9779 30.9533 73.9654 30.8292 73.9654C30.0887 73.9654 29.8322 74.5034 29.8322 75.1541V76.8225H28.8228V73.1187H28.8269Z" fill="black"/>
<path d="M31.4899 74.2652C31.5478 73.31 32.3917 73.0264 33.2191 73.0264C33.9513 73.0264 34.8325 73.189 34.8325 74.0775V76.0045C34.8325 76.3423 34.8656 76.676 34.9608 76.8303H33.9348C33.9017 76.7135 33.8686 76.5926 33.8645 76.4716C33.5459 76.8095 33.0785 76.9304 32.6275 76.9304C31.9325 76.9304 31.3782 76.5801 31.3782 75.8209C31.3782 74.9826 32.0029 74.7824 32.6275 74.6948C33.2481 74.603 33.8231 74.6239 33.8231 74.2068C33.8231 73.7897 33.5211 73.7062 33.1695 73.7062C32.7847 73.7062 32.5365 73.8647 32.4993 74.2652H31.4899ZM33.8231 75.0159C33.6493 75.1661 33.2977 75.1744 32.9833 75.2328C32.6689 75.2954 32.3876 75.4038 32.3876 75.7792C32.3876 76.1546 32.6772 76.2506 33.0081 76.2506C33.7941 76.2506 33.8272 75.6207 33.8272 75.3997V75.0201L33.8231 75.0159Z" fill="black"/>
<path d="M36.8727 73.1268H37.6132V73.8067H36.8727V75.6419C36.8727 75.9881 36.9595 76.0715 37.2988 76.0715C37.4063 76.0715 37.5056 76.0632 37.6132 76.0423V76.839C37.4436 76.8682 37.2202 76.8765 37.0216 76.8765C36.4052 76.8765 35.8632 76.7306 35.8632 75.9965V73.8109H35.251V73.131H35.8632V72.0215H36.8727V73.131V73.1268Z" fill="black"/>
<path d="M39.3786 72.5552H38.3691V71.7168H39.3786V72.5552ZM38.3691 73.1308H39.3786V76.8346H38.3691V73.1308Z" fill="black"/>
<path d="M41.9562 73.0264C43.1146 73.0264 43.8634 73.798 43.8634 74.9826C43.8634 76.1671 43.1146 76.9304 41.9562 76.9304C40.7979 76.9304 40.0615 76.1546 40.0615 74.9826C40.0615 73.8105 40.8062 73.0264 41.9562 73.0264ZM41.9562 76.163C42.6471 76.163 42.854 75.5665 42.854 74.9826C42.854 74.3986 42.6471 73.7938 41.9562 73.7938C41.2654 73.7938 41.0668 74.3903 41.0668 74.9826C41.0668 75.5749 41.2736 76.163 41.9562 76.163Z" fill="black"/>
<path d="M44.5142 73.1265H45.4739V73.6437H45.4946C45.7511 73.2266 46.1896 73.0264 46.6199 73.0264C47.6913 73.0264 47.9644 73.6353 47.9644 74.553V76.8303H46.955V74.7365C46.955 74.1275 46.7771 73.8272 46.3096 73.8272C45.7594 73.8272 45.5277 74.1359 45.5277 74.8908V76.8345H44.5183V73.1306L44.5142 73.1265Z" fill="black"/>
</g>
<defs>
<clipPath id="clip0_2442_46476">
<rect width="40" height="68" fill="white" transform="translate(8.00024 10.1357)"/>
</clipPath>
</defs>
</svg>
