<svg width="32" height="32" viewBox="0 0 32 32" fill="none" xmlns="http://www.w3.org/2000/svg">
<path d="M0 16C0 24.8366 7.16344 32 16 32C24.8366 32 32 24.8366 32 16C32 7.16344 24.8366 0 16 0C7.16344 0 0 7.16344 0 16Z" fill="#1DA1F2"/>
<path d="M24 10.872C23.4 11.1796 22.8 11.2822 22.1 11.3848C22.8 10.9745 23.3 10.3591 23.5 9.53862C22.9 9.94888 22.2 10.154 21.4 10.3591C20.8 9.74375 19.9 9.3335 19 9.3335C16.9 9.3335 15.3 11.3848 15.8 13.4361C13.1 13.3335 10.7 12.0002 9 9.94888C8.1 11.4873 8.6 13.4361 10 14.4617C9.5 14.4617 9 14.2566 8.5 14.0514C8.5 15.5899 9.6 17.0258 11.1 17.4361C10.6 17.5386 10.1 17.6412 9.6 17.5386C10 18.872 11.2 19.8976 12.7 19.8976C11.5 20.8207 9.7 21.3335 8 21.1284C9.5 22.0514 11.2 22.6668 13 22.6668C19.1 22.6668 22.5 17.4361 22.3 12.6155C23 12.2053 23.6 11.5899 24 10.872Z" fill="white"/>
</svg>
