<svg width="32" height="32" viewBox="0 0 32 32" fill="none" xmlns="http://www.w3.org/2000/svg">
<path d="M0 16C0 24.8366 7.16344 32 16 32C24.8366 32 32 24.8366 32 16C32 7.16344 24.8366 0 16 0C7.16344 0 0 7.16344 0 16Z" fill="#FF0000"/>
<path d="M23.6 12.2856C23.4 11.6189 22.9 11.1427 22.2 10.9522C21 10.6665 15.9 10.6665 15.9 10.6665C15.9 10.6665 10.9 10.6665 9.60001 10.9522C8.90001 11.1427 8.4 11.6189 8.2 12.2856C8 13.5236 8 15.9998 8 15.9998C8 15.9998 8 18.476 8.3 19.7141C8.5 20.3808 9 20.857 9.7 21.0475C10.9 21.3332 16 21.3332 16 21.3332C16 21.3332 21 21.3332 22.3 21.0475C23 20.857 23.5 20.3808 23.7 19.7141C24 18.476 24 15.9998 24 15.9998C24 15.9998 24 13.5236 23.6 12.2856ZM14.4 18.2856V13.7141L18.6 15.9998L14.4 18.2856Z" fill="white"/>
</svg>
