<svg width="168" height="183" viewBox="0 0 168 183" fill="none" xmlns="http://www.w3.org/2000/svg">
<g clip-path="url(#clip0_1249_3389)">
<mask id="mask0_1249_3389" style="mask-type:alpha" maskUnits="userSpaceOnUse" x="0" y="15" width="168" height="168">
<path d="M84 183C130.392 183 168 145.392 168 99C168 52.6081 130.392 15 84 15C37.6081 15 -1.52588e-05 52.6081 -1.52588e-05 99C-1.52588e-05 145.392 37.6081 183 84 183Z" fill="#F7F2E9"/>
</mask>
<g mask="url(#mask0_1249_3389)">
<path d="M318.922 253.307L-28.0197 357.223L-27.816 180.442L318.922 76.517V253.307Z" fill="#3EC3DE"/>
<path d="M-22.9169 178.239L295.784 327.056" stroke="#62D0E6" stroke-width="2" stroke-miterlimit="10"/>
<path d="M12.8608 167.504L331.562 316.321" stroke="#62D0E6" stroke-width="2" stroke-miterlimit="10"/>
<path d="M48.6386 156.759L367.34 305.585" stroke="#62D0E6" stroke-width="2" stroke-miterlimit="10"/>
<path d="M84.4261 146.024L403.118 294.841" stroke="#62D0E6" stroke-width="2" stroke-miterlimit="10"/>
<path d="M120.204 135.289L438.895 284.105" stroke="#62D0E6" stroke-width="2" stroke-miterlimit="10"/>
<path d="M155.982 124.544L474.673 273.37" stroke="#62D0E6" stroke-width="2" stroke-miterlimit="10"/>
<path d="M318.922 23.0159L-27.816 126.941L-28.0197 95.881L318.922 -8.04425V23.0159Z" fill="#D2D8E3"/>
<path d="M318.922 -8.04425L-28.0197 95.881V-8.04425H318.922Z" fill="white"/>
<path d="M38.4524 76.0608L20.7576 68.286L25.0067 66.7427L43.1187 74.5757L38.4524 76.0608Z" fill="#B1BBC5"/>
<path d="M76.5002 64.7432L58.7957 56.9588L63.0448 55.4252L81.1665 63.2484L76.5002 64.7432Z" fill="#B1BBC5"/>
<g opacity="0.3">
<path d="M7.13721 116.526L10.7848 115.43C11.5609 114.818 12.4049 114.372 13.2683 114.109V111.809C10.9012 112.518 8.66028 114.245 7.13721 116.517V116.526Z" fill="white"/>
<path d="M-16.2037 93.2797C-17.6395 94.3571 -19.0073 95.5704 -20.2685 96.8808C-20.5692 95.8325 -21.1028 94.9395 -21.8595 94.2601L-25.5362 95.3666C-23.6833 95.7063 -22.4512 97.1428 -22.3057 99.1423C-24.9153 102.375 -26.8846 106.024 -28.0197 109.761V112.721C-19.6379 110.198 -12.1874 113.323 -9.52934 120.486C-11.0718 121.098 -12.5949 121.874 -14.0598 122.797C-16.2619 117.652 -21.811 115.478 -28.0197 117.322V119.623C-23.0624 118.157 -18.5611 119.72 -16.5141 123.631L1.74336 118.147C3.8 113.003 8.29162 108.742 13.2683 107.228V104.927C7.06928 106.81 1.52024 112.323 -0.691616 118.788C-2.16619 118.749 -3.67956 118.885 -5.22204 119.205C-2.53483 110.46 4.89623 102.879 13.2683 100.336V97.3758C12.1236 94.328 10.1639 91.8529 7.55434 90.1834C7.69985 88.0869 8.9319 85.903 10.7848 84.447L7.13719 85.5438C6.39021 86.6698 5.84695 87.8831 5.54621 89.106C4.27536 88.5528 2.91721 88.1645 1.48144 87.9413C1.57845 87.6695 1.67545 87.388 1.79187 87.1163L-16.4656 w92.6003C-16.3977 92.843 -16.3007 93.0565 -16.2037 93.2797V93.2797ZM-7.37569 119.05C-8.52042 116.002 -10.48 113.537 -13.0896 111.867C-12.8568 108.635 -10.1017 105.442 -6.94884 104.733C-4.11611 104.093 -1.86545 105.675 -1.66173 108.441C-4.27133 111.673 -6.23096 115.323 -7.37569 119.05V119.05ZM0.375513 106.17C-0.759518 102.229 -5.13473 100.996 -9.41293 103.403C-12.1971 104.976 -14.3702 107.81 -15.1075 110.819C-16.3783 110.266 -17.7365 109.868 -19.1723 109.654C-16.7179 102.394 -9.45173 96.9099 -2.92288 97.4049C0.482216 97.667 3.16943 99.5403 4.44998 102.569C3.01421 103.646 1.64635 104.859 0.385209 106.17H0.375513ZM11.1146 98.8026C9.57217 99.4141 8.05879 100.191 6.58422 101.113C3.67389 94.2698 -4.931 92.9594 -12.6434 98.1911C-16.65 100.909 -19.8222 105.024 -21.3356 109.499C-22.8102 109.47 -24.3332 109.606 -25.866 109.916C-22.4512 98.6764 -11.4016 89.8437 -1.18637 90.2029C4.6149 90.4067 9.17442 93.5904 11.1146 98.822V98.8026Z" fill="white"/>
<path d="M13.2683 111.867V114.168C14.1317 113.906 14.9757 113.847 15.7518 113.993L19.3994 112.896C17.8861 111.537 15.6354 111.159 13.2683 111.867Z" fill="white"/>
<path d="M48.4252 104.18L52.0728 103.083C52.8489 102.472 53.6929 102.025 54.5563 101.763V99.4626C52.1892 100.171 49.9483 101.899 48.4252 104.17V104.18Z" fill="white"/>
<path d="M25.0843 80.943C23.6485 82.0204 22.2807 83.2337 21.0195 84.544C20.7188 83.4958 20.1852 82.6028 19.4285 81.9234L15.7518 83.0299C17.6047 83.3696 18.8368 84.8061 18.9823 86.8056C16.3727 90.0378 14.4033 93.6874 13.2683 97.4243V100.385C21.6501 97.8611 29.1005 100.987 31.7586 108.15C30.2162 108.761 28.6931 109.538 27.2282 110.46C25.0261 105.316 19.477 103.141 13.2683 104.986V107.286C18.2256 105.82 22.7269 107.383 24.7738 111.295L43.0314 105.811C45.088 100.666 49.5796 96.4051 54.5563 94.891V92.5906C48.3573 94.4736 42.8082 99.9868 40.5964 106.451C39.1218 106.412 37.6084 106.548 36.066 106.869C38.7532 98.1232 46.1842 90.5425 54.5563 87.9995V85.0391C53.4116 81.9913 51.4519 79.5162 48.8423 77.8467C48.9878 75.7502 50.2199 73.5662 52.0728 72.1103L48.4252 73.2071C47.6782 74.333 47.1349 75.5463 46.8342 76.7693C45.5634 76.2161 44.2052 75.8278 42.7694 75.6046C42.8664 75.3328 42.9634 75.0513 43.0799 74.7795L24.8224 80.2636C24.8903 80.5062 24.9873 80.7198 25.0843 80.943V80.943ZM33.9123 106.713C32.7676 103.665 30.8079 101.2 28.1983 99.5306C28.4312 96.2984 31.1863 93.105 34.3392 92.3964C37.1719 91.7558 39.4225 93.338 39.6263 96.1042C37.0167 99.3364 35.057 102.986 33.9123 106.713V106.713ZM41.6635 93.833C40.5285 89.8922 36.1533 88.6595 31.8751 91.0667C29.0909 92.6391 26.9178 95.4733 26.1805 98.4823C24.9097 97.929 23.5515 97.5311 22.1157 97.3175C24.5701 90.0572 31.8363 84.5732 38.3651 85.0682C41.7702 85.3303 44.4574 87.2036 45.738 90.2319C44.3022 91.3093 42.9343 92.5226 41.6732 93.833H41.6635ZM52.4026 86.4659C50.8602 87.0774 49.3468 87.8539 47.8722 88.776C44.9619 81.9331 36.357 80.6227 28.6446 85.8544C24.638 88.5722 21.4658 92.6876 19.9524 97.1622C18.4778 97.1331 16.9547 97.269 15.422 97.5796C18.8368 86.3397 29.8863 77.507 40.1016 77.8661C45.9029 78.07 50.4624 81.2536 52.4026 86.4853V86.4659Z" fill="white"/>
<path d="M54.5563 99.5306V101.831C55.4197 101.569 56.2637 101.511 57.0398 101.656L60.6874 100.559C59.174 99.2006 56.9234 98.822 54.5563 99.5306Z" fill="white"/>
<path d="M89.7132 91.8529L93.3608 90.7561C94.1369 90.1446 94.9809 89.6981 95.8443 89.4361V87.1357C93.4772 87.8442 91.2362 89.572 89.7132 91.8432V91.8529Z" fill="white"/>
<path d="M66.3723 68.6063C64.9365 69.6837 63.5686 70.897 62.3075 72.2074C62.0068 71.1591 61.4732 70.2661 60.7165 69.5867L57.0398 70.6932C58.8927 71.0329 60.1247 72.4695 60.2702 74.4689C57.6606 77.7011 55.6913 81.3507 54.5563 85.0876V88.048C62.9381 85.5244 70.3885 88.6498 73.0466 95.8131C71.5041 96.4246 69.9811 97.2011 68.5162 98.1232C66.314 92.9788 60.765 90.8046 54.5563 92.6488V94.9492C59.5136 93.4836 64.0149 95.0463 66.0618 98.9579L84.3193 93.4739C86.376 88.3295 90.8676 84.0685 95.8443 82.5543V80.2539C89.6452 82.1369 84.0962 87.6501 81.8843 94.1145C80.4098 94.0757 78.8964 94.2115 77.3539 94.5319C80.0411 85.7865 87.4722 78.2059 95.8443 75.6628V72.7024C94.6995 69.6546 92.7399 67.1795 90.1303 65.51C90.2758 63.4135 91.5079 61.2296 93.3608 59.7736L89.7131 60.8704C88.9662 61.9964 88.4229 63.2097 88.1222 64.4326C86.8513 63.8794 85.4932 63.4911 84.0574 63.2679C84.1544 62.9961 84.2514 62.7146 84.3678 62.4429L66.1103 67.9269C66.1782 68.1696 66.2752 68.3831 66.3723 68.6063V68.6063ZM75.2003 94.3766C74.0555 91.3288 72.0959 88.8634 69.4863 87.1939C69.7191 83.9617 72.4743 80.7683 75.6271 80.0598C78.4598 79.4192 80.7105 81.0013 80.9142 83.7676C78.3046 86.9998 76.345 90.6493 75.2003 94.3766V94.3766ZM82.9515 81.4963C81.8164 77.5555 77.4412 76.3228 73.163 78.73C70.3788 80.3024 68.2058 83.1367 67.4685 86.1456C66.1976 85.5924 64.8395 85.1944 63.4037 84.9809C65.8581 77.7206 73.1242 72.2365 79.6531 72.7315C83.0582 72.9936 85.7454 74.8669 87.0259 77.8953C85.5902 78.9727 84.2223 80.186 82.9612 81.4963H82.9515ZM93.6906 74.1292C92.1481 74.7407 90.6348 75.5172 89.1602 76.4393C86.2499 69.5964 77.645 68.286 69.9326 73.5177C65.926 76.2355 62.7537 80.351 61.2404 84.8256C59.7658 84.7964 58.2427 84.9323 56.7099 85.2429C60.1247 74.003 71.1743 65.1703 81.3896 65.5295C87.1909 65.7333 91.7504 68.9169 93.6906 74.1486V74.1292Z" fill="white"/>
<path d="M95.8443 87.2036V89.504C96.7077 89.2419 97.5517 89.1837 98.3277 89.3293L101.975 88.2325C100.462 86.8736 98.2113 86.4951 95.8443 87.2036Z" fill="white"/>
<path d="M131.001 79.5163L134.649 78.4195C135.425 77.808 136.269 77.3615 137.132 77.0994V74.799C134.765 75.5076 132.524 77.2353 131.001 79.5066V79.5163Z" fill="white"/>
<path d="M107.66 56.2697C106.224 57.3471 104.857 58.5604 103.595 59.8707C103.295 58.8224 102.761 57.9295 102.004 57.25L98.3277 58.3565C100.181 58.6963 101.413 60.1328 101.558 62.1323C98.9486 65.3645 96.9793 69.014 95.8443 72.751V75.7114C104.226 73.1877 111.676 76.3132 114.335 83.4764C112.792 84.0879 111.269 84.8644 109.804 85.7865C107.602 80.6422 102.053 78.468 95.8443 80.3122V82.6126C100.802 81.1469 105.303 82.7096 107.35 86.6212L125.607 81.1372C127.664 75.9929 132.156 71.7318 137.132 70.2176V67.9172C130.933 69.8002 125.384 75.3134 123.172 81.7778C121.698 81.739 120.184 81.8749 118.642 82.1952C121.329 73.4498 128.76 65.8692 137.132 63.3261V60.3657C135.987 57.318 134.028 54.8428 131.418 53.1734C131.564 51.0768 132.796 48.8929 134.649 47.437L131.001 48.5338C130.254 49.6597 129.711 50.873 129.41 52.096C128.139 51.5427 126.781 51.1545 125.345 50.9312C125.442 50.6594 125.539 50.378 125.656 50.1062L107.398 55.5902C107.466 55.8329 107.563 56.0464 107.66 56.2697ZM116.488 82.0399C115.344 78.9921 113.384 76.5267 110.774 74.8572C111.007 71.625 113.762 68.4317 116.915 67.7231C119.748 67.0825 121.998 68.6646 122.202 71.4309C119.593 74.6631 117.633 78.3127 116.488 82.0399V82.0399ZM124.239 69.1596C123.104 65.2189 118.729 63.9862 114.451 66.3933C111.667 67.9658 109.494 70.8 108.756 73.8089C107.486 73.2557 106.127 72.8577 104.692 72.6442C107.146 65.3839 114.412 59.8998 120.941 60.3949C124.346 60.6569 127.033 62.5302 128.314 65.5586C126.878 66.636 125.51 67.8493 124.249 69.1596H124.239ZM134.979 61.7926C133.436 62.4041 131.923 63.1806 130.448 64.1027C127.538 57.2597 118.933 55.9494 111.221 61.1811C107.214 63.8988 104.042 68.0143 102.528 72.4889C101.054 72.4598 99.5307 72.5957 97.9979 72.9063C101.413 61.6664 112.462 52.8336 122.678 53.1928C128.479 53.3966 133.038 56.5803 134.979 61.812V61.7926Z" fill="white"/>
<path d="M137.132 74.8669V77.1673C137.996 76.9052 138.84 76.847 139.616 76.9926L143.263 75.8957C141.75 74.5369 139.499 74.1583 137.132 74.8669Z" fill="white"/>
<path d="M148.939 43.9329C147.503 45.0103 146.135 46.2236 144.874 47.534C144.573 46.4857 144.039 45.5927 143.283 44.9133L139.606 46.0198C141.459 46.3595 142.691 47.7961 142.837 49.7955C140.227 53.0277 138.258 56.6773 137.123 60.4142V63.3746C145.504 60.851 152.955 63.9764 155.613 71.1397C154.07 71.7512 152.547 72.5277 151.082 73.4498C148.88 68.3054 143.331 66.1312 137.123 67.9754V70.2758C142.08 68.8102 146.581 70.3729 148.628 74.2845L166.886 68.8005C168.942 63.6561 173.434 59.3951 178.411 57.8809V55.5805C172.212 57.4635 166.662 62.9767 164.451 69.4411C162.976 69.4023 161.463 69.5381 159.92 69.8585C162.607 61.1131 170.038 53.5325 178.411 50.9894V48.029C177.266 44.9812 175.306 42.5061 172.697 40.8366C172.842 38.7401 174.074 36.5562 175.927 35.1002L172.279 36.197C171.532 37.323 170.989 38.5363 170.688 39.7592C169.418 39.206 168.059 38.8177 166.624 38.5945C166.721 38.3227 166.818 38.0412 166.934 37.7695L148.677 43.2535C148.744 43.4962 148.842 43.7097 148.939 43.9329V43.9329ZM157.767 69.7032C156.622 66.6554 154.662 64.19 152.053 62.5205C152.285 59.2883 155.041 56.0949 158.193 55.3864C161.026 54.7458 163.277 56.3279 163.481 59.0942C160.871 62.3264 158.911 65.9759 157.767 69.7032ZM165.518 56.8229C164.383 52.8821 160.008 51.6495 155.729 54.0566C152.945 55.629 150.772 58.4633 150.035 61.4722C148.764 60.919 147.406 60.521 145.97 60.3075C148.424 53.0472 155.691 47.5631 162.219 48.0581C165.624 48.3202 168.312 50.1935 169.592 53.2219C168.156 54.2993 166.789 55.5126 165.527 56.8229H165.518ZM176.257 49.4558C174.714 50.0673 173.201 50.8438 171.726 51.7659C168.816 44.923 160.211 43.6126 152.499 48.8443C148.492 51.5621 145.32 55.6776 143.807 60.1522C142.332 60.123 140.809 60.2589 139.276 60.5695C142.691 49.3296 153.741 40.4969 163.956 40.8561C169.757 41.0599 174.317 44.2435 176.257 49.4752V49.4558Z" fill="white"/>
</g>
<path d="M318.922 76.5558L-28.0197 180.481L-27.816 126.941L318.922 23.0159V76.5558Z" fill="#1CB9D8"/>
<mask id="mask1_1249_3389" style="mask-type:alpha" maskUnits="userSpaceOnUse" x="-27" y="46" width="271" height="134">
<path d="M-26.5354 179.957V127.058L243.156 46.0101V99.3947L-26.5354 179.957Z" fill="#D9D9D9"/>
</mask>
<g mask="url(#mask1_1249_3389)">
<path d="M13.831 173.327V55.1146" stroke="#35C5E0" stroke-width="2" stroke-miterlimit="10"/>
<path d="M49.6184 162.592V44.3794" stroke="#35C5E0" stroke-width="2" stroke-miterlimit="10"/>
<path d="M85.3961 151.847V33.6345" stroke="#35C5E0" stroke-width="2" stroke-miterlimit="10"/>
<path d="M121.174 141.112V22.8994" stroke="#35C5E0" stroke-width="2" stroke-miterlimit="10"/>
<path d="M156.952 130.377V12.1642" stroke="#35C5E0" stroke-width="2" stroke-miterlimit="10"/>
</g>
<path opacity="0.2" d="M349.451 34.6246L-27.8159 151.809V126.931L318.922 23.0159L349.451 34.6246Z" fill="black"/>
<path opacity="0.2" d="M38.3166 76.0122V107.121L43.8463 105.461V102.685L75.6368 92.7264V95.9295L81.1665 94.2697V90.989V90.9793V65.0053V64.9956V63.1708L38.3263 76.0025L38.3166 76.0122ZM75.6271 86.9415L43.8365 96.9001V76.7014L75.6271 66.7427V86.9415Z" fill="#1F3B71"/>
<path d="M117.303 124.563C117.303 124.563 116.828 125.64 114.616 125.64C112.404 125.64 111.783 124.563 111.783 124.563V51.7174C111.783 30.412 100.608 10.0968 86.861 6.4375C82.253 5.2048 77.8196 6.09778 74.0264 9.00967C67.3424 14.1443 63.3552 24.7339 63.3552 37.3423V56.0949C63.3552 56.0949 62.9574 57.25 60.571 57.25C58.1845 57.25 57.8256 56.0949 57.8256 56.0949V37.3423C57.8256 23.0353 62.6179 10.8053 70.6504 4.62243C75.8502 0.623434 81.9425 -0.599559 88.2677 1.08934C104.546 5.42805 117.293 27.6652 117.293 51.7174V124.563H117.303Z" fill="#E93F46"/>
<path d="M61.2306 38.7788V57.2014C63.0156 57.0073 63.3552 56.0852 63.3552 56.0852V37.3326C63.3552 35.4884 63.4522 33.683 63.6171 31.9359C63.6365 31.6932 63.6656 31.4506 63.6947 31.2176C63.7335 30.8876 63.7626 30.5479 63.8111 30.2179C64.3641 25.8306 65.4118 22.0452 66.8088 18.8518C66.8767 18.6868 66.9543 18.5218 67.0222 18.3665C67.1386 18.1141 67.255 17.8715 67.3715 17.6191C69.0983 14.0181 71.3392 11.0674 74.0264 8.99993C74.6958 8.4855 75.3943 8.05842 76.1025 7.67017C76.3353 7.53428 76.5681 7.4081 76.8009 7.29163C76.898 7.24309 77.0047 7.19456 77.1017 7.14603C78.6054 6.43747 80.1284 6.0201 81.6224 5.90363C64.9268 6.60248 61.2306 27.636 61.2306 38.7691V38.7788Z" fill="#133250"/>
<path d="M114.866 58.9377L75.6113 71.231L77.263 76.511L116.518 64.2177L114.866 58.9377Z" fill="#E93F46"/>
<path d="M114.866 89.0317L75.6112 101.325L77.263 106.605L116.518 94.3117L114.866 89.0317Z" fill="#E93F46"/>
<path d="M114.875 115.023L75.6204 127.316L77.2721 132.596L116.527 120.303L114.875 115.023Z" fill="#E93F46"/>
<path d="M79.1971 135.696C79.1971 135.696 78.7897 136.774 76.5293 136.774C74.269 136.774 73.6772 135.696 73.6772 135.696V62.8505C73.6772 41.5452 62.5015 21.2299 48.755 17.5706C44.147 16.3379 39.7136 17.2309 35.9204 20.1428C29.2364 25.2774 25.2492 35.867 25.2492 48.4755V67.228C25.2492 67.228 24.9097 68.6548 22.5232 68.6548C20.1367 68.6548 19.7293 67.228 19.7293 67.228V48.4755C19.7293 34.1684 24.5216 21.9385 32.5541 15.7555C37.7539 11.7566 43.8463 10.5336 50.1714 12.2225C66.4499 16.5612 79.1971 38.7983 79.1971 62.8505V135.696V135.696Z" fill="#E93F46"/>
<path d="M111.541 123.651C111.027 124.223 111.725 124.631 111.725 125.398C111.725 126.165 111.667 126.165 111.667 126.931C111.667 127.698 111.744 127.708 111.744 128.475C111.744 129.242 111.492 129.242 111.492 130.018C111.492 130.795 112.065 130.785 112.065 131.561C112.065 132.338 111.434 132.338 111.434 133.105C111.434 133.871 111.541 133.871 111.541 134.648C111.541 135.424 112.026 135.424 112.026 136.191C112.026 136.958 111.512 136.968 111.512 137.744C111.512 138.521 112.113 138.589 111.647 139.22C111.182 139.851 110.92 139.239 110.183 139.472C109.445 139.705 109.503 139.889 108.766 140.122C108.029 140.355 108.068 140.472 107.33 140.705C106.593 140.938 106.516 140.685 105.769 140.918C105.022 141.151 105.06 141.239 104.313 141.471C103.566 141.704 103.683 142.064 102.945 142.287C102.208 142.51 102.179 142.432 101.442 142.656C100.705 142.879 100.646 142.724 99.909 142.957C99.1718 143.189 99.2785 143.539 98.5412 143.762C97.8039 143.985 97.7748 143.917 97.0375 144.15C96.3002 144.383 96.1935 144.063 95.4562 144.296C94.7189 144.529 94.8159 144.849 94.0787 145.082C93.3414 145.315 93.3511 145.335 92.6138 145.568C91.8765 145.8 91.8183 145.626 91.081 145.859C90.3437 146.092 90.2467 145.791 89.4997 146.024C88.7527 146.257 88.8789 146.626 88.1319 146.858C87.3849 147.091 87.3946 147.111 86.6573 147.344C85.92 147.577 85.8909 147.489 85.1439 147.713C84.3969 147.936 84.4067 147.955 83.6694 148.188C82.9321 148.421 82.7963 148.014 82.059 148.246C81.3217 148.479 81.4284 148.848 80.6814 149.081C79.9344 149.314 79.6434 150.178 79.0031 149.722C78.3628 149.266 79.1972 148.722 79.1972 147.955C79.1972 147.188 79.0613 147.188 79.0613 146.422C79.0613 145.655 79.1681 145.655 79.1681 144.888C79.1681 144.121 79.3039 144.121 79.3039 143.354C79.3039 142.588 79.2165 142.588 79.2165 141.821C79.2165 141.054 79.1778 141.054 79.1778 140.287C79.1778 139.521 78.8964 139.521 78.8964 138.754C78.8964 137.987 78.8576 137.987 78.8576 137.22C78.8576 136.453 79.7598 136.191 79.2457 135.619C78.7897 135.104 78.489 135.813 77.8002 135.813C77.1114 135.813 77.1114 135.347 76.4226 135.347C75.7339 135.347 75.7338 135.9 75.0354 135.9C74.3369 135.9 73.9974 135.056 73.522 135.56C73.0175 136.114 73.425 136.424 73.425 137.172C73.425 137.919 73.8421 137.919 73.8421 138.666C73.8421 139.414 73.4541 139.414 73.4541 140.161C73.4541 140.909 73.8518 140.908 73.8518 141.656C73.8518 142.403 73.8033 142.403 73.8033 143.151C73.8033 143.898 73.5511 143.898 73.5511 144.645C73.5511 145.393 73.8906 145.393 73.8906 146.14C73.8906 146.888 73.9488 146.888 73.9488 147.635C73.9488 148.382 73.6869 148.382 73.6869 149.13C73.6869 149.877 73.9488 149.877 73.9488 150.624C73.9488 151.372 73.5608 151.372 73.5608 152.119C73.5608 152.867 73.4444 152.867 73.4444 153.614C73.4444 154.361 73.8906 154.361 73.8906 155.109C73.8906 155.856 73.4832 155.856 73.4832 156.613C73.4832 157.37 73.6966 157.361 73.6966 158.108C73.6966 158.855 73.6966 158.855 73.6966 159.603C73.6966 160.35 73.9488 160.35 73.9488 161.098C73.9488 161.845 73.6093 161.845 73.6093 162.602C73.6093 163.359 73.4347 163.349 73.4347 164.097C73.4347 164.844 73.9392 164.844 73.9392 165.592C73.9392 166.339 73.9683 166.339 73.9683 167.086C73.9683 167.834 73.813 167.834 73.813 168.591C73.813 169.348 73.5123 169.338 73.5123 170.086C73.5123 170.833 73.6093 170.833 73.6093 171.59C73.6093 172.347 73.522 172.337 73.522 173.095C73.522 173.852 73.6287 173.842 73.6287 174.599C73.6287 175.356 73.8615 175.346 73.8615 176.094C73.8615 176.841 73.9683 176.841 73.9683 177.589C73.9683 178.336 73.9197 178.336 73.9197 179.093C73.9197 179.85 73.9488 179.84 73.9488 180.598C73.9488 181.355 73.7451 181.345 73.7451 182.102C73.7451 182.859 73.4638 182.849 73.4638 183.606C73.4638 184.364 73.7451 184.354 73.7451 185.111C73.7451 185.868 73.9488 185.868 73.9488 186.615C73.9488 187.363 73.7742 187.373 73.7742 188.12C73.7742 188.867 73.619 188.877 73.619 189.624C73.619 190.566 73.4929 190.838 74.4436 191.401C74.851 191.643 75.5786 191.294 76.4032 191.294C77.2278 191.294 77.8778 191.507 78.2852 191.265C79.236 190.692 79.3039 190.556 79.3039 189.615C79.3039 188.916 79.3912 188.916 79.3912 188.217C79.3912 187.518 79.0225 187.518 79.0225 186.819C79.0225 186.12 79.2942 186.12 79.2942 185.422C79.2942 184.723 78.974 184.723 78.974 184.024C78.974 183.325 79.4688 183.325 79.4688 182.626C79.4688 181.927 78.6733 181.733 79.1098 181.18C79.5949 180.568 79.9053 180.995 80.6426 180.763C81.3799 180.53 81.4478 180.763 82.1851 180.52C82.9224 180.277 82.7575 179.753 83.4948 179.52C84.232 179.287 84.3484 179.637 85.0857 179.404C85.823 179.171 85.8424 179.229 86.5797 178.996C87.317 178.763 87.317 178.763 88.0543 178.53C88.7916 178.297 88.7625 178.21 89.5094 177.977C90.2564 177.744 90.3146 177.967 91.0616 177.734C91.8086 177.501 91.828 177.569 92.5653 177.346C93.3026 177.123 93.1377 176.579 93.8749 176.346C94.6122 176.113 94.7189 176.443 95.4562 176.21C96.1935 175.977 96.0965 175.657 96.8338 175.424C97.5711 175.191 97.6293 175.366 98.3666 175.133C99.1039 174.9 99.0651 174.754 99.8023 174.531C100.54 174.308 100.549 174.308 101.287 174.075C102.024 173.842 101.995 173.735 102.732 173.502C103.469 173.269 103.673 173.9 104.41 173.667C105.148 173.434 104.973 172.862 105.71 172.629C106.448 172.396 106.457 172.435 107.204 172.202C107.951 171.969 108.087 172.435 108.834 172.202C109.581 171.969 109.523 171.794 110.27 171.561C111.017 171.328 111.007 170.678 111.609 171.173C112.259 171.707 111.628 171.862 111.628 172.706C111.628 173.551 111.512 173.551 111.512 174.395C111.512 175.24 112.035 175.24 112.035 176.084C112.035 176.929 111.822 176.929 111.822 177.773C111.822 178.715 111.764 178.685 112.715 179.258C113.122 179.501 113.675 179.967 114.5 179.967C115.324 179.967 115.819 179.413 116.226 179.171C117.177 178.598 117.371 178.715 117.371 177.783C117.371 177.035 117.293 177.035 117.293 176.288C117.293 175.541 117.517 175.541 117.517 174.793C117.517 174.046 116.944 174.046 116.944 173.298C116.944 172.551 117.206 172.551 117.206 171.804C117.206 171.056 117.051 171.056 117.051 170.309C117.051 169.561 117.42 169.561 117.42 168.814C117.42 168.067 117.546 168.067 117.546 167.319C117.546 166.572 117.429 166.572 117.429 165.825C117.429 165.077 117.051 165.077 117.051 164.33C117.051 163.582 116.944 163.582 116.944 162.835C116.944 162.088 117.497 162.088 117.497 161.34C117.497 160.593 117.458 160.593 117.458 159.845C117.458 159.098 117.264 159.098 117.264 158.351C117.264 157.603 116.983 157.603 116.983 156.846C116.983 156.089 117.138 156.099 117.138 155.351C117.138 154.604 117.022 154.604 117.022 153.857C117.022 153.109 117.099 153.109 117.099 152.362C117.099 151.615 117.245 151.615 117.245 150.857C117.245 150.1 117.061 150.11 117.061 149.363C117.061 148.615 117.487 148.615 117.487 147.868C117.487 147.121 117.012 147.121 117.012 146.373C117.012 145.626 117.332 145.626 117.332 144.869C117.332 144.112 117.245 144.121 117.245 143.374C117.245 142.627 117.216 142.627 117.216 141.869C117.216 141.112 117.012 141.122 117.012 140.365C117.012 139.608 117.555 139.618 117.555 138.86C117.555 138.103 117.449 138.113 117.449 137.366C117.449 136.618 117.187 136.618 117.187 135.871C117.187 135.124 117.255 135.124 117.255 134.366C117.255 133.609 117.002 133.619 117.002 132.862C117.002 132.105 117.584 132.115 117.584 131.358C117.584 130.6 117.42 130.61 117.42 129.853C117.42 129.096 117.226 129.106 117.226 128.349C117.226 127.591 117.381 127.591 117.381 126.844C117.381 126.097 117.487 126.087 117.487 125.34C117.487 124.592 117.759 124.418 117.245 123.855C116.779 123.35 116.585 123.515 115.897 123.515C115.208 123.515 115.208 123.787 114.519 123.787C113.83 123.787 113.85 123.835 113.19 123.641C112.356 123.398 111.987 123.107 111.521 123.622L111.541 123.651ZM79.3815 175.23C78.7509 174.774 79.236 174.706 79.236 173.929C79.236 173.153 79.2942 173.153 79.2942 172.376C79.2942 171.6 79.2165 171.6 79.2165 170.823C79.2165 170.047 79.4688 170.047 79.4688 169.27C79.4688 168.494 78.8964 168.494 78.8964 167.717C78.8964 166.941 79.527 166.941 79.527 166.164C79.527 165.388 79.4203 165.388 79.4203 164.611C79.4203 163.835 78.9352 163.835 78.9352 163.058C78.9352 162.282 79.4494 162.282 79.4494 161.505C79.4494 160.729 79.333 160.729 79.333 159.952C79.333 159.176 79.5076 159.176 79.5076 158.399C79.5076 157.623 79.3039 157.623 79.3039 156.837C79.3039 156.05 78.7218 155.895 79.1778 155.264C79.6337 154.633 80.0023 155.274 80.7493 155.041C81.4963 154.808 81.4575 154.721 82.1948 154.488C82.9321 154.255 82.8254 153.896 83.5626 153.672C84.2999 153.449 84.3291 153.527 85.0663 153.303C85.8036 153.08 85.8618 153.235 86.5991 153.003C87.3364 152.77 87.2297 152.42 87.967 152.197C88.7043 151.974 88.7333 152.042 89.4706 151.809C90.2079 151.576 90.3146 151.896 91.0519 151.663C91.7892 151.43 91.6922 151.11 92.4295 150.877C93.1668 150.644 93.1668 150.624 93.904 150.392C94.6413 150.159 94.6996 150.333 95.4368 150.1C96.1741 149.867 96.2711 150.168 97.0084 149.935C97.7457 149.702 97.6293 149.334 98.3666 149.101C99.1039 148.868 99.1038 148.848 99.8411 148.625C100.578 148.402 100.608 148.479 101.355 148.256C102.101 148.033 102.092 148.014 102.829 147.781C103.566 147.548 103.702 147.955 104.439 147.722C105.177 147.489 105.07 147.121 105.807 146.888C106.545 146.655 106.477 146.431 107.224 146.208C107.971 145.985 108.058 146.276 108.805 146.043C109.552 145.81 109.513 145.684 110.25 145.451C110.988 145.218 111.143 144.636 111.774 145.092C112.404 145.548 111.638 145.868 111.638 146.645C111.638 147.421 111.725 147.421 111.725 148.198C111.725 148.974 111.764 148.974 111.764 149.751C111.764 150.527 112.045 150.527 112.045 151.304C112.045 152.08 112.084 152.08 112.084 152.857C112.084 153.633 111.677 153.633 111.677 154.41C111.677 155.186 111.909 155.186 111.909 155.963C111.909 156.739 111.444 156.739 111.444 157.516C111.444 158.292 111.997 158.292 111.997 159.069C111.997 159.845 111.599 159.845 111.599 160.622C111.599 161.398 111.541 161.398 111.541 162.175C111.541 162.951 111.958 162.951 111.958 163.738C111.958 164.524 112.065 164.553 111.609 165.174C111.153 165.795 111.094 165.718 110.357 165.951C109.62 166.184 109.6 166.135 108.863 166.368C108.126 166.601 108.048 166.368 107.311 166.591C106.574 166.815 106.671 167.145 105.933 167.378C105.196 167.611 105.216 167.669 104.469 167.892C103.722 168.115 103.654 167.873 102.916 168.106C102.179 168.338 102.257 168.591 101.519 168.824C100.782 169.057 100.666 168.688 99.9188 168.921C99.1718 169.154 99.1427 169.047 98.4054 169.27C97.6681 169.494 97.7942 169.93 97.0569 170.163C96.3196 170.396 96.1935 170.008 95.4562 170.231C94.7189 170.454 94.7772 170.668 94.0399 170.901C93.3026 171.134 93.3026 171.134 92.5653 171.367C91.828 171.6 91.9056 171.842 91.1683 172.075C90.431 172.308 90.3244 171.988 89.5871 172.221C88.8498 172.454 88.7916 172.279 88.0543 172.512C87.317 172.745 87.4625 173.23 86.7252 173.463C85.9879 173.696 85.9879 173.725 85.2507 173.958C84.5134 174.191 84.4649 174.036 83.7179 174.269C82.9709 174.502 82.8836 174.211 82.1463 174.444C81.409 174.677 81.3702 174.638 80.6814 175.007C80.0412 175.346 80.0217 175.715 79.3912 175.259L79.3815 175.23Z" fill="#F07E83"/>
<path d="M79.2165 149.499C79.1001 150.207 79.2165 150.217 79.2165 150.935C79.2165 151.653 79.2165 151.663 79.2165 152.381C79.2165 153.1 79.1971 153.109 79.1971 153.828C79.1971 154.546 78.6248 154.856 79.2165 155.283C79.8083 155.711 79.915 155.041 80.6135 154.827C81.312 154.614 81.3217 154.633 82.0202 154.42C82.7186 154.206 82.7574 154.293 83.4171 153.963C83.9992 153.672 82.8254 154.002 82.1269 153.837C81.7291 153.74 81.312 153.575 80.9433 153.313C80.6329 153.1 80.3419 152.682 80.0993 152.187C79.8956 151.76 79.7598 151.275 79.624 150.848C79.3814 150.1 79.3523 148.79 79.2359 149.489L79.2165 149.499Z" fill="#ED5E64"/>
<path d="M79.2263 175.482C79.1098 176.191 79.2165 176.201 79.2165 176.919C79.2165 177.637 79.2165 177.647 79.2165 178.365C79.2165 179.083 79.1874 179.093 79.1874 179.811C79.1874 180.53 78.6054 180.84 79.1874 181.267C79.7695 181.694 79.8956 181.063 80.5941 180.84C81.2926 180.617 81.2926 180.598 81.9911 180.384C82.6895 180.17 82.7477 180.306 83.4074 179.976C83.9895 179.685 82.806 179.976 82.1075 179.811C81.7097 179.714 81.2926 179.559 80.924 179.297C80.6135 179.083 80.3322 178.666 80.0897 178.171C79.8859 177.744 79.7113 177.278 79.5755 176.841C79.333 176.094 79.3427 174.783 79.2263 175.482V175.482Z" fill="#ED5E64"/>
<path d="M79.1486 100.239V106.034L83.3492 104.714C83.3492 104.714 81.894 104.791 80.8657 104.073C79.8374 103.355 79.1389 100.239 79.1389 100.239H79.1486Z" fill="#1B345E"/>
<path d="M79.1972 70.0914V75.886L83.3978 74.566C83.3978 74.566 81.9426 74.6436 80.9143 73.9254C79.8859 73.2071 79.1875 70.0914 79.1875 70.0914H79.1972Z" fill="#1B345E"/>
<path d="M79.1972 126.194V131.988L83.3978 130.668C83.3978 130.668 81.9426 130.746 80.9143 130.028C79.8859 129.309 79.1875 126.194 79.1875 126.194H79.1972Z" fill="#1B345E"/>
<path d="M23.0761 49.9411V68.6063C24.9484 68.4025 25.2492 67.2183 25.2492 67.2183V51.5718L25.2201 48.4755C25.2201 38.1771 27.7133 30.4218 31.293 25.1901C32.6414 23.1809 34.1936 21.4726 35.9204 20.1428C36.551 19.6575 37.201 19.2498 37.8703 18.881C38.1323 18.7257 38.4039 18.5898 38.6658 18.4539C38.7822 18.3957 38.8987 18.3374 39.0151 18.2889C40.4993 17.5998 41.9933 17.1921 43.4582 17.0853C26.7625 17.7842 23.0664 38.8177 23.0664 49.9508L23.0761 49.9411Z" fill="#133250"/>
<path d="M43.4679 17.0659C43.7492 17.0562 44.0209 17.0368 44.3119 17.0368C44.0306 17.0368 43.7492 17.0465 43.4679 17.0659Z" fill="#133250"/>
<mask id="mask2_1249_3389" style="mask-type:alpha" maskUnits="userSpaceOnUse" x="34" y="92" width="54" height="70">
<path d="M87.9377 92.6003L34.5815 108.616V161.515L87.9377 145.5V92.6003Z" fill="#D9D9D9"/>
</mask>
<g mask="url(#mask2_1249_3389)">
<g opacity="0.4">
<g opacity="0.2">
<path d="M75.4816 95.5413C75.0451 96.1431 75.695 96.4634 75.695 97.2108C75.695 97.9581 75.6368 97.9581 75.6368 98.6958C75.6368 99.4335 75.7241 99.4432 75.7241 100.191C75.7241 100.938 75.4622 100.938 75.4622 101.685C75.4622 102.433 76.0443 102.433 76.0443 103.18C76.0443 103.928 75.404 103.928 75.404 104.675C75.404 105.422 75.5107 105.422 75.5107 106.17C75.5107 106.917 76.0055 106.917 76.0055 107.664C76.0055 108.412 75.4816 108.412 75.4816 109.159C75.4816 109.907 76.0637 109.975 75.6271 110.576C75.1906 111.178 74.9092 110.586 74.1914 110.819C73.4735 111.052 73.5317 111.246 72.8041 111.479C72.0765 111.712 72.1153 111.838 71.3877 112.061C70.6602 112.285 70.5825 112.042 69.855 112.275C69.1274 112.508 69.1565 112.595 68.4289 112.828C67.7013 113.061 67.8177 113.42 67.0901 113.653C66.3625 113.886 66.3334 113.789 65.6059 114.022C64.8783 114.255 64.8298 114.09 64.1022 114.313C63.3746 114.536 63.491 114.896 62.7634 115.129C62.0359 115.362 62.0164 115.284 61.2889 115.517C60.5613 115.75 60.4546 115.42 59.7367 115.653C59.0188 115.886 59.1158 116.216 58.3882 116.449C57.6606 116.682 57.6704 116.701 56.9428 116.934C56.2152 117.167 56.1667 116.992 55.4391 117.225C54.7115 117.458 54.6145 117.147 53.8869 117.38C53.1593 117.613 53.2757 117.992 52.5579 118.215C51.84 118.438 51.84 118.468 51.1124 118.7C50.3848 118.933 50.3557 118.836 49.6281 119.069C48.9005 119.302 48.9005 119.312 48.1729 119.545C47.4454 119.778 47.3095 119.361 46.582 119.593C45.8544 119.826 45.9708 120.195 45.2432 120.428C44.5156 120.661 44.2052 121.525 43.594 121.079C42.9828 120.632 43.788 120.069 43.788 119.302C43.788 118.535 43.6522 118.535 43.6522 117.759C43.6522 116.982 43.7686 116.982 43.7686 116.216C43.7686 115.449 43.9142 115.449 43.9142 114.672C43.9142 113.896 43.8171 113.896 43.8171 113.129C43.8171 112.362 43.7783 112.353 43.7783 111.586C43.7783 110.819 43.4873 110.809 43.4873 110.042C43.4873 109.276 43.4485 109.266 43.4485 108.499C43.4485 107.732 43.8657 107.723 43.8657 106.946C43.8657 106.17 44.2731 105.995 43.6813 105.5C43.1381 105.044 42.9925 105.277 42.3232 105.49C41.6538 105.704 41.809 106.238 41.1299 106.441C40.4509 106.645 40.3344 106.267 39.6554 106.471C38.9763 106.674 38.5688 106.344 38.1614 106.917C37.7248 107.529 38.5397 107.8 38.5397 108.548C38.5397 109.295 38.142 109.295 38.142 110.042C38.142 110.79 38.5494 110.79 38.5494 111.537C38.5494 112.285 38.5009 112.285 38.5009 113.032C38.5009 113.779 38.2487 113.779 38.2487 114.527C38.2487 115.274 38.5882 115.274 38.5882 116.022C38.5882 116.769 38.6464 116.769 38.6464 117.516C38.6464 118.264 38.3748 118.264 38.3748 119.011C38.3748 119.758 38.6367 119.758 38.6367 120.506C38.6367 121.253 38.239 121.253 38.239 122.001C38.239 122.748 38.1226 122.748 38.1226 123.495C38.1226 124.243 38.5785 124.243 38.5785 124.99C38.5785 125.738 38.1614 125.738 38.1614 126.485C38.1614 127.232 38.3845 127.232 38.3845 127.989C38.3845 128.747 38.3845 128.737 38.3845 129.484C38.3845 130.232 38.6464 130.232 38.6464 130.979C38.6464 131.726 38.3069 131.726 38.3069 132.474C38.3069 133.221 38.1226 133.221 38.1226 133.978C38.1226 134.735 38.6367 134.726 38.6367 135.473C38.6367 136.22 38.6659 136.22 38.6659 136.968C38.6659 137.715 38.5009 137.715 38.5009 138.462C38.5009 139.21 38.1905 139.21 38.1905 139.967C38.1905 140.724 38.2875 140.714 38.2875 141.462C38.2875 142.209 38.2002 142.209 38.2002 142.966C38.2002 143.723 38.3069 143.714 38.3069 144.471C38.3069 145.228 38.5397 145.218 38.5397 145.975C38.5397 146.732 38.6464 146.723 38.6464 147.47C38.6464 148.217 38.5979 148.217 38.5979 148.965C38.5979 149.712 38.6367 149.712 38.6367 150.469C38.6367 151.226 38.4233 151.217 38.4233 151.974C38.4233 152.731 38.142 152.721 38.142 153.478C38.142 154.235 38.433 154.226 38.433 154.983C38.433 155.74 38.6464 155.73 38.6464 156.487C38.6464 157.244 38.4718 157.244 38.4718 157.992C38.4718 158.739 38.3166 158.749 38.3166 159.496C38.3166 160.243 38.045 160.253 38.045 161.001C38.045 161.932 38.4912 161.719 39.4128 162.291C39.8106 162.534 40.2374 163.087 41.0523 163.087C41.8672 163.087 42.5075 162.884 42.9052 162.641C43.8365 162.068 43.9918 161.932 43.9918 161.001C43.9918 160.302 43.6134 160.302 43.6134 159.603C43.6134 158.904 43.8948 158.904 43.8948 158.205C43.8948 157.506 43.5649 157.506 43.5649 156.807C43.5649 156.109 44.0694 156.109 44.0694 155.41C44.0694 154.711 43.691 154.711 43.691 154.012C43.691 153.313 43.3321 153.168 43.7686 152.614C44.2343 152.012 44.5641 152.614 45.2917 152.381C46.0193 152.148 45.8447 151.605 46.5723 151.382C47.2998 151.158 47.4066 151.508 48.1341 151.275C48.8617 151.042 48.8811 151.1 49.6087 150.867C50.3363 150.634 50.3363 150.634 51.0639 150.401C51.7915 150.168 51.7624 150.081 52.49 149.848C53.2175 149.615 53.2854 149.848 54.013 149.605C54.7406 149.363 54.76 149.45 55.4876 149.217C56.2152 148.984 56.0406 148.441 56.7681 148.208C57.4957 147.975 57.6024 148.305 58.33 148.081C59.0576 147.858 58.9509 147.528 59.6785 147.295C60.4061 147.062 60.4643 147.237 61.1918 147.004C61.9194 146.771 61.8709 146.625 62.5985 146.393C63.3261 146.16 63.3261 146.179 64.0537 145.946C64.7813 145.713 64.7425 145.597 65.47 145.373C66.1976 145.15 66.4014 145.781 67.1289 145.548C67.8565 145.315 67.6722 144.733 68.3998 144.5C69.1274 144.267 69.1371 144.306 69.8647 144.073C70.5922 143.84 70.7378 144.306 71.4653 144.073C72.1929 143.84 72.1347 143.665 72.872 143.432C73.6093 143.199 73.6384 143.316 74.366 143.083C75.0936 142.85 75.113 142.015 75.7047 142.51C76.3547 143.054 75.5495 143.277 75.5495 144.112C75.5495 144.946 76.0831 144.956 76.0831 145.8C76.0831 146.645 75.86 146.645 75.86 147.489C75.86 148.334 75.8211 148.334 75.8211 149.178C75.8211 150.11 75.6368 150.343 76.5681 150.906C76.9659 151.149 77.6644 150.954 78.4793 150.954C79.2942 150.954 79.9247 151.032 80.3225 150.789C81.2538 150.217 81.2247 150.1 81.2247 149.178C81.2247 148.411 81.4575 148.411 81.4575 147.645C81.4575 146.878 80.8754 146.878 80.8754 146.111C80.8754 145.344 81.1374 145.344 81.1374 144.577C81.1374 143.811 80.9821 143.811 80.9821 143.044C80.9821 142.277 81.3508 142.277 81.3508 141.52C81.3508 140.763 81.4769 140.753 81.4769 139.996C81.4769 139.239 81.3605 139.229 81.3605 138.462C81.3605 137.696 80.9725 137.696 80.9725 136.939C80.9725 136.182 80.8657 136.172 80.8657 135.415C80.8657 134.658 81.4284 134.648 81.4284 133.891C81.4284 133.134 81.3896 133.124 81.3896 132.367C81.3896 131.61 81.1859 131.6 81.1859 130.843C81.1859 130.086 80.8948 130.076 80.8948 129.309C80.8948 128.543 81.05 128.543 81.05 127.776C81.05 127.009 80.9336 127.009 80.9336 126.242C80.9336 125.475 81.0113 125.475 81.0113 124.718C81.0113 123.961 81.1568 123.952 81.1568 123.185C81.1568 122.418 80.9725 122.418 80.9725 121.651C80.9725 120.884 81.3993 120.884 81.3993 120.118C81.3993 119.351 80.9142 119.351 80.9142 118.584C80.9142 117.817 81.2441 117.817 81.2441 117.05C81.2441 116.284 81.1568 116.284 81.1568 115.517C81.1568 114.75 81.1277 114.75 81.1277 113.983C81.1277 113.216 80.9239 113.216 80.9239 112.45C80.9239 111.683 81.4769 111.683 81.4769 110.916C81.4769 110.149 81.3605 110.149 81.3605 109.382C81.3605 108.616 81.0986 108.616 81.0986 107.849C81.0986 107.082 81.1665 107.082 81.1665 106.315C81.1665 105.548 80.9142 105.548 80.9142 104.782C80.9142 104.015 81.506 104.015 81.506 103.248C81.506 102.481 81.3411 102.481 81.3411 101.714C81.3411 100.948 81.1471 100.948 81.1471 100.181C81.1471 99.4141 81.312 99.4141 81.312 98.6473C81.312 97.8805 81.4187 97.8805 81.4187 97.1137C81.4187 96.3469 81.1665 96.3469 81.1665 95.5704C81.1665 94.7939 82.0008 94.2795 81.409 93.7844C80.8657 93.3282 80.5165 94.1921 79.8374 94.4056C79.1583 94.6192 79.1098 94.4639 78.4405 94.6677C77.7711 94.8715 77.8487 95.0463 77.1308 95.0657C76.2674 95.0851 75.9376 94.9298 75.5204 95.5024L75.4816 95.5413ZM44.0306 146.587C43.4 146.13 43.885 146.063 43.885 145.286C43.885 144.51 43.9433 144.51 43.9433 143.733C43.9433 142.957 43.8559 142.957 43.8559 142.18C43.8559 141.404 44.1179 141.404 44.1179 140.627C44.1179 139.85 43.5358 139.851 43.5358 139.074C43.5358 138.297 44.1761 138.297 44.1761 137.521C44.1761 136.744 44.0694 136.744 44.0694 135.968C44.0694 135.191 43.5746 135.191 43.5746 134.415C43.5746 133.638 44.0985 133.638 44.0985 132.862C44.0985 132.085 43.9821 132.085 43.9821 131.309C43.9821 130.532 44.1567 130.532 44.1567 129.756C44.1567 128.979 43.953 128.979 43.953 128.193C43.953 127.407 43.3709 127.252 43.8268 126.621C44.2828 125.99 44.6611 126.631 45.3984 126.407C46.1357 126.184 46.1066 126.087 46.8439 125.854C47.5812 125.621 47.4648 125.262 48.2118 125.029C48.9587 124.796 48.9781 124.893 49.7154 124.66C50.4527 124.427 50.5109 124.602 51.2482 124.369C51.9855 124.136 51.8788 123.787 52.6161 123.554C53.3533 123.321 53.3825 123.398 54.1197 123.165C54.857 122.932 54.9637 123.262 55.701 123.029C56.4383 122.797 56.3413 122.467 57.0786 122.234C57.8159 122.001 57.8159 121.981 58.5532 121.748C59.2904 121.515 59.3486 121.69 60.0859 121.457C60.8232 121.224 60.9202 121.535 61.6672 121.302C62.4142 121.069 62.2881 120.69 63.0254 120.467C63.7627 120.244 63.7626 120.215 64.4999 119.991C65.2372 119.768 65.2663 119.856 66.0133 119.623C66.7603 119.39 66.7506 119.38 67.4879 119.147C68.2252 118.914 68.361 119.331 69.0983 119.098C69.8356 118.865 69.7191 118.497 70.4661 118.264C71.2131 118.031 71.1355 117.808 71.8728 117.575C72.6101 117.342 72.7071 117.642 73.4541 117.41C74.2011 117.177 74.1526 117.05 74.8995 116.817C75.6465 116.585 75.7921 116.002 76.4226 116.458C77.0532 116.915 76.2771 117.235 76.2771 118.011C76.2771 118.788 76.3741 118.788 76.3741 119.564C76.3741 120.341 76.4129 120.341 76.4129 121.117C76.4129 121.894 76.7039 121.894 76.7039 122.67C76.7039 123.447 76.7428 123.447 76.7428 124.223C76.7428 125 76.3256 125 76.3256 125.776C76.3256 126.553 76.5584 126.553 76.5584 127.329C76.5584 128.106 76.0831 128.106 76.0831 128.882C76.0831 129.659 76.6457 129.659 76.6457 130.435C76.6457 131.212 76.2383 131.212 76.2383 131.988C76.2383 132.765 76.1801 132.765 76.1801 133.541C76.1801 134.318 76.6069 134.318 76.6069 135.104C76.6069 135.89 76.7136 135.91 76.248 136.541C75.7823 137.172 75.7338 137.084 74.9966 137.317C74.2593 137.55 74.2399 137.502 73.5026 137.735C72.7653 137.967 72.6877 137.725 71.9504 137.958C71.2131 138.191 71.3101 138.521 70.5728 138.754C69.8356 138.987 69.855 139.045 69.108 139.268C68.361 139.491 68.2931 139.239 67.5461 139.472C66.7991 139.705 66.8864 139.957 66.1491 140.19C65.4118 140.423 65.2954 140.045 64.5484 140.278C63.8015 140.511 63.7724 140.394 63.0351 140.627C62.2978 140.86 62.4336 141.297 61.6866 141.53C60.9396 141.763 60.8232 141.365 60.0859 141.598C59.3486 141.831 59.4068 142.044 58.6696 142.277C57.9323 142.51 57.9323 142.51 57.195 142.743C56.4577 142.976 56.5353 143.219 55.798 143.452C55.0607 143.684 54.954 143.354 54.2168 143.587C53.4795 143.82 53.4213 143.646 52.684 143.879C51.9467 144.112 52.0922 144.597 51.3549 144.83C50.6176 145.063 50.6176 145.092 49.8803 145.325C49.1431 145.558 49.0946 145.402 48.3476 145.635C47.6006 145.868 47.5133 145.577 46.7663 145.81C46.0193 146.043 45.9902 146.004 45.3014 146.373C44.6611 146.713 44.6514 147.082 44.0209 146.625L44.0306 146.587Z" fill="black"/>
</g>
</g>
</g>
</g>
</g>
<path d="M117.158 124.431C117.158 124.431 116.684 125.503 114.479 125.503C112.274 125.503 111.655 124.431 111.655 124.431V51.9567C111.655 30.76 100.514 10.5484 86.8097 6.9078C82.2159 5.68139 77.7961 6.56981 74.0147 9.46684C67.3513 14.5753 63.3764 25.1108 63.3764 37.655V56.3119C63.3764 56.3119 62.9799 57.461 60.6008 57.461C58.2216 57.461 57.8638 56.3119 57.8638 56.3119V37.655C57.8638 23.4209 62.6414 11.2533 70.6491 5.10198C75.8329 1.12339 81.9064 -0.0933653 88.212 1.58691C104.44 5.90349 117.148 28.0272 117.148 51.9567V124.431H117.158Z" fill="#E93F46"/>
<path d="M61.2683 39.084V57.4126C63.0478 57.2195 63.3863 56.3021 63.3863 56.3021V37.6452C63.3863 35.8104 63.483 34.0142 63.6474 32.276C63.6668 32.0346 63.6958 31.7932 63.7248 31.5614C63.7635 31.2331 63.7925 30.8951 63.8408 30.5667C64.3921 26.2019 65.4366 22.4357 66.8292 19.2587C66.8969 19.0945 66.9743 18.9303 67.042 18.7758C67.1581 18.5247 67.2741 18.2833 67.3902 18.0323C69.1116 14.4496 71.3457 11.5139 74.0246 9.45704C74.6919 8.94523 75.3882 8.52033 76.0942 8.13406C76.3263 7.99886 76.5585 7.87333 76.7906 7.75745C76.8873 7.70916 76.9937 7.66088 77.0904 7.61259C78.5894 6.90765 80.1078 6.49241 81.5971 6.37653C64.953 7.07181 61.2683 27.998 61.2683 39.0744V39.084Z" fill="#133250"/>
<path d="M81.5873 6.38652C81.8678 6.3768 82.1386 6.35736 82.4287 6.35736C82.1482 6.35736 81.8678 6.36708 81.5873 6.38652Z" fill="#133250"/>
<path d="M79.1791 135.507C79.1791 135.507 78.773 136.579 76.5196 136.579C74.2662 136.579 73.6762 135.507 73.6762 135.507V63.0233C73.6762 41.8267 62.535 21.615 48.8309 17.9744C44.2371 16.748 39.8174 17.6365 36.036 20.5335C29.3725 25.6419 25.3976 36.1775 25.3976 48.7216V67.3785C25.3976 67.3785 25.0592 68.7981 22.68 68.7981C20.3009 68.7981 19.8947 67.3785 19.8947 67.3785V48.7216C19.8947 34.4875 24.6723 22.32 32.6801 16.1686C37.8638 12.19 43.9373 10.9733 50.2429 12.6536C66.4712 16.9701 79.1791 39.0938 79.1791 63.0233V135.497V135.507Z" fill="#E93F46"/>
<path d="M23.2315 50.1796V68.7496C25.0981 68.5468 25.3979 67.3687 25.3979 67.3687V51.802L25.3689 48.7215C25.3689 38.4756 27.8544 30.7599 31.423 25.5549C32.7673 23.5559 34.3147 21.8563 36.0362 20.5333C36.6648 20.0505 37.3128 19.6449 37.9801 19.278C38.2412 19.1235 38.512 18.9883 38.7731 18.8531C38.8892 18.7951 39.0053 18.7372 39.1213 18.6889C40.601 18.0033 42.0904 17.5977 43.5507 17.4915C26.9066 18.1867 23.2219 39.113 23.2219 50.1893L23.2315 50.1796Z" fill="#133250"/>
<path d="M43.5606 17.4822C43.8411 17.4724 44.1119 17.453 44.402 17.453C44.1216 17.453 43.8411 17.4627 43.5606 17.4822Z" fill="#133250"/>
<defs>
<clipPath id="clip0_1249_3389">
<rect width="168" height="168" fill="white" transform="translate(0 15)"/>
</clipPath>
</defs>
</svg>
