<svg width="16" height="16" viewBox="0 0 16 16" fill="none" xmlns="http://www.w3.org/2000/svg">
<path d="M5.08331 6.74992C5.08331 7.52347 5.3906 8.26533 5.93758 8.81231C6.48457 9.3593 7.22643 9.66659 7.99998 9.66659C8.77353 9.66659 9.51539 9.3593 10.0624 8.81231C10.6094 8.26533 10.9166 7.52347 10.9166 6.74992C10.9166 5.97637 10.6094 5.23451 10.0624 4.68752C9.51539 4.14054 8.77353 3.83325 7.99998 3.83325C7.22643 3.83325 6.48457 4.14054 5.93758 4.68752C5.3906 5.23451 5.08331 5.97637 5.08331 6.74992V6.74992Z" stroke="#133250" stroke-width="1.5" stroke-linecap="round" stroke-linejoin="round"/>
<path d="M11.8405 12.9311C11.3373 12.4247 10.7389 12.0229 10.0798 11.7487C9.42071 11.4744 8.71387 11.3333 7.99998 11.3333C7.28609 11.3333 6.57925 11.4744 5.92014 11.7487C5.26102 12.0229 4.66264 12.4247 4.15942 12.9311" stroke="#133250" stroke-width="1.5" stroke-linecap="round" stroke-linejoin="round"/>
<path d="M1.75 8C1.75 9.6576 2.40848 11.2473 3.58058 12.4194C4.75269 13.5915 6.3424 14.25 8 14.25C9.6576 14.25 11.2473 13.5915 12.4194 12.4194C13.5915 11.2473 14.25 9.6576 14.25 8C14.25 6.3424 13.5915 4.75269 12.4194 3.58058C11.2473 2.40848 9.6576 1.75 8 1.75C6.3424 1.75 4.75269 2.40848 3.58058 3.58058C2.40848 4.75269 1.75 6.3424 1.75 8V8Z" stroke="#133250" stroke-width="1.5" stroke-linecap="round" stroke-linejoin="round"/>
</svg>
