<svg width="20" height="20" viewBox="0 0 20 20" fill="none" xmlns="http://www.w3.org/2000/svg">
<path d="M2.2619 11.7857H17.7381V14.1667C17.7381 15.1139 17.3618 16.0223 16.692 16.692C16.0223 17.3618 15.1139 17.7381 14.1667 17.7381H5.83333C4.88613 17.7381 3.97772 17.3618 3.30795 16.692C2.63818 16.0223 2.2619 15.1139 2.2619 14.1667V11.7857Z" stroke="#133250" stroke-width="1.5" stroke-linecap="round" stroke-linejoin="round"/>
<path d="M10.5952 4.64285C10.5952 4.01139 10.3444 3.40578 9.89785 2.95927C9.45134 2.51275 8.84573 2.2619 8.21427 2.2619C7.5828 2.2619 6.97719 2.51275 6.53068 2.95927C6.08416 3.40578 5.83331 4.01139 5.83331 4.64285V11.7857" stroke="#133250" stroke-width="1.5" stroke-linecap="round" stroke-linejoin="round"/>
<path d="M10.5952 7.0238V8.21428" stroke="#133250" stroke-width="1.5" stroke-linecap="round" stroke-linejoin="round"/>
</svg>
