<svg width="24" height="24" viewBox="0 0 24 24" fill="none" xmlns="http://www.w3.org/2000/svg">
<g clip-path="url(#clip0_1247_8773)">
<path d="M21.2857 9.14286C21.2857 8.76398 21.1352 8.40062 20.8673 8.13271C20.5994 7.8648 20.236 7.71429 19.8572 7.71429H17L14.8572 4.85715H9.14287L7.00001 7.71429H4.14287C3.76399 7.71429 3.40062 7.8648 3.13271 8.13271C2.8648 8.40062 2.71429 8.76398 2.71429 9.14286V17.7143C2.71429 18.0932 2.8648 18.4565 3.13271 18.7244C3.40062 18.9924 3.76399 19.1429 4.14287 19.1429H19.8572C20.236 19.1429 20.5994 18.9924 20.8673 18.7244C21.1352 18.4565 21.2857 18.0932 21.2857 17.7143V9.14286Z" stroke="#133250" stroke-width="1.5" stroke-linecap="round" stroke-linejoin="round"/>
<path d="M12 15.9286C13.7752 15.9286 15.2143 14.4895 15.2143 12.7143C15.2143 10.9391 13.7752 9.5 12 9.5C10.2248 9.5 8.78574 10.9391 8.78574 12.7143C8.78574 14.4895 10.2248 15.9286 12 15.9286Z" stroke="#133250" stroke-width="1.5" stroke-linecap="round" stroke-linejoin="round"/>
</g>
<defs>
<clipPath id="clip0_1247_8773">
<rect width="20" height="20" fill="white" transform="translate(2 2)"/>
</clipPath>
</defs>
</svg>
