<svg width="16" height="16" viewBox="0 0 16 16" fill="none" xmlns="http://www.w3.org/2000/svg">
<path d="M7.99999 1.80933C6.88021 1.80968 5.78151 2.11375 4.82088 2.68915C3.86026 3.26455 3.0737 4.08974 2.54497 5.07683C2.01625 6.06391 1.76516 7.17592 1.81845 8.29443C1.87174 9.41293 2.22742 10.496 2.8476 11.4284L1.80951 14.1903L5.2857 13.5617C6.12276 13.9708 7.04134 14.1856 7.97298 14.1902C8.90462 14.1948 9.82529 13.9891 10.6664 13.5884C11.5074 13.1876 12.2472 12.6022 12.8305 11.8758C13.4138 11.1493 13.8257 10.3006 14.0353 9.39286C14.245 8.4851 14.247 7.54173 14.0414 6.63307C13.8357 5.7244 13.4275 4.87389 12.8474 4.14491C12.2672 3.41594 11.53 2.82732 10.6907 2.42292C9.8514 2.01852 8.93164 1.80878 7.99999 1.80933V1.80933Z" stroke="#133250" stroke-width="1.5" stroke-linecap="round" stroke-linejoin="round"/>
</svg>
