<svg width="13" height="13" viewBox="0 0 13 13" fill="none" xmlns="http://www.w3.org/2000/svg">
<path d="M5.90477 2.90479H3.2381C2.83396 2.90479 2.44638 3.06533 2.16061 3.3511C1.87484 3.63687 1.71429 4.02446 1.71429 4.42859V9.76193C1.71429 10.1661 1.87484 10.5537 2.16061 10.8394C2.44638 11.1252 2.83396 11.2857 3.2381 11.2857H8.57144C8.97558 11.2857 9.36316 11.1252 9.64893 10.8394C9.9347 10.5537 10.0952 10.1661 10.0952 9.76193V7.09526" stroke="#133250" stroke-width="1.5" stroke-linecap="round" stroke-linejoin="round"/>
<path d="M9.71427 5.19038C10.7662 5.19038 11.619 4.33759 11.619 3.28562C11.619 2.23365 10.7662 1.38086 9.71427 1.38086C8.6623 1.38086 7.80951 2.23365 7.80951 3.28562C7.80951 4.33759 8.6623 5.19038 9.71427 5.19038Z" stroke="#133250" stroke-width="1.5" stroke-linecap="round" stroke-linejoin="round"/>
</svg>
