<svg version="1.0" xmlns="http://www.w3.org/2000/svg" width="666.667" height="666.667" viewBox="0 0 500 500"><path d="M232 .6c-1.9.2-7.8.9-13 1.5-46.7 5.3-94.6 26.5-131.5 58.1C40.4 100.6 10.6 155.9 1.9 219c-1.7 12.2-1.8 49.7-.1 61.5 5.8 41.2 18.5 75.1 40.7 108.5 39.7 59.8 103.2 99 176.5 109.1 12.2 1.7 49.7 1.8 61.5.1 41.2-5.8 75.1-18.5 108.5-40.7 59.8-39.7 99-103.2 109.1-176.5 1.7-12.2 1.8-49.7.1-61.5-5.8-41.2-18.5-75.1-40.7-108.5-39.1-58.8-101.6-98.1-173-108.6C274.9 1 239.2-.3 232 .6zM202.8 61c2 1.2 4.1 3.8 5.2 6.3 2.6 5.9 13.1 47 13.3 52.1.3 7.1-5.1 12.7-13.4 14.1-4.9.8-10.2-1.6-12.8-5.9-3-4.8-19.1-46.5-19.7-51.2-.6-4.2 1-8.8 4-11.3 2.8-2.3 13-6.1 16.6-6.1 1.9 0 5 .9 6.8 2zm106.2-.5c9.5 1.9 16 7.5 16 13.9 0 2.9-14.4 41.4-18.5 49.6-3 5.9-6.4 8.9-10.9 9.7-4.4.7-11.3-1.7-14.5-5.1-3.9-4.1-3.6-7.7 1.9-29.1 7-27.3 8.7-32.8 11.1-35.9 2-2.6 7.1-4.7 9.9-4.1.8.2 3.1.7 5 1zm-181.6 41.2c29.4 19.9 48.2 48.3 56.2 84.8 2.4 11.2 2.4 36.8 0 48.9-.9 4.9-1.4 9.2-.9 9.5.4.4 4 3.3 8 6.5 56.8 45.5 74.9 124.5 43.7 190.5l-4.4 9.4-6.3-.6c-5.7-.5-22.8-3.6-23.5-4.2-.2-.2 1.7-3.8 4.2-8.2 18.2-31.5 22-72.7 9.9-106.7-15.9-44.8-54.6-77.3-101.2-85.1-15.6-2.6-36.8-1.7-52.1 2.3-6.3 1.6-11.7 2.8-11.9 2.6-.6-.6 1.8-28.4 2.5-29.5.3-.5 1.9-.9 3.5-.9 3.5 0 7.5-3.5 8.5-7.5.9-3.6-1.9-9.3-5.1-10.5-1.4-.5-2.5-1.7-2.5-2.6 0-3 7.3-23.6 8.5-24.1.7-.2 3.5.7 6.1 2 12.6 6.5 19.6 17.2 20.3 30.9l.3 7.8 8.4.1c4.6.1 9 .2 9.7.3 1.9.2 1.2-14.5-1.2-22.3-4.4-14.4-15.6-27.8-28.6-34.2-4-1.9-6.4-3.7-6.1-4.5.5-1.4 10.8-18.1 12.8-20.8 1.4-1.8 1.6-1.8 5.9.4 14 7.1 27 19.4 34.8 33 8.1 14.1 11.3 26.3 11.3 43.2 0 11.1.1 11.6 2.2 12.1 1.1.2 5.1 1.6 8.9 3 3.7 1.4 6.7 2.3 6.7 1.9 0-.4.4-4.6.9-9.4 1.7-15.3-1.4-35.1-7.6-49.1-9-20.5-26.3-40-44.1-49.5l-5.7-3.1 10.3-10c5.7-5.6 10.7-10.1 11.2-10.1.4 0 3.3 1.7 6.4 3.7zm277.3 25.2c1.7 1.1 5.1 4.6 7.5 7.7 3.8 5.1 4.3 6.3 4.3 11 0 7.1-1.8 8.8-23.9 23.1-27.7 17.8-29.8 18.6-36.7 14-7.6-5.1-9.9-14.8-4.7-20.4 3.1-3.5 38.5-33.1 42.3-35.4 3.8-2.4 7.2-2.4 11.2 0zm-130.5 27.5C318.8 165.8 350 206 350 252c0 37.7-21.7 72.8-55.7 89.9-5.6 2.8-21.8 8.1-24.7 8.1-.6 0-2.1-4.7-3.4-11.3-7.4-36.3-25.2-68.2-52.6-94.4l-9.6-9.2 1.2-12.2c1.4-14.6.1-32.2-3.7-47.4l-2.4-10 2.2-1.7c2.8-2.2 16-7.4 23.7-9.4 15.6-4 33.6-4 49.2 0zm172.1 84.5c3.1 3 3.2 3.4 3.5 12.9.4 9.4.3 10-2.3 13-4.2 5-7.9 5.5-30.3 4.2-33.8-1.9-37.7-2.8-40.9-9.1-1.7-3.2-1.6-10.2.1-14.2 2.6-6.3 4.5-6.8 31.5-8.8 31.8-2.3 34.3-2.2 38.4 2zm-328.8 33.6c37.2 9.3 66.3 38.5 76.7 76.9 1.9 6.8 2.2 10.8 2.3 25.1 0 18.6-1.4 26.4-7.4 40.5-3.4 7.9-11.2 21.1-13.4 22.4-1.1.7-4.7-.6-13.6-4.9-6.7-3.2-12.1-6-12.1-6.2 0-.2 2-3 4.5-6.4 5.9-8.1 10.1-17 12.7-27.1 3-11.9 2.3-30.9-1.6-42.3-10.2-30.2-37.1-51-69-53.2-9.9-.6-23.7 1.6-33.1 5.3-3.6 1.5-6.8 2.4-7.1 2.1-.6-.6-5.4-23.4-5.4-25.8 0-2.1 13-6.5 24.9-8.4 12.1-2 29-1.2 41.6 2zm248.9 47.9c5.3 2.2 42.9 26.3 46.4 29.7 3.7 3.7 4.6 6 3.8 10.2-.9 4.3-7.5 13.7-11.6 16.4-6.7 4.6-10.5 2.8-33.2-15.7-19.6-16-23.5-19.9-24.3-24.3-.8-4.1 1.7-9.8 6.2-13.8 4.5-4.2 7.3-4.8 12.7-2.5zm-260.9 3.1c17.6 4.6 31.8 18.7 37 36.8 2.4 8.4 2.2 21.7-.5 29.8-2.4 7.2-4.8 11.5-9.7 17.7l-3.5 4.2-4.1-3.2c-2.3-1.8-6.9-5.9-10.4-9.1l-6.2-5.8 3.4-4.5c11.9-15.5 2.9-37-16.5-39.9-3.4-.5-6.1-.1-10.5 1.4-3.3 1.2-6.4 2.2-6.9 2.4-.9.2-12.6-21.8-12.6-23.6 0-1 10-5.5 14.9-6.6 5.9-1.5 19.3-1.2 25.6.4zM300 371.7c3.8 2.2 5.7 5.8 13.9 26.4 12.2 30.6 12.5 32.5 7.9 38.5-2.5 3.2-11.3 7.3-17.2 8-4.6.6-9.3-1.7-12-5.9-2.1-3.1-13.5-45.7-14.2-52.7-.4-4.5-.1-6.1 1.6-8.8 3.8-6.1 14.2-9 20-5.5z"/></svg>