<svg width="18" height="18" viewBox="0 0 18 18" fill="none" xmlns="http://www.w3.org/2000/svg">
<path d="M6.75009 12.8571L6.39653 12.5035L3.77153 9.87854C3.6743 9.78131 3.52588 9.78131 3.42864 9.87854C3.3314 9.97578 3.3314 10.1242 3.42864 10.2214L6.57114 13.3639C6.66838 13.4612 6.8243 13.4612 6.92153 13.3639L6.9217 13.3638L14.8715 5.42144L6.75009 12.8571ZM6.75009 12.8571L7.10364 12.5035M6.75009 12.8571L7.10364 12.5035M7.10364 12.5035L14.5286 5.07854C14.6259 4.98131 14.7743 4.98131 14.8715 5.07854L15.2199 4.73022M7.10364 12.5035L15.2199 4.73022M15.2199 4.73022L14.8715 5.07854M15.2199 4.73022L14.8715 5.07854M14.8715 5.07854C14.9687 5.17573 14.9688 5.32403 14.8717 5.42127L14.8715 5.07854Z" fill="white" stroke="white"/>
</svg>
