<svg width="72" height="72" viewBox="0 0 72 72" fill="none" xmlns="http://www.w3.org/2000/svg">
<path fill-rule="evenodd" clip-rule="evenodd" d="M36 66C52.5685 66 66 52.5685 66 36C66 19.4315 52.5685 6 36 6C19.4315 6 6 19.4315 6 36C6 52.5685 19.4315 66 36 66ZM50.1213 29.1213C51.2929 27.9497 51.2929 26.0503 50.1213 24.8787C48.9497 23.7071 47.0503 23.7071 45.8787 24.8787L30 40.7574L26.1213 36.8787C24.9497 35.7071 23.0503 35.7071 21.8787 36.8787C20.7071 38.0503 20.7071 39.9497 21.8787 41.1213L27.8787 47.1213C29.0503 48.2929 30.9497 48.2929 32.1213 47.1213L50.1213 29.1213Z" fill="#009F53"/>
</svg>
