<svg width="66" height="101" viewBox="0 0 66 101" fill="none" xmlns="http://www.w3.org/2000/svg">
<rect width="66" height="100.571" fill="#F4F4F7"/>
<g clip-path="url(#clip0_2896_18515)">
<path d="M23.1926 34.1094H32.9341C35.3037 34.1094 38.429 34.1094 40.0429 35.0975C41.8127 36.1593 43.2023 38.0912 43.2023 40.7507C43.2023 43.6313 41.7006 45.7943 39.214 46.8168V46.8955C42.5246 47.5788 44.3286 50.0809 44.3286 53.4188C44.3286 57.4006 41.5056 61.1956 36.1667 61.1956H23.1877V34.1143L23.1926 34.1094ZM26.7664 45.755H33.919C37.9805 45.755 39.6382 44.2753 39.6382 41.4291C39.6382 37.6734 37.0053 37.1424 33.919 37.1424H26.7664V45.7501V45.755ZM26.7664 58.1576H35.723C38.8045 58.1576 40.7645 56.2601 40.7645 53.3057C40.7645 49.7761 37.9415 48.793 34.9332 48.793H26.7713V58.1626L26.7664 58.1576Z" fill="black"/>
<path d="M53.4706 47.6575C53.4706 59.0328 44.3239 68.2549 33.0367 68.2549C21.7495 68.2549 12.6076 59.0377 12.6076 47.6575C12.6076 36.2774 21.7544 27.0602 33.0367 27.0602C44.319 27.0602 53.4706 36.2823 53.4706 47.6575ZM33.0367 23.9189C20.043 23.9189 9.50671 34.5421 9.50671 47.6477C9.50671 60.7533 20.043 71.3715 33.0367 71.3715C46.0304 71.3715 56.5716 60.7484 56.5716 47.6477C56.5716 34.547 46.0352 23.9239 33.0367 23.9239V23.9189Z" fill="black"/>
<path d="M56.5213 76.376H9.55402V79.4877H56.5213V76.376Z" fill="black"/>
<path d="M55.0538 72.9495C55.1123 72.9495 55.1659 72.9495 55.2196 72.9446C55.2683 72.9446 55.3171 72.9299 55.3561 72.9151C55.4 72.8954 55.4292 72.866 55.4536 72.8315C55.478 72.7922 55.4877 72.7431 55.4877 72.6792C55.4877 72.6251 55.478 72.5759 55.4585 72.5464C55.439 72.512 55.4097 72.4874 55.3756 72.4727C55.3415 72.453 55.3073 72.4432 55.2586 72.4334C55.2147 72.4334 55.1757 72.4284 55.1269 72.4284H54.7905V72.9544H55.0587L55.0538 72.9495ZM55.1659 72.2171C55.361 72.2171 55.5023 72.2564 55.5999 72.335C55.6925 72.4137 55.7413 72.5317 55.7413 72.6939C55.7413 72.8463 55.6974 72.9495 55.6194 73.0233C55.5365 73.0921 55.4341 73.1314 55.3073 73.1462L55.7754 73.8737H55.5024L55.0538 73.1609H54.7856V73.8737H54.5272V72.222H55.1659V72.2171ZM54.0104 73.5148C54.064 73.6623 54.1469 73.795 54.2542 73.9032C54.3566 74.0113 54.4785 74.0949 54.6199 74.1588C54.7564 74.2178 54.9124 74.2473 55.0733 74.2473C55.2342 74.2473 55.3902 74.2178 55.5267 74.1588C55.6681 74.0949 55.79 74.0113 55.8924 73.9032C55.9948 73.795 56.0777 73.6672 56.1313 73.5148C56.1898 73.3674 56.224 73.2101 56.224 73.038C56.224 72.866 56.1947 72.7087 56.1313 72.5612C56.0728 72.4137 55.9899 72.2859 55.8924 72.1777C55.7851 72.0696 55.6632 71.986 55.5267 71.927C55.3902 71.868 55.2342 71.8336 55.0733 71.8336C54.9124 71.8336 54.7564 71.868 54.6199 71.927C54.4785 71.9909 54.3517 72.0745 54.2542 72.1777C54.1469 72.2859 54.0689 72.4137 54.0104 72.5612C53.9519 72.7087 53.9226 72.861 53.9226 73.038C53.9226 73.215 53.9519 73.3674 54.0104 73.5148ZM53.7764 72.4776C53.8495 72.3056 53.9519 72.163 54.0787 72.0352C54.2054 71.9074 54.3566 71.814 54.5272 71.7402C54.6979 71.6665 54.8831 71.6321 55.0684 71.6321C55.2537 71.6321 55.4438 71.6665 55.6194 71.7402C55.7851 71.814 55.9363 71.9074 56.0582 72.0352C56.1849 72.163 56.2922 72.3105 56.3605 72.4776C56.4385 72.6497 56.4726 72.8365 56.4726 73.038C56.4726 73.2396 56.4385 73.4264 56.3605 73.5984C56.2873 73.7754 56.1849 73.9229 56.0582 74.0507C55.9314 74.1834 55.7851 74.2768 55.6194 74.3505C55.4438 74.4194 55.2634 74.4538 55.0684 74.4538C54.8734 74.4538 54.6979 74.4194 54.5272 74.3505C54.3566 74.2768 54.2054 74.1834 54.0787 74.0507C53.9519 73.9229 53.8495 73.7754 53.7764 73.5984C53.6984 73.4264 53.6691 73.2396 53.6691 73.038C53.6691 72.8365 53.6984 72.6497 53.7764 72.4776Z" fill="black"/>
<path d="M15.2451 13.4874C15.133 13.3055 14.9965 13.1482 14.8307 13.0155C14.6649 12.8778 14.4748 12.7746 14.2651 12.6959C14.0555 12.6222 13.8361 12.5829 13.6069 12.5829C13.1876 12.5829 12.8317 12.6664 12.5343 12.8287C12.2417 12.9909 12.0028 13.2121 11.8224 13.4874C11.642 13.7627 11.5055 14.0773 11.4226 14.4312C11.3397 14.7852 11.2958 15.1489 11.2958 15.5225C11.2958 15.8961 11.3349 16.2304 11.4226 16.5696C11.5055 16.9088 11.6371 17.2136 11.8224 17.4889C12.0028 17.7592 12.2417 17.9805 12.5343 18.1427C12.8268 18.3049 13.1827 18.3885 13.6069 18.3885C14.1774 18.3885 14.6259 18.2115 14.9429 17.8625C15.2646 17.5085 15.4597 17.0464 15.5328 16.4713H17.3417C17.2929 17.0071 17.171 17.4889 16.9711 17.9215C16.7712 18.3541 16.5128 18.7227 16.1861 19.0226C15.8595 19.3274 15.4792 19.5584 15.0452 19.7207C14.6113 19.878 14.1286 19.9615 13.6069 19.9615C12.9585 19.9615 12.3734 19.8485 11.8517 19.6174C11.33 19.3913 10.896 19.0767 10.5352 18.6736C10.1793 18.2754 9.90628 17.8035 9.71613 17.2627C9.52598 16.7269 9.42847 16.1468 9.42847 15.5225C9.42847 14.8982 9.5211 14.2887 9.71613 13.743C9.90628 13.1973 10.1793 12.7156 10.5352 12.3125C10.8912 11.9045 11.33 11.585 11.8517 11.3539C12.3685 11.1229 12.9536 11.0049 13.6069 11.0049C14.075 11.0049 14.5187 11.0737 14.9331 11.2064C15.3475 11.3441 15.723 11.5407 16.0496 11.8012C16.3763 12.0618 16.6493 12.3813 16.8639 12.7648C17.0784 13.1482 17.2149 13.5906 17.2685 14.0822H15.4597C15.4304 13.8659 15.3573 13.6693 15.2451 13.4874Z" fill="black"/>
<path d="M19.7739 18.2803C20.0274 18.526 20.3931 18.6539 20.866 18.6539C21.2073 18.6539 21.4999 18.5703 21.7485 18.3982C21.9923 18.2262 22.1435 18.0443 22.202 17.8526H23.6891C23.4501 18.5949 23.0845 19.1307 22.592 19.4502C22.0996 19.7697 21.5048 19.932 20.8075 19.932C20.3248 19.932 19.886 19.8533 19.5009 19.696C19.1108 19.5387 18.7841 19.3175 18.5111 19.0324C18.2429 18.7473 18.0333 18.4031 17.887 18C17.7407 17.6019 17.6676 17.1594 17.6676 16.6826C17.6676 16.2058 17.7407 15.7879 17.8919 15.3897C18.043 14.9916 18.2576 14.6425 18.5355 14.3525C18.8134 14.0625 19.1449 13.8314 19.5301 13.6643C19.9153 13.4971 20.3395 13.4136 20.8075 13.4136C21.3292 13.4136 21.7875 13.5168 22.1776 13.7184C22.5677 13.9248 22.8846 14.1952 23.1332 14.5393C23.3819 14.8834 23.5623 15.2767 23.6744 15.7142C23.7866 16.1517 23.8256 16.6138 23.7914 17.0955H19.3546C19.379 17.6461 19.5155 18.0492 19.769 18.295L19.7739 18.2803ZM21.6852 15.0161C21.4804 14.7949 21.1732 14.6819 20.7637 14.6819C20.4955 14.6819 20.2712 14.7261 20.0908 14.8195C19.9104 14.9129 19.769 15.026 19.6618 15.1587C19.5545 15.2963 19.4814 15.4389 19.4375 15.5913C19.3936 15.7437 19.3692 15.8764 19.3595 15.9993H22.1093C22.0313 15.5667 21.8899 15.2373 21.6852 15.0161Z" fill="black"/>
<path d="M26.1618 13.5661V14.7164H26.1862C26.2642 14.5247 26.3714 14.3477 26.508 14.1805C26.6445 14.0183 26.7956 13.8758 26.9711 13.7627C27.1467 13.6496 27.3319 13.5562 27.5318 13.4923C27.7317 13.4284 27.9365 13.3989 28.1511 13.3989C28.2632 13.3989 28.3851 13.4186 28.5216 13.4579V15.0408C28.4436 15.0261 28.3461 15.0113 28.2339 15.0015C28.1218 14.9917 28.0145 14.9818 27.9121 14.9818C27.605 14.9818 27.3417 15.0359 27.1272 15.1391C26.9126 15.2424 26.742 15.3849 26.6103 15.5668C26.4787 15.7487 26.3861 15.9552 26.3324 16.196C26.2788 16.4369 26.2495 16.6975 26.2495 16.9777V19.7748H24.5626V13.5661H26.1667H26.1618Z" fill="black"/>
<path d="M33.041 13.5662V14.7067H31.8025V17.7791C31.8025 18.0691 31.8513 18.2608 31.9439 18.3542C32.0366 18.4476 32.2316 18.4968 32.5144 18.4968C32.6119 18.4968 32.6997 18.4968 32.7874 18.4869C32.8752 18.4771 32.9581 18.4673 33.0361 18.4525V19.77C32.8947 19.7946 32.7338 19.8093 32.5583 19.8191C32.3827 19.829 32.2121 19.8339 32.0463 19.8339C31.783 19.8339 31.5344 19.8142 31.3052 19.7798C31.0712 19.7454 30.8664 19.6766 30.686 19.5684C30.5056 19.4652 30.3691 19.3177 30.2618 19.126C30.1594 18.9343 30.1058 18.6836 30.1058 18.369V14.7116H29.0819V13.5711H30.1058V11.708H31.7928V13.5662H33.0312H33.041Z" fill="black"/>
<path d="M34.0218 12.6076V11.2017H35.7088V12.6076H34.0218ZM35.7088 13.5662V19.765H34.0218V13.5662H35.7088Z" fill="black"/>
<path d="M36.3805 14.7067V13.5662H37.3898V13.0844C37.3898 12.5339 37.5604 12.0816 37.9017 11.7277C38.243 11.3737 38.7598 11.2017 39.4473 11.2017C39.5984 11.2017 39.7496 11.2066 39.9007 11.2213C40.0519 11.2312 40.1981 11.2459 40.3395 11.2508V12.524C40.1396 12.4994 39.9349 12.4896 39.7203 12.4896C39.4912 12.4896 39.3254 12.5437 39.2279 12.6518C39.1304 12.76 39.0816 12.9419 39.0816 13.1975V13.5711H40.2469V14.7116H39.0816V19.7749H37.3898V14.7067H36.3805Z" fill="black"/>
<path d="M41.394 12.6076V11.2017H43.081V12.6076H41.394ZM43.081 13.5662V19.765H41.394V13.5662H43.081Z" fill="black"/>
<path d="M45.7482 18.2803C46.0017 18.526 46.3674 18.6539 46.8404 18.6539C47.1817 18.6539 47.4742 18.5703 47.7229 18.3982C47.9666 18.2262 48.1178 18.0443 48.1763 17.8526H49.6634C49.4245 18.5949 49.0588 19.1307 48.5712 19.4502C48.0788 19.7697 47.4839 19.932 46.7867 19.932C46.304 19.932 45.8652 19.8533 45.48 19.696C45.09 19.5387 44.7633 19.3175 44.4903 19.0324C44.2221 18.7473 44.0125 18.4031 43.8662 18C43.7199 17.6019 43.6468 17.1594 43.6468 16.6826C43.6468 16.2058 43.7248 15.7879 43.8711 15.3897C44.0222 14.9916 44.2367 14.6425 44.5147 14.3525C44.7926 14.0625 45.1241 13.8314 45.5093 13.6643C45.8945 13.4971 46.3187 13.4136 46.7867 13.4136C47.3084 13.4136 47.7667 13.5168 48.1568 13.7184C48.5468 13.9248 48.8638 14.1952 49.1124 14.5393C49.3611 14.8834 49.5415 15.2767 49.6536 15.7142C49.7658 16.1517 49.8048 16.6138 49.7755 17.0955H45.3386C45.363 17.6461 45.4995 18.0492 45.7531 18.295L45.7482 18.2803ZM47.6595 15.0161C47.4596 14.7949 47.1475 14.6819 46.738 14.6819C46.4698 14.6819 46.2455 14.7261 46.0651 14.8195C45.8847 14.9129 45.7433 15.026 45.6361 15.1587C45.5288 15.2963 45.4557 15.4389 45.4118 15.5913C45.3679 15.7437 45.3435 15.8764 45.3338 15.9993H48.0788C48.0008 15.5667 47.8594 15.2373 47.6546 15.0161H47.6595Z" fill="black"/>
<path d="M54.8941 18.9736C54.6942 19.3079 54.4358 19.5537 54.114 19.7011C53.7922 19.8486 53.4314 19.9224 53.0267 19.9224C52.5684 19.9224 52.1637 19.8339 51.8126 19.652C51.4616 19.4701 51.1739 19.2292 50.9497 18.9195C50.7254 18.6098 50.5547 18.2559 50.4377 17.8577C50.3207 17.4595 50.2671 17.0417 50.2671 16.6091C50.2671 16.1765 50.3256 15.793 50.4377 15.4047C50.5498 15.0163 50.7254 14.6772 50.9497 14.3773C51.1739 14.0823 51.4616 13.8415 51.798 13.6645C52.1393 13.4826 52.5342 13.3941 52.9877 13.3941C53.3534 13.3941 53.6995 13.4728 54.0262 13.6301C54.3577 13.7874 54.6162 14.0135 54.8063 14.3183H54.8307V11.2017H56.5177V19.765H54.9136V18.9736H54.8892H54.8941ZM54.8209 15.911C54.7722 15.6751 54.6942 15.4686 54.5771 15.2867C54.4601 15.1048 54.3139 14.9623 54.1286 14.8492C53.9482 14.7361 53.7142 14.6821 53.4411 14.6821C53.1681 14.6821 52.9292 14.7361 52.739 14.8492C52.5489 14.9623 52.3977 15.1097 52.2807 15.2916C52.1686 15.4735 52.0857 15.6849 52.032 15.9209C51.9784 16.1568 51.954 16.4026 51.954 16.6582C51.954 16.8991 51.9833 17.14 52.0369 17.3759C52.0906 17.6168 52.1832 17.8282 52.3051 18.0199C52.427 18.2067 52.583 18.3591 52.7683 18.4771C52.9536 18.5951 53.1778 18.6491 53.4411 18.6491C53.719 18.6491 53.9482 18.5951 54.1383 18.482C54.3236 18.3689 54.4748 18.2215 54.5869 18.0298C54.699 17.843 54.7771 17.6267 54.8258 17.3907C54.8746 17.1498 54.8989 16.904 54.8989 16.6484C54.8989 16.3928 54.8746 16.147 54.8258 15.911H54.8209Z" fill="black"/>
<path d="M13.6752 85.6027C13.5923 85.003 13.0218 84.5458 12.3685 84.5458C11.1886 84.5458 10.7449 85.5585 10.7449 86.6154C10.7449 87.6723 11.1886 88.6309 12.3685 88.6309C13.173 88.6309 13.6264 88.0754 13.7239 87.279H15.0014C14.8648 88.7833 13.8361 89.7468 12.3685 89.7468C10.5157 89.7468 9.42847 88.3507 9.42847 86.6154C9.42847 84.8801 10.5157 83.4299 12.3685 83.4299C13.6849 83.4299 14.7868 84.2066 14.9477 85.6027H13.6752Z" fill="black"/>
<path d="M17.7464 85.1211C19.1115 85.1211 19.9892 86.0305 19.9892 87.4266C19.9892 88.8227 19.1115 89.7223 17.7464 89.7223C16.3812 89.7223 15.5084 88.808 15.5084 87.4266C15.5084 86.0453 16.386 85.1211 17.7464 85.1211ZM17.7464 88.8178C18.5606 88.8178 18.7995 88.1148 18.7995 87.4266C18.7995 86.7384 18.5557 86.0256 17.7464 86.0256C16.937 86.0256 16.6981 86.7286 16.6981 87.4266C16.6981 88.1247 16.9419 88.8178 17.7464 88.8178Z" fill="black"/>
<path d="M20.7245 85.2291H21.8556V86.0402H21.8751C22.0897 85.4896 22.6796 85.1111 23.2598 85.1111C23.3427 85.1111 23.4451 85.1258 23.5182 85.1504V86.2663C23.4061 86.2417 23.2306 86.227 23.0892 86.227C22.2164 86.227 21.9142 86.8611 21.9142 87.628V89.5943H20.7245V85.2291Z" fill="black"/>
<path d="M23.9766 85.2388H25.1078V85.7943H25.1224C25.4052 85.3322 25.8733 85.1208 26.4096 85.1208C27.7699 85.1208 28.3793 86.2269 28.3793 87.4657C28.3793 88.6308 27.7455 89.7221 26.4778 89.7221C25.961 89.7221 25.4637 89.4959 25.1809 89.0634H25.1614V91.1427H23.9717V85.2388H23.9766ZM27.1946 87.4362C27.1946 86.7431 26.9166 86.0254 26.156 86.0254C25.3954 86.0254 25.1273 86.7283 25.1273 87.4362C25.1273 88.1441 25.3954 88.8225 26.1658 88.8225C26.9361 88.8225 27.1946 88.149 27.1946 87.4362Z" fill="black"/>
<path d="M30.9927 85.1208C32.3579 85.1208 33.2404 86.0303 33.2404 87.4264C33.2404 88.8225 32.3579 89.7221 30.9927 89.7221C29.6275 89.7221 28.7596 88.8077 28.7596 87.4264C28.7596 86.045 29.6373 85.1208 30.9927 85.1208ZM30.9927 88.8176C31.8069 88.8176 32.0507 88.1146 32.0507 87.4264C32.0507 86.7382 31.8069 86.0254 30.9927 86.0254C30.1785 86.0254 29.9444 86.7283 29.9444 87.4264C29.9444 88.1244 30.1882 88.8176 30.9927 88.8176Z" fill="black"/>
<path d="M33.973 85.2291H35.1041V86.0402H35.1236C35.3381 85.4896 35.9281 85.1111 36.5034 85.1111C36.5863 85.1111 36.6887 85.1258 36.7618 85.1504V86.2663C36.6546 86.2417 36.479 86.227 36.3328 86.227C35.46 86.227 35.1577 86.8611 35.1577 87.628V89.5943H33.9681V85.2291H33.973Z" fill="black"/>
<path d="M37.1122 86.5809C37.1804 85.4551 38.1751 85.1208 39.1502 85.1208C40.0132 85.1208 41.0517 85.3126 41.0517 86.3596V88.6308C41.0517 89.0289 41.0907 89.4222 41.2029 89.6041H39.9937C39.9547 89.4664 39.9157 89.3239 39.9108 89.1813C39.5354 89.5795 38.9844 89.7221 38.453 89.7221C37.6339 89.7221 36.9805 89.3091 36.9805 88.4145C36.9805 87.4264 37.7168 87.1904 38.453 87.0872C39.1843 86.979 39.8621 87.0036 39.8621 86.512C39.8621 86.0204 39.5061 85.9221 39.0917 85.9221C38.6383 85.9221 38.3457 86.1089 38.3018 86.5809H37.1122ZM39.8621 87.4657C39.6573 87.6427 39.2428 87.6525 38.8723 87.7213C38.5017 87.7951 38.1702 87.9229 38.1702 88.3653C38.1702 88.8077 38.5115 88.9208 38.9015 88.9208C39.8279 88.9208 39.8669 88.1785 39.8669 87.918V87.4706L39.8621 87.4657Z" fill="black"/>
<path d="M43.4556 85.239H44.3284V86.0403H43.4556V88.2032C43.4556 88.6112 43.558 88.7096 43.9578 88.7096C44.0846 88.7096 44.2016 88.6997 44.3284 88.6751V89.6141C44.1285 89.6485 43.8652 89.6583 43.6312 89.6583C42.9047 89.6583 42.266 89.4863 42.266 88.6211V86.0452H41.5444V85.2439H42.266V83.9363H43.4556V85.2439V85.239Z" fill="black"/>
<path d="M46.4094 84.5655H45.2198V83.5774H46.4094V84.5655ZM45.2198 85.2439H46.4094V89.6091H45.2198V85.2439Z" fill="black"/>
<path d="M49.4478 85.1211C50.813 85.1211 51.6955 86.0305 51.6955 87.4266C51.6955 88.8227 50.813 89.7223 49.4478 89.7223C48.0826 89.7223 47.2148 88.808 47.2148 87.4266C47.2148 86.0453 48.0924 85.1211 49.4478 85.1211ZM49.4478 88.8178C50.262 88.8178 50.5058 88.1148 50.5058 87.4266C50.5058 86.7384 50.262 86.0256 49.4478 86.0256C48.6336 86.0256 48.3995 86.7286 48.3995 87.4266C48.3995 88.1247 48.6433 88.8178 49.4478 88.8178Z" fill="black"/>
<path d="M52.4615 85.2391H53.5927V85.8486H53.617C53.9193 85.3571 54.4362 85.1211 54.9432 85.1211C56.206 85.1211 56.5278 85.8388 56.5278 86.9203V89.6043H55.3382V87.1366C55.3382 86.4189 55.1285 86.0649 54.5776 86.0649C53.9291 86.0649 53.6561 86.4287 53.6561 87.3185V89.6093H52.4664V85.244L52.4615 85.2391Z" fill="black"/>
</g>
<defs>
<clipPath id="clip0_2896_18515">
<rect width="47.1429" height="80.1429" fill="white" transform="translate(9.42859 11)"/>
</clipPath>
</defs>
</svg>
