<svg width="1441" height="243" viewBox="0 0 1441 243" fill="none" xmlns="http://www.w3.org/2000/svg" xmlns:xlink="http://www.w3.org/1999/xlink" x="0px" y="0px"  xml:space="preserve">
<defs>
  <pattern id="pattern-leaf" patternUnits="userSpaceOnUse" width="45" height="45" x="0" y="0">
    <svg width="45" height="45" viewBox="0 0 45 45" fill="none" xmlns="http://www.w3.org/2000/svg">
<path d="M45 0H0V45H45V0Z" fill="transparent"/>
<path d="M0.0387257 41.2564V44.0107C0.890705 44.0107 1.68459 43.8361 2.45912 43.5258C3.17556 43.2542 3.85327 42.8663 4.56971 42.4008C5.11187 42.0323 5.63468 41.7413 6.15749 41.5279C6.60284 41.3534 7.04819 41.2564 7.53227 41.2564C8.01635 41.2564 8.46171 41.3534 8.90706 41.5279C9.42986 41.7219 9.95267 42.0323 10.4948 42.4008C11.1919 42.8663 11.889 43.2542 12.6054 43.5258C13.3799 43.8361 14.1738 44.0107 15.0258 44.0107C15.8778 44.0107 16.6717 43.8361 17.4462 43.5258C18.1626 43.2542 18.8404 42.8663 19.5568 42.4008C20.099 42.0323 20.6218 41.7413 21.1446 41.5279C21.5899 41.3534 22.0353 41.2564 22.5194 41.2564C23.0034 41.2564 23.4488 41.3534 23.8941 41.5279C24.417 41.7219 24.9398 42.0323 25.4819 42.4008C26.179 42.8663 26.8761 43.2542 27.5925 43.5258C28.367 43.8361 29.1609 44.0107 30.0129 44.0107C30.8649 44.0107 31.6588 43.8361 32.4333 43.5258C33.1497 43.2542 33.8275 42.8663 34.5439 42.4008C35.0861 42.0323 35.6089 41.7413 36.1317 41.5279C36.577 41.3534 37.0224 41.2564 37.5065 41.2564C37.9905 41.2564 38.4359 41.3534 38.8812 41.5279C39.404 41.7219 39.9269 42.0323 40.469 42.4008C41.1661 42.8663 41.8632 43.2542 42.5796 43.5258C43.3541 43.8361 44.148 44.0107 45 44.0107V41.2564C44.5159 41.2564 44.0706 41.1594 43.6252 40.9848C43.1024 40.7909 42.5796 40.4805 42.0374 40.1314C41.3404 39.6659 40.6433 39.2779 39.9268 39.0064C39.1523 38.696 38.3584 38.5215 37.5065 38.5215C36.6545 38.5215 35.8606 38.696 35.0861 39.0064C34.3696 39.2779 33.6919 39.6659 32.9755 40.1314C32.4333 40.4999 31.9105 40.7909 31.3877 40.9848C30.9423 41.1594 30.497 41.2564 30.0129 41.2564C29.5288 41.2564 29.0835 41.1594 28.6381 40.9848C28.1153 40.7909 27.5925 40.4805 27.0503 40.1314C26.3533 39.6659 25.6562 39.2779 24.9398 39.0064C24.1652 38.696 23.3713 38.5215 22.5194 38.5215C21.6674 38.5215 20.8735 38.696 20.099 39.0064C19.3825 39.2779 18.7048 39.6659 17.9884 40.1314C17.4462 40.4999 16.9234 40.7909 16.4006 40.9848C15.9552 41.1594 15.5099 41.2564 15.0258 41.2564C14.5417 41.2564 14.0964 41.1594 13.651 40.9848C13.1282 40.7909 12.6054 40.4805 12.0633 40.1314C11.3662 39.6659 10.6691 39.2779 9.95267 39.0064C9.17814 38.696 8.38425 38.5215 7.53227 38.5215C6.68029 38.5215 5.8864 38.696 5.11188 39.0064C4.39544 39.2779 3.71773 39.6659 3.00129 40.1314C2.45913 40.4999 1.93632 40.7909 1.41351 40.9848C0.968159 41.1594 0.503442 41.2564 0.0387257 41.2564ZM0.0387257 33.7499V36.5042C0.890705 36.5042 1.68459 36.3297 2.45912 36.0193C3.17556 35.7478 3.85327 35.3598 4.56971 34.8943C5.11187 34.5258 5.63468 34.2348 6.15749 34.0215C6.60284 33.8469 7.04819 33.7499 7.53227 33.7499C8.01635 33.7499 8.46171 33.8469 8.90706 34.0215C9.42986 34.2154 9.95267 34.5258 10.4948 34.8943C11.1919 35.3598 11.889 35.7478 12.6054 36.0193C13.3799 36.3297 14.1738 36.5042 15.0258 36.5042C15.8778 36.5042 16.6717 36.3297 17.4462 36.0193C18.1626 35.7478 18.8404 35.3598 19.5568 34.8943C20.099 34.5258 20.6218 34.2348 21.1446 34.0215C21.5899 33.8469 22.0353 33.7499 22.5194 33.7499C23.0034 33.7499 23.4488 33.8469 23.8941 34.0215C24.417 34.2154 24.9398 34.5258 25.4819 34.8943C26.179 35.3598 26.8761 35.7478 27.5925 36.0193C28.367 36.3297 29.1609 36.5042 30.0129 36.5042C30.8649 36.5042 31.6588 36.3297 32.4333 36.0193C33.1497 35.7478 33.8275 35.3598 34.5439 34.8943C35.0861 34.5258 35.6089 34.2348 36.1317 34.0215C36.577 33.8469 37.0224 33.7499 37.5065 33.7499C37.9905 33.7499 38.4359 33.8469 38.8812 34.0215C39.404 34.2154 39.9269 34.5258 40.469 34.8943C41.1661 35.3598 41.8632 35.7478 42.5796 36.0193C43.3541 36.3297 44.148 36.5042 45 36.5042V33.7499C44.5159 33.7499 44.0706 33.6529 43.6252 33.4784C43.1024 33.2844 42.5796 32.9741 42.0374 32.6249C41.3404 32.1594 40.6433 31.7715 39.9268 31.4999C39.1523 31.1896 38.3584 31.015 37.5065 31.015C36.6545 31.015 35.8606 31.1896 35.0861 31.4999C34.3696 31.7715 33.6919 32.1594 32.9755 32.6249C32.4333 32.9935 31.9105 33.2844 31.3877 33.4784C30.9423 33.6529 30.497 33.7499 30.0129 33.7499C29.5288 33.7499 29.0835 33.6529 28.6381 33.4784C28.1153 33.2844 27.5925 32.9741 27.0503 32.6249C26.3533 32.1594 25.6562 31.7715 24.9398 31.4999C24.1652 31.1896 23.3713 31.015 22.5194 31.015C21.6674 31.015 20.8735 31.1896 20.099 31.4999C19.3825 31.7715 18.7048 32.1594 17.9884 32.6249C17.4462 32.9935 16.9234 33.2844 16.4006 33.4784C15.9552 33.6529 15.5099 33.7499 15.0258 33.7499C14.5417 33.7499 14.0964 33.6529 13.651 33.4784C13.1282 33.2844 12.6054 32.9741 12.0633 32.6249C11.3662 32.1594 10.6691 31.7715 9.95267 31.4999C9.17814 31.1896 8.38425 31.015 7.53227 31.015C6.68029 31.015 5.8864 31.1896 5.11188 31.4999C4.39544 31.7715 3.71773 32.1594 3.00129 32.6249C2.45913 32.9935 1.93632 33.2844 1.41351 33.4784C0.968159 33.6529 0.503442 33.7499 0.0387257 33.7499ZM0.0387257 26.2435V28.9978C0.890705 28.9978 1.68459 28.8232 2.45912 28.5129C3.17556 28.2413 3.85327 27.8534 4.56971 27.3879C5.11187 27.0193 5.63468 26.7284 6.15749 26.515C6.60284 26.3404 7.04819 26.2435 7.53227 26.2435C8.01635 26.2435 8.46171 26.3404 8.90706 26.515C9.42986 26.709 9.95267 27.0193 10.4948 27.3879C11.1919 27.8534 11.889 28.2413 12.6054 28.5129C13.3799 28.8232 14.1738 28.9978 15.0258 28.9978C15.8778 28.9978 16.6717 28.8232 17.4462 28.5129C18.1626 28.2413 18.8404 27.8534 19.5568 27.3879C20.099 27.0193 20.6218 26.7284 21.1446 26.515C21.5899 26.3404 22.0353 26.2435 22.5194 26.2435C23.0034 26.2435 23.4488 26.3404 23.8941 26.515C24.417 26.709 24.9398 27.0193 25.4819 27.3879C26.179 27.8534 26.8761 28.2413 27.5925 28.5129C28.367 28.8232 29.1609 28.9978 30.0129 28.9978C30.8649 28.9978 31.6588 28.8232 32.4333 28.5129C33.1497 28.2413 33.8275 27.8534 34.5439 27.3879C35.0861 27.0193 35.6089 26.7284 36.1317 26.515C36.577 26.3404 37.0224 26.2435 37.5065 26.2435C37.9905 26.2435 38.4359 26.3404 38.8812 26.515C39.404 26.709 39.9269 27.0193 40.469 27.3879C41.1661 27.8534 41.8632 28.2413 42.5796 28.5129C43.3541 28.8232 44.148 28.9978 45 28.9978V26.2435C44.5159 26.2435 44.0706 26.1465 43.6252 25.9719C43.1024 25.7779 42.5796 25.4676 42.0374 25.1185C41.3404 24.6529 40.6433 24.265 39.9268 23.9935C39.1523 23.6831 38.3584 23.5085 37.5065 23.5085C36.6545 23.5085 35.8606 23.6831 35.0861 23.9935C34.3696 24.265 33.6919 24.6529 32.9755 25.1185C32.4333 25.487 31.9105 25.7779 31.3877 25.9719C30.9423 26.1465 30.497 26.2435 30.0129 26.2435C29.5288 26.2435 29.0835 26.1465 28.6381 25.9719C28.1153 25.7779 27.5925 25.4676 27.0503 25.1185C26.3533 24.6529 25.6562 24.265 24.9398 23.9935C24.1652 23.6831 23.3713 23.5085 22.5194 23.5085C21.6674 23.5085 20.8735 23.6831 20.099 23.9935C19.3825 24.265 18.7048 24.6529 17.9884 25.1185C17.4462 25.487 16.9234 25.7779 16.4006 25.9719C15.9552 26.1465 15.5099 26.2435 15.0258 26.2435C14.5417 26.2435 14.0964 26.1465 13.651 25.9719C13.1282 25.7779 12.6054 25.4676 12.0633 25.1185C11.3662 24.6529 10.6691 24.265 9.95267 23.9935C9.17814 23.6831 8.38425 23.5085 7.53227 23.5085C6.68029 23.5085 5.8864 23.6831 5.11188 23.9935C4.39544 24.265 3.71773 24.6529 3.00129 25.1185C2.45913 25.487 1.93632 25.7779 1.41351 25.9719C0.968159 26.1465 0.503442 26.2435 0.0387257 26.2435ZM0.0387257 18.7564V21.5107C0.890705 21.5107 1.68459 21.3361 2.45912 21.0258C3.17556 20.7542 3.85327 20.3663 4.56971 19.9008C5.11187 19.5323 5.63468 19.2413 6.15749 19.0279C6.60284 18.8534 7.04819 18.7564 7.53227 18.7564C8.01635 18.7564 8.46171 18.8534 8.90706 19.0279C9.42986 19.2219 9.95267 19.5323 10.4948 19.9008C11.1919 20.3663 11.889 20.7542 12.6054 21.0258C13.3799 21.3361 14.1738 21.5107 15.0258 21.5107C15.8778 21.5107 16.6717 21.3361 17.4462 21.0258C18.1626 20.7542 18.8404 20.3663 19.5568 19.9008C20.099 19.5323 20.6218 19.2413 21.1446 19.0279C21.5899 18.8534 22.0353 18.7564 22.5194 18.7564C23.0034 18.7564 23.4488 18.8534 23.8941 19.0279C24.417 19.2219 24.9398 19.5323 25.4819 19.9008C26.179 20.3663 26.8761 20.7542 27.5925 21.0258C28.367 21.3361 29.1609 21.5107 30.0129 21.5107C30.8649 21.5107 31.6588 21.3361 32.4333 21.0258C33.1497 20.7542 33.8275 20.3663 34.5439 19.9008C35.0861 19.5323 35.6089 19.2413 36.1317 19.0279C36.577 18.8534 37.0224 18.7564 37.5065 18.7564C37.9905 18.7564 38.4359 18.8534 38.8812 19.0279C39.404 19.2219 39.9269 19.5323 40.469 19.9008C41.1661 20.3663 41.8632 20.7542 42.5796 21.0258C43.3541 21.3361 44.148 21.5107 45 21.5107V18.7564C44.5159 18.7564 44.0706 18.6594 43.6252 18.4848C43.1024 18.2909 42.5796 17.9805 42.0374 17.6314C41.3404 17.1659 40.6433 16.7779 39.9268 16.5064C39.1523 16.196 38.3584 16.0215 37.5065 16.0215C36.6545 16.0215 35.8606 16.196 35.0861 16.5064C34.3696 16.7779 33.6919 17.1659 32.9755 17.6314C32.4333 17.9999 31.9105 18.2909 31.3877 18.4848C30.9423 18.6594 30.497 18.7564 30.0129 18.7564C29.5288 18.7564 29.0835 18.6594 28.6381 18.4848C28.1153 18.2909 27.5925 17.9805 27.0503 17.6314C26.3533 17.1659 25.6562 16.7779 24.9398 16.5064C24.1652 16.196 23.3713 16.0215 22.5194 16.0215C21.6674 16.0215 20.8735 16.196 20.099 16.5064C19.3825 16.7779 18.7048 17.1659 17.9884 17.6314C17.4462 17.9999 16.9234 18.2909 16.4006 18.4848C15.9552 18.6594 15.5099 18.7564 15.0258 18.7564C14.5417 18.7564 14.0964 18.6594 13.651 18.4848C13.1282 18.2909 12.6054 17.9805 12.0633 17.6314C11.3662 17.1659 10.6691 16.7779 9.95267 16.5064C9.17814 16.196 8.38425 16.0215 7.53227 16.0215C6.68029 16.0215 5.8864 16.196 5.11188 16.5064C4.39544 16.7779 3.71773 17.1659 3.00129 17.6314C2.45913 17.9999 1.93632 18.2909 1.41351 18.4848C0.968159 18.64 0.503442 18.7564 0.0387257 18.7564ZM0.0387257 3.74346V6.49777C0.890705 6.49777 1.68459 6.3232 2.45912 6.01285C3.17556 5.7413 3.85327 5.35337 4.56971 4.88786C5.11187 4.51932 5.63468 4.22837 6.15749 4.03441C6.60284 3.85984 7.04819 3.76286 7.53227 3.76286C8.01635 3.76286 8.46171 3.85984 8.90706 4.03441C9.42986 4.22837 9.95267 4.53872 10.4948 4.88786C11.1919 5.35337 11.889 5.7413 12.6054 6.01285C13.3799 6.3232 14.1738 6.49777 15.0258 6.49777C15.8778 6.49777 16.6717 6.3232 17.4462 6.01285C18.1626 5.7413 18.8404 5.35337 19.5568 4.88786C20.099 4.51932 20.6218 4.22837 21.1446 4.03441C21.5899 3.85984 22.0353 3.76286 22.5194 3.76286C23.0034 3.76286 23.4488 3.85984 23.8941 4.03441C24.417 4.22837 24.9398 4.53872 25.4819 4.88786C26.179 5.35337 26.8761 5.7413 27.5925 6.01285C28.367 6.3232 29.1609 6.49777 30.0129 6.49777C30.8649 6.49777 31.6588 6.3232 32.4333 6.01285C33.1497 5.7413 33.8275 5.35337 34.5439 4.88786C35.0861 4.51932 35.6089 4.22837 36.1317 4.03441C36.577 3.85984 37.0224 3.76286 37.5065 3.76286C37.9905 3.76286 38.4359 3.85984 38.8812 4.03441C39.404 4.22837 39.9269 4.53872 40.469 4.88786C41.1661 5.35337 41.8632 5.7413 42.5796 6.01285C43.3541 6.3232 44.148 6.49777 45 6.49777V3.74346C44.5159 3.74346 44.0706 3.64648 43.6252 3.47191C43.1024 3.27794 42.5796 2.9676 42.0374 2.61846C41.3404 2.15294 40.6433 1.76501 39.9268 1.49346C39.1523 1.18311 38.3584 1.00854 37.5065 1.00854C36.6545 1.00854 35.8606 1.18311 35.0861 1.49346C34.3696 1.76501 33.6919 2.15294 32.9755 2.61846C32.4333 2.98699 31.9105 3.27794 31.3877 3.47191C30.9423 3.64648 30.497 3.74346 30.0129 3.74346C29.5288 3.74346 29.0835 3.64648 28.6381 3.47191C28.1153 3.27794 27.5925 2.9676 27.0503 2.61846C26.3533 2.15294 25.6562 1.76501 24.9398 1.49346C24.1652 1.18311 23.3713 1.00854 22.5194 1.00854C21.6674 1.00854 20.8735 1.18311 20.099 1.49346C19.3825 1.76501 18.7048 2.15294 17.9884 2.61846C17.4462 2.98699 16.9234 3.27794 16.4006 3.47191C15.9552 3.64648 15.5099 3.74346 15.0258 3.74346C14.5417 3.74346 14.0964 3.64648 13.651 3.47191C13.1282 3.27794 12.6054 2.9676 12.0633 2.61846C11.3662 2.15294 10.6691 1.76501 9.95267 1.49346C9.17814 1.18311 8.38425 1.00854 7.53227 1.00854C6.68029 1.00854 5.8864 1.18311 5.11188 1.49346C4.39544 1.76501 3.71773 2.15294 3.00129 2.61846C2.45913 2.98699 1.93632 3.27794 1.41351 3.47191C0.968159 3.64648 0.503442 3.74346 0.0387257 3.74346ZM44.9613 14.0042C44.1093 14.0042 43.3154 13.8297 42.5409 13.5193C41.8244 13.2478 41.1467 12.8598 40.4303 12.3943C39.8881 12.0258 39.3653 11.7348 38.8425 11.5409C38.3972 11.3663 37.9518 11.2693 37.4677 11.2693C36.9837 11.2693 36.5383 11.3663 36.0929 11.5409C35.5701 11.7348 35.0473 12.0452 34.5052 12.3943C33.8081 12.8598 33.111 13.2478 32.3946 13.5193C31.6201 13.8297 30.8262 14.0042 29.9742 14.0042C29.1222 14.0042 28.3283 13.8297 27.5538 13.5193C26.8373 13.2478 26.1596 12.8598 25.4432 12.3943C24.901 12.0258 24.3782 11.7348 23.8554 11.5409C23.4101 11.3663 22.9647 11.2693 22.4806 11.2693C21.9966 11.2693 21.5512 11.3663 21.1059 11.5409C20.583 11.7348 20.0602 12.0452 19.5181 12.3943C18.821 12.8598 18.1239 13.2478 17.4075 13.5193C16.633 13.8297 15.8391 14.0042 14.9871 14.0042C14.1351 14.0042 13.3412 13.8297 12.5667 13.5193C11.8503 13.2478 11.1725 12.8598 10.4561 12.3943C9.91394 12.0258 9.39114 11.7348 8.86833 11.5409C8.42298 11.3663 7.97762 11.2693 7.49354 11.2693C7.00947 11.2693 6.56411 11.3663 6.11876 11.5409C5.59595 11.7348 5.07315 12.0452 4.53098 12.3943C3.83391 12.8598 3.13683 13.2478 2.4204 13.5193C1.64587 13.8297 0.851979 14.0042 0 14.0042V11.2499C0.484079 11.2499 0.929433 11.1529 1.37479 10.9784C1.89759 10.7844 2.4204 10.4741 2.96257 10.1249C3.65964 9.65941 4.35671 9.27148 5.07315 8.99992C5.84768 8.68958 6.64157 8.51501 7.49354 8.51501C8.34552 8.51501 9.13941 8.68958 9.91394 8.99992C10.6304 9.27148 11.3081 9.65941 12.0245 10.1249C12.5667 10.4935 13.0895 10.7844 13.6123 10.9784C14.0577 11.1529 14.503 11.2499 14.9871 11.2499C15.4712 11.2499 15.9165 11.1529 16.3619 10.9784C16.8847 10.7844 17.4075 10.4741 17.9497 10.1249C18.6467 9.65941 19.3438 9.27148 20.0602 8.99992C20.8348 8.68958 21.6287 8.51501 22.4806 8.51501C23.3326 8.51501 24.1265 8.68958 24.901 8.99992C25.6175 9.27148 26.2952 9.65941 27.0116 10.1249C27.5538 10.4935 28.0766 10.7844 28.5994 10.9784C29.0447 11.1529 29.4901 11.2499 29.9742 11.2499C30.4583 11.2499 30.9036 11.1529 31.349 10.9784C31.8718 10.7844 32.3946 10.4741 32.9367 10.1249C33.6338 9.65941 34.3309 9.27148 35.0473 8.99992C35.8219 8.68958 36.6158 8.51501 37.4677 8.51501C38.3197 8.51501 39.1136 8.68958 39.8881 8.99992C40.6046 9.27148 41.2823 9.65941 41.9987 10.1249C42.5409 10.4935 43.0637 10.7844 43.5865 10.9784C44.0318 11.1529 44.4772 11.2499 44.9613 11.2499V14.0042V14.0042Z" fill="#F0F0F5" opacity="0.3"/>
</svg>
  </pattern>
</defs>
  <path fillRule="evenodd" clipRule="evenodd" d="M0 195.964V218.26C58.5934 232.644 715.038 273.493 1441 201V0.125488C1439.03 0.810592 1437.06 1.49436 1435.09 2.17678C942.724 173.213 693.184 259.897 0 195.964Z" fill="#1f4def"/>
  <path fillRule="evenodd" clipRule="evenodd" d="M0 195.964V218.26C58.5934 232.644 715.038 273.493 1441 201V0.125488C1439.03 0.810592 1437.06 1.49436 1435.09 2.17678C942.724 173.213 693.184 259.897 0 195.964Z" fill="url(#pattern-leaf)"/>
</svg>
