<svg width="20" height="20" viewBox="0 0 20 20" fill="none" xmlns="http://www.w3.org/2000/svg">
<path d="M5.625 8.125C5.625 9.28532 6.08594 10.3981 6.90641 11.2186C7.72688 12.0391 8.83968 12.5 10 12.5C11.1603 12.5 12.2731 12.0391 13.0936 11.2186C13.9141 10.3981 14.375 9.28532 14.375 8.125C14.375 6.96468 13.9141 5.85188 13.0936 5.03141C12.2731 4.21094 11.1603 3.75 10 3.75C8.83968 3.75 7.72688 4.21094 6.90641 5.03141C6.08594 5.85188 5.625 6.96468 5.625 8.125V8.125Z" stroke="#1F4DEF" strokeWidth="1.5" strokeLinecap="round" strokeLinejoin="round"/>
<path d="M15.7609 17.3968C15.0061 16.6372 14.1085 16.0344 13.1199 15.6231C12.1312 15.2118 11.0709 15 10.0001 15C8.92926 15 7.869 15.2118 6.88032 15.6231C5.89165 16.0344 4.99408 16.6372 4.23926 17.3968" stroke="#1F4DEF" strokeWidth="1.5" strokeLinecap="round" strokeLinejoin="round"/>
<path d="M0.625 10C0.625 12.4864 1.61272 14.871 3.37087 16.6291C5.12903 18.3873 7.5136 19.375 10 19.375C12.4864 19.375 14.871 18.3873 16.6291 16.6291C18.3873 14.871 19.375 12.4864 19.375 10C19.375 7.5136 18.3873 5.12903 16.6291 3.37087C14.871 1.61272 12.4864 0.625 10 0.625C7.5136 0.625 5.12903 1.61272 3.37087 3.37087C1.61272 5.12903 0.625 7.5136 0.625 10V10Z" stroke="#1F4DEF" strokeWidth="1.5" strokeLinecap="round" strokeLinejoin="round"/>
</svg>
