<svg width="22" height="22" viewBox="0 0 22 22" fill="none" xmlns="http://www.w3.org/2000/svg">
<path d="M8.74167 20.0999C7.475 18.2416 6.625 14.8582 6.625 10.9999C6.625 7.14157 7.45833 3.75824 8.74167 1.8999" stroke="#1F4DEF" strokeWidth="1.5" strokeLinecap="round" strokeLinejoin="round"/>
<path d="M13.2578 20.0999C14.5245 18.2416 15.3745 14.8582 15.3745 10.9999C15.3745 7.14157 14.5411 3.75824 13.2578 1.8999" stroke="#1F4DEF" strokeWidth="1.5" strokeLinecap="round" strokeLinejoin="round"/>
<path d="M1.625 11H20.375" stroke="#1F4DEF" strokeWidth="1.5" strokeLinecap="round" strokeLinejoin="round"/>
<path d="M2.70801 6.625H19.2913" stroke="#1F4DEF" strokeWidth="1.5" strokeLinecap="round" strokeLinejoin="round"/>
<path d="M2.70801 15.375H19.2913" stroke="#1F4DEF" strokeWidth="1.5" strokeLinecap="round" strokeLinejoin="round"/>
<path d="M20.3746 10.9999C20.377 13.0262 19.7187 14.9981 18.4996 16.6166L20.3662 20.3749L15.3662 19.2916C13.5545 20.2475 11.4795 20.5838 9.45858 20.2489C7.43766 19.914 5.58205 18.9264 4.17551 17.4371C2.76897 15.9479 1.88892 14.0389 1.66994 12.0022C1.45096 9.96544 1.90511 7.91303 2.96293 6.15882C4.02074 4.4046 5.62401 3.04513 7.52755 2.28831C9.43109 1.53148 11.5301 1.41896 13.5037 1.96794C15.4772 2.51692 17.2166 3.69719 18.4559 5.32826C19.6952 6.95933 20.3662 8.95142 20.3662 10.9999H20.3746Z" stroke="#1F4DEF" strokeWidth="1.5" strokeLinecap="round" strokeLinejoin="round"/>
</svg>
