<svg width="49" height="48" viewBox="0 0 49 48" fill="none" xmlns="http://www.w3.org/2000/svg">
<g clip-path="url(#clip0_3816_38345)">
<path d="M8.66328 11.7195C8.29334 10.6923 5.73741 5.48769 5.37419 4.81212C4.86301 3.93663 4.51325 3.59885 3.85408 3.44719C3.1882 3.24038 2.6501 3.40583 1.68826 4.00557C0.726425 4.60531 0.282499 4.98446 0.0739887 5.66692C-0.0874389 6.28045 0.00672721 6.78368 0.390118 7.56955C0.807139 8.23823 3.87426 13.1671 4.51325 14.0771C5.38765 15.3455 6.49074 15.4627 7.614 14.7733C8.744 14.1391 9.28209 13.0982 8.67001 11.7195" fill="#F5B333"/>
<path d="M22.3174 10.4787C22.6268 9.4309 23.5483 3.68166 23.6828 2.90268C23.824 1.88932 23.7366 1.44124 23.2927 0.896649C22.842 0.352056 22.2972 0.172823 21.1941 0.0556317C20.091 -0.0615592 19.4789 0.000483047 18.9274 0.407204C18.4364 0.800138 18.1942 1.31026 18.0799 2.19954C18.0059 2.97162 17.6696 8.83116 17.6561 9.93413C17.5687 11.5197 18.4431 12.2021 19.7211 12.3469C20.999 12.4917 21.9743 11.9402 22.3174 10.4787Z" fill="#F5B333"/>
<path d="M39.5363 12.3259C40.182 11.5538 40.3838 11.1126 40.3569 10.4164C40.2829 9.73392 39.9668 9.27895 39.1327 8.52755C38.2987 7.76925 37.7741 7.41768 37.0947 7.43836C36.4692 7.45215 36.0656 7.70721 35.4603 8.41036C34.9558 9.03767 31.3371 13.5461 30.6578 14.4353C29.7027 15.6762 29.965 16.724 30.9403 17.6202C31.8618 18.5301 32.9649 18.6542 34.0814 17.6684C34.9154 16.9791 39.0117 12.8912 39.5296 12.319" fill="#F5B333"/>
<path d="M48.8251 26.0513C48.5426 24.8931 48.3812 24.3485 47.7893 23.9487C47.2646 23.5971 46.7467 23.5834 45.8723 23.7626C45.119 23.9763 39.5968 25.4584 38.5274 25.7962C37.014 26.2236 36.6508 27.2783 36.9064 28.5605C37.1014 29.8496 37.8817 30.6217 39.3883 30.4838C40.5049 30.3666 46.1548 29.5532 46.9216 29.4015C47.9507 29.1327 48.3677 28.9328 48.704 28.3399C49.0471 27.7471 49.1009 27.1611 48.8251 26.0581" fill="#F5B333"/>
<path d="M46.4239 46.063C46.9082 45.0358 47.0158 44.4361 46.8275 43.7812C46.5988 43.1883 46.2356 42.8023 45.3746 42.4576C44.6885 42.1336 39.3211 40.0518 38.2852 39.6864C36.8728 39.1694 35.9109 39.7691 35.4065 40.9755C34.8347 42.1336 34.9962 43.2573 36.2876 44.0363C37.1956 44.6015 42.2873 47.3176 42.9734 47.6416C43.9016 48.0276 44.3724 48.1035 45.0114 47.8622C45.6369 47.5589 46.0069 47.1384 46.4239 46.063Z" fill="#F5B333"/>
</g>
<defs>
<clipPath id="clip0_3816_38345">
<rect width="49" height="48" fill="white"/>
</clipPath>
</defs>
</svg>
