<svg width="20" height="20" viewBox="0 0 20 20" fill="none" xmlns="http://www.w3.org/2000/svg">
<path d="M9.99994 2.2627C8.60022 2.26313 7.22684 2.64322 6.02606 3.36247C4.82528 4.08173 3.84208 5.11322 3.18117 6.34707C2.52026 7.58093 2.2064 8.97094 2.27302 10.3691C2.33964 11.7672 2.78423 13.1211 3.55946 14.2865L2.26184 17.7389L6.60708 16.9532C7.6534 17.4645 8.80163 17.733 9.96618 17.7388C11.1307 17.7446 12.2816 17.4874 13.3329 16.9865C14.3842 16.4856 15.3089 15.7538 16.0381 14.8458C16.7673 13.9377 17.2821 12.8768 17.5441 11.7421C17.8062 10.6074 17.8088 9.4282 17.5517 8.29237C17.2945 7.15654 16.7844 6.09339 16.0592 5.18218C15.334 4.27096 14.4125 3.53518 13.3633 3.02968C12.3142 2.52419 11.1645 2.26201 9.99994 2.2627V2.2627Z" stroke="#1F4DEF" stroke-width="1.5" stroke-linecap="round" stroke-linejoin="round"/>
</svg>
