<svg width="20" height="14" viewBox="0 0 20 14" fill="none" xmlns="http://www.w3.org/2000/svg">
<path d="M19.9083 1.85829C19.8837 1.8418 19.8547 1.83301 19.825 1.83301C19.7953 1.83301 19.7663 1.8418 19.7417 1.85829L11.6167 9.98329C11.4048 10.1959 11.1527 10.3644 10.8752 10.4788C10.5977 10.5932 10.3002 10.6514 10 10.65C9.392 10.6488 8.80866 10.4094 8.375 9.98329L0.258333 1.89162C0.233666 1.87514 0.204666 1.86634 0.175 1.86634C0.145334 1.86634 0.116334 1.87514 0.0916667 1.89162C0.0686326 1.90071 0.0482066 1.91536 0.0322117 1.93426C0.0162167 1.95316 0.00515031 1.97573 0 1.99995L0 12C0 12.442 0.175595 12.8659 0.488155 13.1785C0.800716 13.491 1.22464 13.6666 1.66667 13.6666H18.3333C18.7754 13.6666 19.1993 13.491 19.5118 13.1785C19.8244 12.8659 20 12.442 20 12V1.99995C20.0007 1.96987 19.9923 1.94027 19.976 1.91501C19.9596 1.88974 19.9361 1.86998 19.9083 1.85829Z" fill="white"/>
<path d="M9.25835 9.13301C9.45588 9.32493 9.72044 9.43229 9.99585 9.43229C10.2713 9.43229 10.5358 9.32493 10.7333 9.13301L18.8083 1.05801C18.8627 1.00335 18.9008 0.934686 18.9185 0.859655C18.9361 0.784624 18.9326 0.706166 18.9083 0.633008C18.8167 0.333008 18.5583 0.333008 18.3333 0.333008H1.66668C1.43335 0.333008 1.18335 0.333008 1.09168 0.633008C1.06741 0.706166 1.0639 0.784624 1.08156 0.859655C1.09921 0.934686 1.13733 1.00335 1.19168 1.05801L9.25835 9.13301Z" fill="white"/>
</svg>
