<svg width="20" height="20" viewBox="0 0 20 20" fill="none" xmlns="http://www.w3.org/2000/svg">
<path d="M8.71665 15.3079L6.43332 17.5913C5.99036 18.0121 5.40268 18.2468 4.79165 18.2468C4.18063 18.2468 3.59294 18.0121 3.14999 17.5913L2.40832 16.8496C2.18852 16.6318 2.01476 16.372 1.89737 16.0857C1.77998 15.7994 1.72136 15.4924 1.72499 15.1829C1.71992 14.8733 1.77788 14.5659 1.89536 14.2794C2.01283 13.9928 2.18736 13.7332 2.40832 13.5163L7.24165 8.67459C7.67855 8.24203 8.26851 7.99938 8.88332 7.99938C9.49813 7.99938 10.0881 8.24203 10.525 8.67459L11.2667 9.42459C11.3261 9.53775 11.4107 9.63572 11.5141 9.71093C11.6174 9.78614 11.7366 9.83657 11.8626 9.85833C11.9885 9.88008 12.1178 9.87258 12.2404 9.83639C12.3629 9.80021 12.4756 9.73632 12.5695 9.64966C12.6634 9.56299 12.7362 9.45589 12.7821 9.33662C12.828 9.21735 12.8459 9.08911 12.8344 8.96183C12.8228 8.83454 12.7821 8.71162 12.7155 8.60257C12.6488 8.49352 12.558 8.40126 12.45 8.33293L11.7083 7.59126C10.9599 6.84372 9.94531 6.42383 8.88749 6.42383C7.82967 6.42383 6.8151 6.84372 6.06665 7.59126L1.22499 12.4246C0.477445 13.173 0.0575562 14.1876 0.0575562 15.2454C0.0575562 16.3032 0.477445 17.3178 1.22499 18.0663L1.96665 18.8079C2.33684 19.1803 2.77701 19.4759 3.26183 19.6775C3.74665 19.8792 4.26656 19.983 4.79165 19.983C5.31675 19.983 5.83666 19.8792 6.32148 19.6775C6.8063 19.4759 7.24646 19.1803 7.61666 18.8079L9.89165 16.5329C9.96976 16.4555 10.0318 16.3633 10.0741 16.2617C10.1164 16.1602 10.1382 16.0513 10.1382 15.9413C10.1382 15.8313 10.1164 15.7223 10.0741 15.6208C10.0318 15.5192 9.96976 15.4271 9.89165 15.3496C9.74109 15.1887 9.53295 15.094 9.31276 15.0862C9.09256 15.0784 8.87823 15.1581 8.71665 15.3079Z" fill="white"/>
<path d="M18.775 1.96621L18.025 1.22455C17.2755 0.479035 16.2613 0.0605469 15.2042 0.0605469C14.147 0.0605469 13.1329 0.479035 12.3833 1.22455L10 3.64955C9.91277 3.72425 9.84192 3.81618 9.7919 3.91957C9.74188 4.02296 9.71377 4.13557 9.70934 4.25034C9.7049 4.3651 9.72424 4.47954 9.76614 4.58648C9.80803 4.69342 9.87158 4.79054 9.95279 4.87175C10.034 4.95297 10.1311 5.01652 10.2381 5.05841C10.345 5.10031 10.4594 5.11964 10.5742 5.11521C10.689 5.11078 10.8016 5.08267 10.905 5.03265C11.0084 4.98263 11.1003 4.91178 11.175 4.82455L13.6 2.40788C14.0358 1.9733 14.6262 1.72926 15.2417 1.72926C15.8571 1.72926 16.4475 1.9733 16.8833 2.40788L17.625 3.15788C17.846 3.37483 18.0205 3.63446 18.138 3.92098C18.2554 4.2075 18.3134 4.51492 18.3083 4.82455C18.312 5.13397 18.2533 5.44097 18.136 5.72728C18.0186 6.0136 17.8448 6.27339 17.625 6.49121L12.7917 11.3245C12.5738 11.5443 12.3141 11.7181 12.0277 11.8355C11.7414 11.9529 11.4344 12.0115 11.125 12.0079C10.8154 12.0125 10.5082 11.9543 10.2217 11.8368C9.93526 11.7194 9.67558 11.5451 9.45834 11.3245C9.30183 11.2441 9.12386 11.2152 8.94994 11.2421C8.77602 11.269 8.61507 11.3502 8.49017 11.4742C8.36527 11.5982 8.28282 11.7585 8.25465 11.9322C8.22647 12.1059 8.25402 12.2841 8.33333 12.4412C8.70298 12.8143 9.14304 13.1103 9.62799 13.312C10.1129 13.5138 10.6331 13.6171 11.1583 13.6162C11.6816 13.6176 12.2 13.5152 12.6835 13.3149C13.167 13.1147 13.6059 12.8205 13.975 12.4495L18.8167 7.60788C19.5642 6.85944 19.9841 5.84487 19.9841 4.78705C19.9841 3.72922 19.5642 2.71466 18.8167 1.96621H18.775Z" fill="white"/>
</svg>
