<svg width="20" height="18" viewBox="0 0 20 18" fill="none" xmlns="http://www.w3.org/2000/svg">
<path d="M20 2.59007C19.25 2.97468 18.5 3.10289 17.625 3.23109C18.5 2.71827 19.125 1.94904 19.375 0.923402C18.625 1.43622 17.75 1.69263 16.75 1.94904C16 1.17981 14.875 0.666992 13.75 0.666992C11.125 0.666992 9.125 3.23109 9.75 5.7952C6.375 5.66699 3.375 4.00033 1.25 1.43622C0.125 3.3593 0.75 5.7952 2.5 7.07725C1.875 7.07725 1.25 6.82084 0.625 6.56443C0.625 8.4875 2 10.2824 3.875 10.7952C3.25 10.9234 2.625 11.0516 2 10.9234C2.5 12.5901 4 13.8721 5.875 13.8721C4.375 15.026 2.125 15.667 0 15.4106C1.875 16.5644 4 17.3337 6.25 17.3337C13.875 17.3337 18.125 10.7952 17.875 4.76956C18.75 4.25674 19.5 3.4875 20 2.59007Z" fill="white"/>
</svg>
