<svg width="64" height="64" viewBox="0 0 64 64" fill="none" xmlns="http://www.w3.org/2000/svg">
<rect width="64" height="64" rx="32" fill="#F5B333"/>
<g clip-path="url(#clip0_3696_3380)">
<path d="M44.3806 28.1908C44.3806 27.6857 44.1799 27.2012 43.8227 26.844C43.4655 26.4868 42.981 26.2861 42.4758 26.2861H38.6663L35.8091 22.4766H28.1901L25.3329 26.2861H21.5234C21.0182 26.2861 20.5338 26.4868 20.1765 26.844C19.8193 27.2012 19.6187 27.6857 19.6187 28.1908V39.6194C19.6187 40.1246 19.8193 40.6091 20.1765 40.9663C20.5338 41.3235 21.0182 41.5242 21.5234 41.5242H42.4758C42.981 41.5242 43.4655 41.3235 43.8227 40.9663C44.1799 40.6091 44.3806 40.1246 44.3806 39.6194V28.1908Z" stroke="#133250" stroke-width="2" stroke-linecap="round" stroke-linejoin="round"/>
<path d="M31.9996 37.2384C34.3665 37.2384 36.2853 35.3196 36.2853 32.9527C36.2853 30.5858 34.3665 28.667 31.9996 28.667C29.6326 28.667 27.7139 30.5858 27.7139 32.9527C27.7139 35.3196 29.6326 37.2384 31.9996 37.2384Z" stroke="#133250" stroke-width="2" stroke-linecap="round" stroke-linejoin="round"/>
</g>
<defs>
<clipPath id="clip0_3696_3380">
<rect width="26.6667" height="26.6667" fill="white" transform="translate(18.6665 18.667)"/>
</clipPath>
</defs>
</svg>
