<svg width="64" height="64" viewBox="0 0 64 64" fill="none" xmlns="http://www.w3.org/2000/svg">
<rect width="64" height="64" rx="32" fill="#F5B333"/>
<g clip-path="url(#clip0_3696_29165)">
<path d="M40.3811 22.0947H28.9525C28.111 22.0947 27.4287 22.777 27.4287 23.6185V28.19C27.4287 29.0315 28.111 29.7138 28.9525 29.7138H40.3811C41.2227 29.7138 41.9049 29.0315 41.9049 28.19V23.6185C41.9049 22.777 41.2227 22.0947 40.3811 22.0947Z" stroke="#133250" stroke-width="2" stroke-linecap="round" stroke-linejoin="round"/>
<path d="M40.3811 34.2852H28.9525C28.111 34.2852 27.4287 34.9674 27.4287 35.809V40.3804C27.4287 41.222 28.111 41.9042 28.9525 41.9042H40.3811C41.2227 41.9042 41.9049 41.222 41.9049 40.3804V35.809C41.9049 34.9674 41.2227 34.2852 40.3811 34.2852Z" stroke="#133250" stroke-width="2" stroke-linecap="round" stroke-linejoin="round"/>
<path d="M22.8571 23.6185C23.2779 23.6185 23.619 23.2774 23.619 22.8566C23.619 22.4358 23.2779 22.0947 22.8571 22.0947C22.4363 22.0947 22.0952 22.4358 22.0952 22.8566C22.0952 23.2774 22.4363 23.6185 22.8571 23.6185Z" stroke="#133250" stroke-width="1.14286" stroke-linecap="round" stroke-linejoin="round"/>
<path d="M22.8571 35.809C23.2779 35.809 23.619 35.4678 23.619 35.0471C23.619 34.6263 23.2779 34.2852 22.8571 34.2852C22.4363 34.2852 22.0952 34.6263 22.0952 35.0471C22.0952 35.4678 22.4363 35.809 22.8571 35.809Z" stroke="#133250" stroke-width="1.14286" stroke-linecap="round" stroke-linejoin="round"/>
</g>
<defs>
<clipPath id="clip0_3696_29165">
<rect width="21.3333" height="21.3333" fill="white" transform="translate(21.3335 21.333)"/>
</clipPath>
</defs>
</svg>
