<svg width="64" height="64" viewBox="0 0 64 64" fill="none" xmlns="http://www.w3.org/2000/svg">
<rect width="64" height="64" rx="32" fill="#F5B333"/>
<path d="M38.857 29.8097C41.2239 29.8097 43.1427 27.8909 43.1427 25.524C43.1427 23.1571 41.2239 21.2383 38.857 21.2383C36.4901 21.2383 34.5713 23.1571 34.5713 25.524C34.5713 27.8909 36.4901 29.8097 38.857 29.8097Z" fill="#133250" stroke="#133250" stroke-width="1.5" stroke-linecap="round" stroke-linejoin="round"/>
<path d="M41.4284 34.0951V40.0951C41.4284 40.5498 41.2477 40.9858 40.9263 41.3073C40.6048 41.6288 40.1687 41.8094 39.7141 41.8094H22.5712C22.1166 41.8094 21.6805 41.6288 21.359 41.3073C21.0375 40.9858 20.8569 40.5498 20.8569 40.0951V28.0951C20.8569 27.6405 21.0375 27.2045 21.359 26.883C21.6805 26.5615 22.1166 26.3809 22.5712 26.3809H29.4284" stroke="#133250" stroke-width="2" stroke-linecap="round" stroke-linejoin="round"/>
<path d="M20.8569 28.541L31.1426 35.8096L34.6912 33.3067" stroke="#133250" stroke-width="2" stroke-linecap="round" stroke-linejoin="round"/>
</svg>
