<svg width="64" height="64" viewBox="0 0 64 64" fill="none" xmlns="http://www.w3.org/2000/svg">
<rect width="64" height="64" rx="32" fill="#F5B333"/>
<path d="M42.6668 31.0104V23.333C42.6668 22.2284 41.7714 21.333 40.6668 21.333H23.3335C22.2289 21.333 21.3335 22.2284 21.3335 23.333V40.6663C21.3335 41.7709 22.2289 42.6663 23.3335 42.6663H40.6668C41.7714 42.6663 42.6668 41.7709 42.6668 40.6663V37.8921" stroke="#133250" stroke-width="2" stroke-linecap="round"/>
<path d="M33.3337 29.333H22.667" stroke="#133250" stroke-width="2" stroke-linecap="round"/>
<path d="M38.667 28.333C38.1147 28.333 37.667 28.7807 37.667 29.333C37.667 29.8853 38.1147 30.333 38.667 30.333V28.333ZM42.667 28.333H38.667V30.333H42.667V28.333Z" fill="#133250"/>
<path d="M27 24C27 24.5523 27.4477 25 28 25C28.5523 25 29 24.5523 29 24L27 24ZM27 21.3333L27 24L29 24L29 21.3333L27 21.3333Z" fill="#133250"/>
<path d="M33.3335 29.333V33.9997" stroke="#133250" stroke-width="2" stroke-linecap="round"/>
<path d="M33.3335 40V42.6667" stroke="#133250" stroke-width="2" stroke-linecap="round"/>
</svg>
