<svg width="64" height="64" viewBox="0 0 64 64" fill="none" xmlns="http://www.w3.org/2000/svg">
<rect width="64" height="64" rx="32" fill="#F5B333"/>
<path d="M31.9998 25.2512C27.9688 25.1832 23.7998 28.0002 21.1788 30.8852C20.9037 31.1906 20.7515 31.5871 20.7515 31.9982C20.7515 32.4093 20.9037 32.8058 21.1788 33.1112C23.7428 35.9352 27.8998 38.8172 31.9998 38.7482C36.0998 38.8172 40.2578 35.9352 42.8238 33.1112C43.0989 32.8058 43.2512 32.4093 43.2512 31.9982C43.2512 31.5871 43.0989 31.1906 42.8238 30.8852C40.1998 28.0002 36.0308 25.1832 31.9998 25.2512Z" stroke="#133250" stroke-width="2" stroke-linecap="round" stroke-linejoin="round"/>
<path d="M35.75 32C35.7498 32.7417 35.5297 33.4666 35.1175 34.0831C34.7054 34.6997 34.1196 35.1802 33.4344 35.4639C32.7491 35.7475 31.9952 35.8217 31.2678 35.6768C30.5404 35.532 29.8723 35.1748 29.348 34.6503C28.8237 34.1258 28.4666 33.4576 28.322 32.7302C28.1774 32.0028 28.2517 31.2489 28.5355 30.5637C28.8194 29.8786 29.3001 29.293 29.9167 28.8809C30.5334 28.4689 31.2584 28.249 32 28.249C32.4926 28.2489 32.9804 28.3458 33.4355 28.5343C33.8905 28.7228 34.304 28.9991 34.6523 29.3474C35.0006 29.6958 35.2768 30.1094 35.4651 30.5645C35.6535 31.0196 35.7503 31.5074 35.75 32Z" stroke="#133250" stroke-width="2" stroke-linecap="round" stroke-linejoin="round"/>
</svg>
