<svg width="64" height="64" viewBox="0 0 64 64" fill="none" xmlns="http://www.w3.org/2000/svg">
<rect width="64" height="64" rx="32" fill="#F5B333"/>
<path d="M33.9591 25.8009L33.1055 24.9474L33.1055 26.1545L33.1055 41.0478C33.1055 41.505 32.7294 41.8812 32.2722 41.8812C31.815 41.8812 31.4388 41.505 31.4388 41.0478L31.4388 26.1545L31.4388 24.9474L30.5853 25.8009L24.0786 32.3076C23.7539 32.6323 23.2305 32.6323 22.9057 32.3076C22.581 31.9829 22.581 31.4594 22.9057 31.1347L31.6924 22.348C32.0171 22.0233 32.5406 22.0233 32.8653 22.348L41.652 31.1347C41.9767 31.4594 41.9767 31.9829 41.652 32.3076C41.3272 32.6323 40.7905 32.6323 40.4657 32.3076L33.9591 25.8009Z" fill="#133250" stroke="#133250"/>
</svg>
