<svg width="64" height="64" viewBox="0 0 64 64" fill="none" xmlns="http://www.w3.org/2000/svg">
<rect width="64" height="64" rx="32" fill="#F5B333"/>
<path d="M42.4276 26.1588L37.7139 28.6985V25.6509C37.7139 25.112 37.4999 24.5953 37.1189 24.2142C36.7378 23.8332 36.221 23.6191 35.6822 23.6191H23.4917C22.9528 23.6191 22.4361 23.8332 22.055 24.2142C21.674 24.5953 21.46 25.112 21.46 25.6509V37.8414C21.46 38.3802 21.674 38.8971 22.055 39.278C22.4361 39.659 22.9528 39.8731 23.4917 39.8731H35.6822C36.221 39.8731 36.7378 39.659 37.1189 39.278C37.4999 38.8971 37.7139 38.3802 37.7139 37.8414V34.7937L42.4276 37.3334C42.582 37.393 42.7488 37.4141 42.9132 37.3944C43.0775 37.3749 43.2348 37.3155 43.3709 37.2213C43.5071 37.1272 43.6182 37.0012 43.6946 36.8543C43.771 36.7074 43.8104 36.5441 43.8092 36.3785V27.1137C43.8104 26.9482 43.771 26.7848 43.6946 26.6379C43.6182 26.491 43.5071 26.365 43.3709 26.2709C43.2348 26.1767 43.0775 26.1173 42.9132 26.0978C42.7488 26.0783 42.582 26.0992 42.4276 26.1588Z" stroke="#133250" stroke-width="2" stroke-linecap="round" stroke-linejoin="round"/>
</svg>
