<svg width="64" height="64" viewBox="0 0 64 64" fill="none" xmlns="http://www.w3.org/2000/svg">
<rect width="64" height="64" rx="32" fill="#F5B333"/>
<path fill-rule="evenodd" clip-rule="evenodd" d="M31.9998 43.3337C38.2591 43.3337 43.3332 38.2596 43.3332 32.0003C43.3332 25.7411 38.2591 20.667 31.9998 20.667C25.7406 20.667 20.6665 25.7411 20.6665 32.0003C20.6665 38.2596 25.7406 43.3337 31.9998 43.3337ZM31.9998 45.3337C39.3636 45.3337 45.3332 39.3641 45.3332 32.0003C45.3332 24.6365 39.3636 18.667 31.9998 18.667C24.636 18.667 18.6665 24.6365 18.6665 32.0003C18.6665 39.3641 24.636 45.3337 31.9998 45.3337Z" fill="#133250"/>
<path d="M26.6665 33.3333L29.3332 36L37.3332 28" stroke="#133250" stroke-width="2" stroke-linecap="round" stroke-linejoin="round"/>
</svg>
