<svg width="64" height="64" viewBox="0 0 64 64" fill="none" xmlns="http://www.w3.org/2000/svg">
<rect width="64" height="64" rx="32" fill="#F5B333"/>
<path d="M25.1429 23.7775H28L29.7143 21.333H34.2858L36 23.7775H38.8572C39.4885 23.7775 40 24.3246 40 24.9997V34.7774C40 35.4524 39.4885 35.9997 38.8572 35.9997H25.1429C24.5117 35.9997 24 35.4524 24 34.7774V24.9997C24 24.3246 24.5117 23.7775 25.1429 23.7775Z" stroke="#133250" stroke-width="2" stroke-linecap="round" stroke-linejoin="round"/>
<path d="M32.0002 31.9993C33.4729 31.9993 34.6668 30.8054 34.6668 29.3327C34.6668 27.8599 33.4729 26.666 32.0002 26.666C30.5274 26.666 29.3335 27.8599 29.3335 29.3327C29.3335 30.8054 30.5274 31.9993 32.0002 31.9993Z" stroke="#133250" stroke-width="2"/>
<path d="M19.4998 34.666C18.961 35.2028 18.6665 35.7836 18.6665 36.3899C18.6665 39.1197 24.636 41.3327 31.9998 41.3327C39.3636 41.3327 45.3332 39.1197 45.3332 36.3899C45.3332 35.7836 45.0387 35.2028 44.4998 34.666" stroke="#133250" stroke-width="2" stroke-linecap="round"/>
</svg>
