<svg width="18" height="18" viewBox="0 0 18 18" fill="none" xmlns="http://www.w3.org/2000/svg">
<g clip-path="url(#clip0_742_8364)">
<path d="M6.74997 12.8571L6.39641 12.5035L3.77141 9.87854C3.67417 9.78131 3.52576 9.78131 3.42852 9.87854C3.33128 9.97578 3.33128 10.1242 3.42852 10.2214L3.07861 10.5713L3.42852 10.2214L6.57102 13.3639L6.21747 13.7175L6.57102 13.3639C6.66826 13.4612 6.82417 13.4612 6.92141 13.3639L6.92158 13.3638L14.8714 5.42144L6.74997 12.8571ZM6.74997 12.8571L7.10352 12.5035M6.74997 12.8571L7.10352 12.5035M7.10352 12.5035L14.5285 5.07854C14.6258 4.98131 14.7742 4.98131 14.8714 5.07854L15.218 4.73192M7.10352 12.5035L15.218 4.73192M15.218 4.73192L14.8714 5.07854M15.218 4.73192L14.8714 5.07854M14.8714 5.07854C14.9686 5.17573 14.9686 5.32403 14.8716 5.42127L14.8714 5.07854Z" fill="white" stroke="white"/>
</g>
<defs>
<clipPath id="clip0_742_8364">
<rect width="18" height="18" fill="white"/>
</clipPath>
</defs>
</svg>
